<mxfile host="app.diagrams.net" agent="Mozilla/5.0 (Windows NT 10.0; Win64; x64) AppleWebKit/537.36 (KHTML, like Gecko) Chrome/141.0.0.0 Safari/537.36 Edg/141.0.0.0" version="28.2.7">
  <diagram id="C5RBs43oDa-KdzZeNtuy" name="Page-1">
    <mxGraphModel dx="1893" dy="597" grid="1" gridSize="10" guides="1" tooltips="1" connect="1" arrows="1" fold="1" page="1" pageScale="1" pageWidth="827" pageHeight="1169" math="0" shadow="0">
      <root>
        <mxCell id="WIyWlLk6GJQsqaUBKTNV-0" />
        <mxCell id="WIyWlLk6GJQsqaUBKTNV-1" parent="WIyWlLk6GJQsqaUBKTNV-0" />
        <mxCell id="6zktyOljEGPCxf7YjeLo-16" value="" style="edgeStyle=orthogonalEdgeStyle;rounded=0;orthogonalLoop=1;jettySize=auto;html=1;curved=0;strokeWidth=4;fillColor=#dae8fc;strokeColor=#6c8ebf;" parent="WIyWlLk6GJQsqaUBKTNV-1" source="6zktyOljEGPCxf7YjeLo-0" target="6zktyOljEGPCxf7YjeLo-1" edge="1">
          <mxGeometry relative="1" as="geometry" />
        </mxCell>
        <mxCell id="6zktyOljEGPCxf7YjeLo-0" value="源数据" style="rounded=1;whiteSpace=wrap;html=1;fillColor=#dae8fc;strokeColor=#6c8ebf;strokeWidth=4;fontStyle=0;fontSize=18;" parent="WIyWlLk6GJQsqaUBKTNV-1" vertex="1">
          <mxGeometry x="130" y="140" width="120" height="60" as="geometry" />
        </mxCell>
        <mxCell id="6zktyOljEGPCxf7YjeLo-17" value="" style="edgeStyle=orthogonalEdgeStyle;rounded=0;orthogonalLoop=1;jettySize=auto;html=1;strokeWidth=4;fillColor=#dae8fc;strokeColor=#6c8ebf;" parent="WIyWlLk6GJQsqaUBKTNV-1" source="6zktyOljEGPCxf7YjeLo-1" target="6zktyOljEGPCxf7YjeLo-2" edge="1">
          <mxGeometry relative="1" as="geometry" />
        </mxCell>
        <mxCell id="6zktyOljEGPCxf7YjeLo-1" value="模型" style="rounded=1;whiteSpace=wrap;html=1;fillColor=#dae8fc;strokeColor=#6c8ebf;strokeWidth=4;fontStyle=0;fontSize=18;" parent="WIyWlLk6GJQsqaUBKTNV-1" vertex="1">
          <mxGeometry x="145" y="260" width="90" height="60" as="geometry" />
        </mxCell>
        <mxCell id="6zktyOljEGPCxf7YjeLo-2" value="任务" style="rounded=1;whiteSpace=wrap;html=1;fillColor=#dae8fc;strokeColor=#6c8ebf;strokeWidth=4;fontStyle=0;fontSize=18;" parent="WIyWlLk6GJQsqaUBKTNV-1" vertex="1">
          <mxGeometry x="115" y="380" width="150" height="40" as="geometry" />
        </mxCell>
        <mxCell id="6zktyOljEGPCxf7YjeLo-3" value="" style="shape=curlyBracket;whiteSpace=wrap;html=1;rounded=1;flipH=1;labelPosition=right;verticalLabelPosition=middle;align=left;verticalAlign=middle;strokeWidth=2;fillColor=#dae8fc;strokeColor=#6c8ebf;" parent="WIyWlLk6GJQsqaUBKTNV-1" vertex="1">
          <mxGeometry x="310" y="165" width="40" height="250" as="geometry" />
        </mxCell>
        <mxCell id="6zktyOljEGPCxf7YjeLo-5" value="" style="shape=flexArrow;endArrow=classic;html=1;rounded=0;strokeWidth=2;fillColor=#dae8fc;strokeColor=#6c8ebf;" parent="WIyWlLk6GJQsqaUBKTNV-1" edge="1">
          <mxGeometry width="50" height="50" relative="1" as="geometry">
            <mxPoint x="350" y="289.5" as="sourcePoint" />
            <mxPoint x="420" y="289.5" as="targetPoint" />
          </mxGeometry>
        </mxCell>
        <mxCell id="6zktyOljEGPCxf7YjeLo-18" value="" style="edgeStyle=orthogonalEdgeStyle;rounded=0;orthogonalLoop=1;jettySize=auto;html=1;strokeWidth=4;fillColor=#fff2cc;strokeColor=#d6b656;" parent="WIyWlLk6GJQsqaUBKTNV-1" source="6zktyOljEGPCxf7YjeLo-7" target="6zktyOljEGPCxf7YjeLo-8" edge="1">
          <mxGeometry relative="1" as="geometry" />
        </mxCell>
        <mxCell id="6zktyOljEGPCxf7YjeLo-7" value="目标数据" style="rounded=1;whiteSpace=wrap;html=1;fillColor=#fff2cc;strokeColor=#d6b656;strokeWidth=4;fontSize=18;" parent="WIyWlLk6GJQsqaUBKTNV-1" vertex="1">
          <mxGeometry x="470" y="140" width="120" height="60" as="geometry" />
        </mxCell>
        <mxCell id="6zktyOljEGPCxf7YjeLo-19" value="" style="edgeStyle=orthogonalEdgeStyle;rounded=0;orthogonalLoop=1;jettySize=auto;html=1;strokeWidth=4;fillColor=#fff2cc;strokeColor=#d6b656;" parent="WIyWlLk6GJQsqaUBKTNV-1" source="6zktyOljEGPCxf7YjeLo-8" target="6zktyOljEGPCxf7YjeLo-9" edge="1">
          <mxGeometry relative="1" as="geometry" />
        </mxCell>
        <mxCell id="6zktyOljEGPCxf7YjeLo-8" value="新模型" style="rounded=1;whiteSpace=wrap;html=1;fillColor=#fff2cc;strokeColor=#d6b656;strokeWidth=4;fontSize=18;" parent="WIyWlLk6GJQsqaUBKTNV-1" vertex="1">
          <mxGeometry x="480" y="260" width="100" height="60" as="geometry" />
        </mxCell>
        <mxCell id="6zktyOljEGPCxf7YjeLo-9" value="新任务" style="rounded=1;whiteSpace=wrap;html=1;fillColor=#fff2cc;strokeColor=#d6b656;strokeWidth=4;fontSize=18;" parent="WIyWlLk6GJQsqaUBKTNV-1" vertex="1">
          <mxGeometry x="450" y="380" width="160" height="40" as="geometry" />
        </mxCell>
        <mxCell id="6zktyOljEGPCxf7YjeLo-10" value="源域" style="text;html=1;whiteSpace=wrap;strokeColor=#6c8ebf;fillColor=#dae8fc;align=center;verticalAlign=middle;rounded=0;strokeWidth=4;fontStyle=0;fontSize=18;" parent="WIyWlLk6GJQsqaUBKTNV-1" vertex="1">
          <mxGeometry x="160" y="90" width="60" height="30" as="geometry" />
        </mxCell>
        <mxCell id="6zktyOljEGPCxf7YjeLo-11" value="目标域" style="text;html=1;whiteSpace=wrap;strokeColor=#d6b656;fillColor=#fff2cc;align=center;verticalAlign=middle;rounded=0;strokeWidth=4;fontSize=18;" parent="WIyWlLk6GJQsqaUBKTNV-1" vertex="1">
          <mxGeometry x="500" y="90" width="60" height="30" as="geometry" />
        </mxCell>
        <mxCell id="6zktyOljEGPCxf7YjeLo-12" value="&lt;font style=&quot;font-size: 18px;&quot;&gt;迁移学习&lt;/font&gt;" style="text;html=1;whiteSpace=wrap;strokeColor=none;fillColor=none;align=center;verticalAlign=middle;rounded=0;" parent="WIyWlLk6GJQsqaUBKTNV-1" vertex="1">
          <mxGeometry x="350" y="240" width="80" height="30" as="geometry" />
        </mxCell>
        <mxCell id="ohnDTurre_5R8QuB-i_a-0" value="" style="shape=image;verticalLabelPosition=bottom;labelBackgroundColor=default;verticalAlign=top;aspect=fixed;imageAspect=0;image=data:image/png,iVBORw0KGgoAAAANSUhEUgAAAb8AAAHjCAYAAACzXxH+AAAAAXNSR0IArs4c6QAAAARnQU1BAACxjwv8YQUAAAAJcEhZcwAAEnQAABJ0Ad5mH3gAAP+lSURBVHhe7J0HYNtXtf+P9pZsyXs7tuPs1Yym6d6LDmgLlF0oowX+8B48xmPzXoHHKquM0kJpCy3de48kbdLsHWd47yXL2lv6n++V3GbYjnfs5H7gVtbv95N+Pyk/ne89955zroJOX6zcKrmVcivCo06nK1KpVHn8tz2RSFhisZghHo9rk8mkmrcpueH7SiiVyhi3MLegWq32KhQKFx/fFQwGW3h/E7dWbs3cDnNzc5NIJJKRYOZWxq2cG+xSEdulMo1Gk8d2yMH2CHbJeIRdUnEDCbZDcbZJEbZhIW4+/tvFx3QHAgHYItgmNPxdz62b22nN6SB+Gm4V3OalGwQPAqfNzMxUlpWV6blZ8vPzLXa7XW+z2TRms1ljNBpVWq1WyTedkgVOwTcS8c1FLHLEN18yEokkwuFwggUv7vP5Yh6PJ9LX1xfq6OjwNTY2erkF+XmCzxPh1sWtjts+bjXcarlhu0QiOX2BLZrNDXapmls+Nz3bH1XaLpmLioqssEtWq1XLTa3X69GUsE2D2SW0UCgk7JLf7496vd4o26FwV1cX7JKnoaEh2N3dHePzRLk5uUEI93JDRx2Pp41dOhXFz8gNNxRurBJu2Sxy+XPnzi1lKjIyMvIgcHwjET8S76Ps7Gzi7WSxWMhkMpHBYCC+wYhvMGLx47c4nmg0SiyAxDca8Y1G3LsivtHI5XJRb28v8Q1HLIii9ff3x9xud2dLS0tdTU1NE+/v4LdAzwseIm66Q9z83CQSyamJgRtGmaq4zeKWy/Yme968eWUlJSXlbIeK2AbpYINgl1jwyOFwiMZiKOwSd8iFXWJPcEi7xB4hcadcNNgkNBbBd+2S0+kktkXCVrFdwt+d7e3tjQcPHqxva2vr5LeAXYKHeJBbA7c+bqckp4r4ZXPL4ZbFrYpFbmVeXt5qFq8FEDl+TgsWLKD58+dTeXk5FRcX4zVTBt9UVF9fTyx8tGfPHuIemLjx+Eat4Rvv7aampi18GLxB3HjwEnu4SSSSmU0mtwHbVJmbm7uksLBwNYvZUrZNGvbsaPHixcQdc5o1axbhOby4qaKnp4fq6uqotraWduzYQYcPHxbCyB37us7Ozre5s76NPckDfGg7t15u8BThMZ4SzFTxw/zbQNenmD21q9l7u44F5eyCggLVueeeG7744ot1K1asEDfUdIRvLNq0aRO99tpr4bVr1+o6Ojqi3OvbzDfk4+xNPseHwCscGJ7A8KlEIpn+aLlhHg4xBGvYY7ua7dPF3LSrV6/WXHDBBYqzzjqLqqsxyjn9wIjVW2+9Jdqrr74aZXuUZC9ydzAYfNrn873Kh2DaJshtxtulmSp+JUql8ppEIvEBvV4/f/ny5bFrr70266KLLtLAy8PQgFqtFg1j4tOR9Bi9GD7FUAV7f7jZIk8//XTf+vXr9bxtD/cOH49EIk/z4RiXl0gk0xsMbd7IQnczC8Zs9ups119/vZE743qMOmHYUqVSiSHL6WqXksnkUXapoaGBNm7cGH3hhReC3LxsUzsCgcBTfOhD3DBaNWOZSeKn53Y+t6u5zeUeVPmFF15YyDeYFoKXm5tLOTk5UzpsMJHgpuvu7qauri5qbW3FMETsjTfeaGXPEIEymBd8httr3MLcJBLJ9GE1t/dxO3PJkiWZV1xxRfXKlSsNGMrMysoSDfEDMxHYJXiDGCLt6Oig7du3J9gmNaxduxYiCPHDKBUavMEZxUxQigJuq7gtKy8vX7lmzZqzZs+ebV66dCmhFRYWioNONdI3mhiLP3ToUODtt99+q76+fivv2sZtE7c2HCeRSE4KSEk4m9tZbIOWLF++fOWCBQtyEVtwxhlnUFUV4lpOPdBBh03atWsX7d69O7Zv374NO3fu3MO73uG2nhtSvWYE01X8cF0ObpVKpfK8+fPnfyw/P38e31SKD3zgA+LmOp2ACD7++OPisampqYbF8P5YLPYG74JXKINjJJKpw8YNyrZ67ty5mHY57/zzz6frrruOzj777Gk7nDkZIFDmqaeeoueeew6ieJg77E+wl/gy70KQjOycjwHcPVVms/mbJSUlDYsWLfL/+te/TvIXyx746Q2+g9/+9reJFStW+IqKitqNRuN/83eFtA58ZzNzvFcimRlg3NLKdukzarV6R3l5efKHP/xhorW1Nf3rPH0JBoPJBx54IHHeeeclVSpVv8Vi+Rl/V4g0xHcm7dIIMbNB/yY/bl64cKH7nnvuiaejjZKJRCL9VZ++4DuIRCLJzs7O5H333ZdYsmSJU6fTbeXv7Dv8ncFTlkgkE4+O28e57Vq8eLHzV7/6VaChoSEZCASkXUoDu8TeX5I9wdiVV17Zy3YJ6RH/yw2VaqYl00WVUabnem6fXrNmzcKbbrop54ILLlBjPg/JnpLjQZ4g0iXefPPN+MMPP9z79ttv7+DN/+D2L3GARCIZL0hZuJQ9vZsLCgoWfOITn1h88cUXKxC5ieRzyfGg4AfyBd955x1ib7CJH/dEo1GkSNzHrV8clNKdZOrPk8dAXbiTyVKlUvnJoqKiD1133XUXf+xjH7O8//3vVyKCE5VWJIODdA5EuFZXVytzcnLM/F1Ver3ebG7F3BtFtRgky5/0G0wimaEgEe/j3AH/LNuly1j4CrlTrli4cKFIWZAMDtI40nYJxUQy2DZVsT2qbmtrQ+k2RISitui0sEsnU/xQ/eDcvLy8L59xxhm3XnXVVRXf/OY3FatXrxaGnT3pGZu2MFXgO0IHYd68ecQeM0oaFfO2830+nyMQCHj5EFRkCImDJRLJSDCwp7eEbdAn2Xh/iYWv+vbbb1ddfvnlhGpRkpGB1A5EvC5fvhz1RzM7OjrOZA/QGolEQmyjUC1mxqVGTBQZ/IV8jh9br7vu2uS6tWv5+5BMBG+99VbymmuuSXLHoY6/4y/xd2wR37hEIjkRNu5MfqCoqPjAeeed53n++efjck5vYqivr0/efPPNwcrKyk6bzXYHf9dIYTt9QmPTlBmNxgeyc3Ia//iH38d6umQU50QSj8eTXV1dybvuuitSXl7eaLFYnuDv/NRMOpJIJg4Uwv9tVlZW8Mf/c0e8vbM3/YuSTASwSwNRoatWrULZxnXczsMXf7KY6nHF99vt9s+ec87Zy776la9kNXitil6fgtQqpSilcyKSSSK7TU8fu2wuadSnXadhVGA1ic2bNyfvvvtu70svvbTT7XbfxZsf53bKFKaVSMbBkUEXF3P75Oqzzr7s1ls+nLVyvoEydT0UjwYoFmc7fcIZqgQZbJVkK1hDhszpWbNzuuDz+URN4/vvvz963333ITH+79wQpIdh0CkNhJmqOT+EbH6CPZEvX3PNNefecsstpgsuuFDx+i4ndfWHKD/bRmqNRowTD9WMBj31+6NU19JHF68oEYIpGRosezJr1ixFbm6uTqFQlLa1tVXyjYeoWtQJDYiDJJLTG6zZ+QH+rdxy7bXXXn777V/KvOqyc8lEDRR0HRJ1OHV6k6gRjECOwRpsUzTYTclEjLTGfNJZsIqaZCjwfaHsW2lpqcpgMMAu5QYCAWMikUAgjCd11NQwFeKHsd0PFhQUfPeGG26Yfdttt9HKlSvFjrXbm2hWcTZdc14llRdm0ezSoduCCgdp1Vqqb+uli86Q4jdSEDU7e/Zs9LjyGhsbl/j9fh9vxo2GgBiJ5HTFZLPZrmS79P3LLrvszG9+85umc889m3QatsA9NWQw2Smr+CyyFKwgs6OazFlzB28580mlUFFSyWJozGPxm9rl0mYq+fn5dO6552KEqoBt0qJwOKwIBoOoDAP7NCVMtvhhGf5P6PX6O7797W/bvvjFLwpjPMDbe9pFZGdpvp1C4TjF4skhW5KU1On0UUNrL10oxW9UICcJUbRWq9WyYcOGlZFIBGPuKJYtBVByOqI1mUyfYQP88yuuuKLozjvv1BUVwVQRRSM+4fUpkmHS6jNIpdYRxSNE7NkN2pJxCnpaKR6LSfEbJfCcL7zwQgx1mpqbm8/wer2zWAQxF4gI9Ukf/pxM8UOQxe05OTlfvvvuu03s9R2XGPr27nYyGg1UUWwXAjccELsel1+K3xhBJwPJuUuXLtWvXbt2Ht9oiALFEOgpu1KzRDIIqNby03nz5n3llltucXzrW99SH5lPnIgFhfgpKUo6YxaptCY2w8MsW6dQUsjbQfG4FL+xgprNhYWFuu7u7vKGhoZzEonEWt7sSu2dPCZL/BZw+/zixYtv/tnPfpaFHBkszX8sUvymFswDFhcXK/jfxXTgwIHijo4O/KN0pptEcqqD+/3/zj777A995jOfyfroRz+qsFiOzgSS4ndywKLjLIBav9+fX19fvyAWix3kzSiRNmlMhvih0PLn16xZc+OXvvSl/A9+8IPC6xgMKX5TD4YakHyamZlp7e3tLWpsbES3F8uQyNUhJKcy+QqF4qtnnnnmp+HxYXWYwUonSvGbepLJpAguwpRYTk6Oyul0VvT09GQGg0GIX0vqqIlnosUPoU63L1my5MNf+cpX8rlnNWyVFil+Jw8MgRoMBktbW1tRa2sr1ibDmlxTGm0lkUwRuUaj8aPV1dU/uP322w033XQTZWRkDFpFSorf1IN/A/xbYDkoeIDZ2dnEdmked87NLICH+BCUapxwJlL8ivlDfCYvL+8Lv/71rx3vf//7hxU+IMXv5AIBLCgosLzzzjul/f39cM9ruEkBlJxKaNRq9Wdmz559xxe/+EXNxz/+cbY5qdqcg9knKX4nhyP/LcrLy8Xq911dXfObmpqKY7EY1gic8HJoE6Ugedxuttls/3n33XdbL7jgghMKn2R6cNFFF9Gf//znbL7ZPsVPP8EtFfYmkZwa/MeiRYu+9qlPfUrLTcx7S6Y/l1xyCX3hC1+gSy+99HzurPyVN2lSeyaOiRA/eAyfYI/v63fccYfp/PPPV5hM3FuSzAiQdHrmmWcqf/GLX2Txv+EXedMHuR0fnSSRzDA0Gs1n2eP74PXXX59/yy23iHtdMnNAx/xzn/uceeHChWdlZGT8D2/KTu2ZmMpkEyF+N5eUlHzy4x//uOMjH/kImc2YPhoZKFeG4Usklmo1qmEbjkFJs+EHR0dHJBanrr6AuI7TGXRWbrzxRvr0pz+dx/+Wn+ZNN6f2SCQzEkznnMP39Sf5vp6L2IPBos2HQ6FUkUrFYqliTxG5fkM1lZ4UKjglEzfSlUxEU8bxNAZzgKisc+GFF9KXv/xlO3fMb1YqlVjzNQO7xUHjZFxzftyzOiMzM/PHLHoLkcCOdZxGw/rd7RSKJsmg01Ovy08uT3DI1u+LUFNHP3X2uOni5RMz59fS5aNtB7upqjiDlOMYpm3r9VGX0099nhC3cPpxqBbkFiZ/KEpWk46GOm0wHKNwNC6EfypAFOiCBQuop6cnu6ampjAcDiPUuDG1VyKZUSzg+/kbV1999cqvfvWr5oqKCmFMRzIVgzm/QN9+ioe6+TUxSkT9FPH3UDTgHLTFgn0UcNUTahNrzcUTMucXcjdQLOwkldrIIjy20T4IaDTYS2FfG0UC3fw3f4YQNzwO1gJ45M8cD/I51aSE8A9CIh7i946IvxWKybNN+LfCvxnsEnt+ytbWVmNTU1Oux+NB/t/e1FHjY8wW32KxOFiZH7n++uvPuu2223RnnHFGes/Iuevx3bSnvpe9upF9ibF4ghw2A3374ytG/JqhgBCt39VOOw710H98aCkL0diHRH724FY62NxPZoPmhB02/P5CkRhlWnT0P7eeNWSB7h2He8jjj9BZC/NJM4XBPbt27aI//elPyQcffHCDXq+/nMVwysoNSSQTQAUbzs9UVlb+x7PPPqtFab/REAv3k7P+aXK3raN4lG99NvDDGUn83CE0Jsd8cpRfTeac0dvBY+k68A+K+jvIWnAOWfPPSm8dHRC+3trHyN2+lgUtzHYHZX2HJ87Cb3IsJEfFtWTJTZWgPJJkMiE6Bomol3Qs9Frz1IUHoHPxsY99jB5++OHnEonEL3nTG6k9Y2es4pen0+lunzt37qfvuuuuvNWrV4/pfQLs3UDQRvNieGhGFpmxXvgAb2xvpXUsfrkOM5VkG+nsRQVjFsD/vW8z5WRl0DnLZlE4MvyiCTqNmvbWddGm3Q10x+fWDCl+D758gNrZm7zlqvlkt+iFaE4V69atox/84AfdO3bseKy/v/8HvKk7tUcimdagR/wfJSUlP2O7pMCc0VA5xkPCvdcEiwW8G3geIyXlLenE43hwt79Nvu6NFOw7QFpLOZWs+O/0ntEBb85Z/wypEh6yOCpIY7DzZxpi5Ry2LfDi+jt3UjSaIGPOCrLmnZne+R4Q+e6DD/F7d7Iwn83HrE7vmRp2795NP/7xj+nRRx99iZ9iagZe4JiHQMfiPiFO+Aqz2fy1X/3qV7nnnnuuCmOzYwGGHx7caBqGAcerA3vrnbSvwUUmk5Eqi7No/c4mKsuzUnbGe2WORsP6Xa3kyLTSvFkOUvHNr9MO3cwGFfW5g9TY5qSLlpfw8cd/mkAoStsOdJPLG6a5ZXbKMGvFMMBUUVhYiEowuieffLIgEAhg6BMtLHZKJNOXj82fP/+2j370o7mY5zuybNmI4d/ZgJAp1fqRNxV+o+MYoWGhjQQ6qavmPjJbsklvzqZYFIuvsN0zF476vROxAAX7D5Naxc6CrYjULH64xkGvHU1jEMO7cXZGNAasTjGIV8fX2N/6GkV87aS3lpHeNiu9Y2rAtBqGQbu7ux0dHR1W9gaRAgHGZBzH8q+1hi/isx/60IeKL7/8cvWoe1YnGbcvTJv3d1KSezpLZhdQtt1MBp1ODFt2u8aaSqKgRAIFuFNDs8O1KB8T52OHo73XL4Y8IYItXd4pFb6BiWbu1KjZgBRlZGQgAnRsYy8SydRRYTKZrj3nnHPmI7JzTMJ3EsEQa3/LK6RSsOdlKaCM3MVkNOdQX9NLFAuNvfwuhiqx3BIhiObYotzHNBwrGMLcYL4v4u+gsK+Vr6k/vXVqQQoE26VMh8NxjUqluoA3YVJ0TN7faMUvg8XuuhUrVpz31a9+dcbdYOFInDbu6yCXPyrWECzMMbM3qabl84uosctHh1smvZbqiNjf2EfBaIJ7bSrxN+YIp4oBoYUAfuUrX1Hwv/Uq/jd/P2+SC5VJpivIrfrCypUrl1999dWK4uIZlmjOHc6gu5Z8PdvIXrCMPb089tQcZLQWUDzURYG+fSLw5mQCAQ3117JIe/lyYyI4BkOrUwk65sgmuOyyy+iKK67IViqVX+LN81J7R89oxe8LbAwvvf7666m6unpKPZLxgi+uo89Pb25vp9J8B5XkZVAonCCVSkGzy7LZ6iupocNDbScxviPB19jnDdHu2h5yZFho7qw8auRramj3UAQu4xSCUkMlJSV066230tlnn30tiyGS4CWS6YaOPQBMPn3kYx/7WMlVV12V2jqD8Dv3kLvtDRa7IjJllpNSoxeemNZgJ3vhcnJ3rKcQe1snE3h8ruZXyGAppIy8ZRSPuKi/9c303qlhQG8wLfONb3zDmpubex0/vYxbltgxSkYqfpgbXMrtsgsuuKASwwozDeTzvba1hSqKs6i0IJOMeo0QG/4/u/NJml+RS/2BOG2pmZQyciMCw533PruPtDotzSnPZvHL4Wt10L9ePUT7GpxiPH6qQf7fqlWr0Mtaw0/P4TZzejyS04G8jIyMH33ta19znHMObs+ZBdIQPF1bKBZop+zi1aREzmCCf+fJuCitZstZQPGwS0RZxvhxKlAc8xMPe5uot/5JIdKOwmWUW3ERaTRq8nRuYo8Vq6JNPfDuv/Wtb9HixYtv46cQwFEz0oAX7lypfn7DDTecx70r3UwbVnD7w7TzcA/Vtfto1cJSyrAY0Y1I7+X7jJvVrCenO0AuT4ByMo3D5uAdy/pdbWTl9ywvzKSR1CjtcvqoqaNP5CsCpyck8g1f3txMer2OFs4upIJsGxl0GrLxdSEZf199D7l8YSHaCPxBoMxUed4Wi0Xh9Xpz9+zZgwoL/05tlUhOOnaNRnNNUVHRh37wgx+YUKt2puGsf4qinlqyZc8hg23ArqZtiEJJSqVKpCoE3I2kVBtJb3lvMfDhSAW8oEZpjPSmLFJp2Oahpz8UqFHqaRfxCGpjAWmNuWIe0t26lj2+1ygZc5OjYCmZMkrZMzWy+BmFffT17hXiqFQiQAg2UynaZINpGaSxbN682XLo0KH+eDyOVeBHNTk6EvFDYdjV2dnZX/3P//zPHGTcY/mJmcQ7+zppV52Tygqz2fNz8D9UKoHySBCJiaAVRGK2d3tpQQUfN0JxGa349fb76UB9t0j1ONjsosOtburqD5NOp6f5lXlUmJMhImHRAzMZtSzWLIBxoo5eH9W1ucTwLF7X54UYqoUgTiYFBQUUi8W077zzjo0f90SjUSwzMrXjsBLJ8ZzLdunrn/70p0uuvfbaMUednyz8vbvJ1/0O6Y1WyshbyqIBu3qk/cDfSdLobRRwHWZhipPeVikiUU/EWMQv7O+moLedRbCJQu46FrYdFGBvT8u2MSN3AVkcVXwY2xp+H7XOQlq+LiTFI+8vFvFS2Nci5icDrgOkNReO6DrHA4ItWfSUbW1tjubmZgyLjWocdiQSXcZi94VLLrnEsmrVqhlXHw9zZvsbXRSOKaiqJEsIHIAAisYCBw8KkZh5WRbKslupts1NnU7/cQI5UeCcUT7frtpe2nG4mw40uSgYSVBpfiZlsogi+wGnTg3LJslo0FFZgZ1/Bgpx7K7DeF0PHW7pJ29g+LzCiQDfz8qVKzEEambh+3+8SQa/SE42Fr4vL5g7d+5yFj/NTCtYHQ05qb/5ZXgWZMqcJVIN2CDxj40FEJ6TaGwI+FEEv2SUUTzUI5LvJwuIb5xFDKLp7dpE3s5NYm5PZ0wF34hrSwsymlpjIjNfl0qjpWigjYKuGhb0XeTr2UEJFsWpgDs9qAFayrqEyd4ybiMeDhuJC3cB965+/Otf/1qPIBcEQkwFMP4w/OMd2nt2Y4MQPuTzxTCWLiQk5fkNzPnxf8VzrUYthhND4Sh19vmpwGESntWJGI3nh2otHb1eauty0ZduXELzyx2i2gu8wZ2HOsQxNotBeKL4d0SgS21LL729o56UyQStmJtH5ywpoPOWFtKZC/IoyzY1EbeZmZmUl5ene+CBB6rC4fBG3lTLberCUCWSo7n5jDPO+OBNN91UgPD3qZoCgLUYhX0dlHjEQ96Od1hkDrCw2EnDXhQSyJEjjLk+fsJHYd6PbZXQmQR7WRkU9DSS31VHtvyzUh7YMAx4fir+ieqE5zeCpZk8rawIFrIVnk+ZpZeRwVbBIt1Hgf56igTd7KE6RK4g/4cvM0oBdzN1N79NXmcd6SwVZM5dSbaCs8lecil7hscvFDwZwNuH7e7r60sePHgQUb9vcRuRR3Ai8VtVVlb2qcsuu2z+Rz/6UcVUpjZ4AxGqYS8H828jHX48EoxdN3emcuRQHczJ4lLHIrL9QDvtPtxB9a291NHjEfN8fj4XPD8VH4i5P6NBS69vrafiXDPl2jG2Pfz5keSeaTPT7JJMvmWV4n2Gajq+d7qdAWpoc9LVa2aJz1eca6G5pXbK47+3HOigQDAq5vpw/OHmXtq6r5nWLMyjy88spUWVWSIZ32rUTkh909GA3nUoFEL9T5vT6cQik5O2yrJEMgwwcv913nnnXfy9731vSpcpgmcEERlrzU3UDkWKQDwaEMnlsbCffH215GrfRk4WEl9fHQVYhML+Ht7nYQ8qwudSkZrFD55ZNOwTOXYQJmwfCohfCMOeygQZLHmk1FlZ4NiO4TWDNZWGwj6sS4gapSVkzl5COnORqPSiNRWy8LZQf8cm3j5bvJe7fSv1tmwmg2MB5c77FB+3SiTjq3UZ/HZTm/uNGJRIJGJ98sknMSH6NLcR5WCcSFX+a8GCBT++9957NdzLUkyV1xeNJUTNzQ172+mLH1g8JiMPjw5J4jEWQXhPoXShaLRAKCb24dEXinOLkj+Iv1FNXUFarYrcvhCV5progqVFVJ7PN84w/Ohvm6jLFaKCbCslhHc5NPgO+1hwsfjlz28/56jyZihmjWHN599ppDnl+ZRhNdDGXQ20am42LZudSw7byS0ogB5WU1MTXXPNNaE9e/Z8kzf9jtvwH1gimWA0Gs0n2S598/bbb6/+9KexCMnU0d/yGsUi/WTJPoN0VoyyjY4ke3aJWIg9pwjbiqgQKQgiEsjxdzzio0TUx+LIwscNeXUJFtyk+JkpKB4Lc8c+QUVLv05669CzDxDYnsP/Jn/PNu5Ea4TQCqM4FKwEkUAve3CzyF52NVny3ytvhuR3X/d26q19hDJyZpNaYySfq5FiSS3lzf04aQwDKw2dPNge0X/+539Gdu/e/Yuurq7f86bUMNowsOQPyTyLxfLRSy+9dOEXvvAFdn5G732NldrWftqwp4M87AHlspeTYdYNWgZsOHC5KIWmZyEz6RE1qSO7VS88rcLslEeH53arjjLNWt7Pxxg1ZDGouKmpIMssBFPP7wHR0aiH/qrw3WRatGS3aCjLpiWHdeiWyecpzDLSgoosqiw6ejUJCGGe3URNXeyRekLCK1XyTQ8PEUOjJxt8zoyMDNTYU3d0dIS8Xm8zb5ben2QqsXAH80ef+tSnlnz4wx9WW63Dd0wnEpGW0LGOBWWnGKY0ZS1O7xk5iIRMlRkziKFIeEoQD60JJcVKhLelMeaQ2sBNn0UqnYM9LTsp1DZ+7uDjM1Pvww2vU/H7DAZ+qyhmrdRa+XW5qWYYpvF+naWMjFkLyZBRSWp+3QB4L40+Uzx6uraLoVe1gTvnxReT3laePurkgmXZ+F5QsPdXHAqFMDEK2zQswynKd6644opbbrvttvKrr746vWnygffz4qYm2tfYT5UlDvK4fXTVWWVCsKYKP4suxKe3PyiCYiCU+Y6pW6C3rt1Nz77dQL3uIF26ooTOWVyY3jM9ePvtt+lnP/uZ85lnnrmLn34vtVUimXR0zGqVSvXIP//5zywEO0wV8M66Dz9CyUgPRXytlFQaqHDx/xNCNbwZnTji7BlitYZY0Ekhb70oLK01FaT3Tj6Yq2zc+F2KBjooq+qDlFX5gfSe6UFfXx8h13P//v1f46f3chs2MXKo8USMr106f/78cpSSmUrW7myjLleYFlTlU2VxNh1oToX2R6JTN7pmMmioJNdCy6pzaElV9pQKH8AwK1aYMGjVVF2SOexoxclgzZo1VFFR4eA/V3DL5zY1v37J6U6WRqP5BKNF8N1UgSHKoOsgedrXk9HkoOzSc0lnyCBn4/Ni7m6qwPp+evYOzTlLKaviA1MqfADeqt5SSAb29rQG/PynF/D+sOzRvHnz4K2tSm0dmsHED7kM71+8eHEG1uhDFe2pACkIqK2JWpY2q5EWVeaJ/LXFswuopqmf6tpOTiHVkwGGQlVi2IJ7IVrVtJSWs88+G6sso6z7Ddyk+EmmgtxwOHzTddddZ8UCtVMF1vjrqX2EMnMXkNFWQsaMUjLbilgM32IvsIXV8fSZ9lZpraTUWNhITY0ujAZo1c0334z6n+fz0+WprUMzmPjBkH3iyiuvnLV8+QlfP2H4glF6bkMjWUxGke+GSEfMsy2pLiC3P0qHWvpFUvjpgtWsEwv3GnTqaaks8P5Wr15dyX9C/KaZbyo5Bck2GAznLFmyRDN37twp65QjcMTdvo47pAmyZs8RCefsApHOlMNCWEjuDhbA4Omy3KVCRH5ixXqVlgVwmjFQj3jZsmWITZjLm4Yten2s+MHOVrJyzlu1apWpshK2bfKBqG0/1E3eUIJKC+yUlWGiaCwuPB9EPOZlWanTFaR99c70K059Fs5y0OoF+cMG2pxM8vLyaOnSpUqLxYKQt0XcpueFSk4V5hYUFLz/Ax/4QBI5p1MBVjLwdu8gv3MnZeQuJB2G+pDonYiTRmcVKzCEXAcp2F8rIiJPdRCsY3QsIks6/WG6gkWMscIH/zlslfNjxS/bZrNdtmjRIt1UCR9o6vDQtoM9tKAyjwpybKRmg495LjSIYHVZjrjpUNwZaRCnOnCjKgptQgCnMxh6uvDCCzXcI7+Rn05NVqvkdGWO3W5fc80112inKt8YhZwDzl2kVqnZ62NHAlVX0knoCpVWDIGqNQZR0gvlwE55+PPrraVkzKxmD3j62qYLLrgA836z+U+sQzrkwNmx4pdntVo/cNNNN9lzchDFNPk0tLtpZ20vC56G5pbnkFGnPmr1Aghgjt0kvD9/OLXqwokWg53pTMdhzsHAEAMboxz2/rDenxQ/yWRRrFKpqvPy8lQY8pyK2sJILu9veZ173y7KKjozZYiOHN2Hp5dIsPe3lKK+BlHWSzI9cDgcBOfNaDTm8tMzuA16wxwrfvlut/usyy67TJWdPfmJi2Jx2b0ddKDZTasWlYp5vsF0DWKI9fesFhO9sb2VolO8tp1kcLgnjhXfVaFQCMk+o6qrJ5GMglVnMldccUX66eTjrHuCFMkQe3zzSGfJ4y3HGiZ+rlCI4BedMUusbu537kvvk5xsFi5cSO973/tK1Wo1hj4HnSA+UvyytFrtAu5ZJfPzEb0++azb1UZOb4wqirJEEjsqiCDRW6dVibkuNf8NQQSod1mYbSOtVkPbD/eIfEDJyQfzL6tXr1ZZrVakPUzfiQDJTGYle31nYDhrskFag697GwX69pBGqyeNwYYkPyIkk6t1CHdkq8m2FHU4Mf/Hj9asOaSI+8jV/HL6XSQnG4wQrFy5Mjcej1/JTwftlB/pDi6fM2fOh6688srKiy66SDmZy4OgD+X1R0Qpr2RSQQadijqcXmrpdFN7j4d6+nzU7wuSLxChCHuHGOZEtRajXssiqaQdhzqoOMdMmZajy331eULvHjscOL90USYGlHPz+XzJAwcOaJxOJ8Z+mlJ7JJIJAT/yT11yySWLkMM1uSRFEnnQXUfxiFvUzoyFveR3NVCwv4G9u27e30dx3oakd8z/oUi+xmgXCeBBb4eo1CLmwxCtJ94SRfNj/HTyh2ol74Gcv/7+fuVjjz2mjMViT/Km46Ilj/wXubS6uvqWz3/+82bM5UxGHc8QCxmS1eHloXoJypahlBhfHAWDYXJ5/NTPzecPUoCf+7h5A6nm8YWEELJW0s6DneK1KFUGLxFgNYUNezvE0DwKPw8Hbst+X1isnO7y8nlH2Ny+CBn06lHXGsU1+YIR8blRMWYsYIml7v7goNc1VPOHYmQxaviHN3lSj/kXi8WifP755/M7Ojre5k07U3skknGDG/dstkfcJ7+y7Mwz36s3OZEk4mEhUKmamyEWPQ17fIh5UFM04qdwsJ+FjYUvEqRYJJAqLs1iFw17xGMyFmb7wy3io6CnmYz2uSIhPPXeIfYia0RJM4UKi70O91tMiqLVkUCnKKWGZY9G0lD/E8EoWFD2XdEdAYhmxUK5qDeaKpI9OjuB18f4/BF/h0gJGezaBmv4TpTcGUDQ0GQSCARQjSrg8XgORaNRdMpDqT0pjvy0P7zgggu+99JLL01aDs3eeieLXojWLEQI/+ACgsLT8OB6XEEhkDD43fx3jytAwUiMzEYtZVqNfOFJOndRvqjAAm+vttVNj7xxiM6ozqErzjxxwdkn1tXRk9xQSWUkYC4SBbK//fEVJyx0fSwhvu5Xt7TSsupsKsgaW7WYnz6wVazfN5IllgA6Glk2Pf341tVTsvoD8v42bNjwHf7zZ9zkmLRkIoBF/sbNN9/8uc9+9rMl5513XmrrhJKkYN8BikU9omKKzjywmvoxsEBEAl2iRSFObPBF4+cxFh+12igELhrxUsHC28nomC+eh73N1Ln/HhbEeZRRdEFaVAcHIuSse5Jcza/wObrS4oBxqqFgK8jipTHmUlbF9WQrulCcc6REg91i4VqlUs3Xu5AFcHSjffCSe2sfI3fbWkokwqy7eP3w1wuPGTVRs2ZdS+bcyc0jb21tpbvuuit69913P9jb2/s/vOmokNwB8SvT6/Xf+vCHP/zZe+9FSbTJ4ZE3DlNdm5s+/b75lGU1DNlJQbUXCBrW2xOP3DAfiAAZF3ts/ezVdPUFyGLSiKWAULT6D4/tphi7hSgavWiWnRZWZKXfbXD+/foh2tPQTzddupg9T/Yo09sHA+Lh8YfpXy/soP/44BKqKMxI7xkZuNZf/Gs7vf/8SiHO2iGEfzh+/PdNlJedSWuWlAkxHQ6dRk17aztp2/4muuNza6ZE/L7whS/Q008/fU97e/tv+Ome1FaJZFwomRe+973vXXjrrbeqCwomvpwX8vN6D/+bhayNLLmryFpwdnrPIPCxECjRsHqL+DshPBms9BAN9AivLRZ2kaP8fSwmWupveZUCvdvEKukFi75E5pxl6Tc7Hrxvb+3jFA+0kMmKJPpStn1D/9aV7KH6+uvJ7+4kQ+YishVfwOI38gL4WEm+v/V1UWA7p/qj73qrIwXeaV/DM6RMuMlir2Bhz+TvZehgRAz99nfuZC9ZQaaclWTJO2EFsnHh8/notddeS3zpS19qa2lpQTGOzak9KQas4qKlS5fOnsyKLlghAXN4KBqN+T4sIDsUGBoUgS+Y59OpyWzQkIU9vqwMA83Kt9G8MjudOT+Pls3OEe+yflc7JdntX1iVT95ggt7Z1yHW5xsWFlMsXitWdWBPMpPFeOimpwyzfkzrCkK4IZzBcFQ8QsDHCuY87VgZYtBrfK/ZbVrhIU8lGJKqrq5GsvvoS91LJIOTmUgkSmbNmjUpwgcwZwcPCMWqxVp9w8E2BkOiWK9OpTGKKidqnY207HkZbFVkzl4qvLvM4ktIpTKQp/1t8nVtJnv+EtKbc0Q+YNh74kVQVGodafh9VQYHC8rQTWXkRz5OeHujN00Uj/rF54aXOWbYJuK70LLwYcX5wa5zoKn5etU6C3u0U1Odx2w2i0Ic0WgUgXjHpS8MiN+SsrKyqkWLYLsmh072ftwsevBaWrp96a2jR6XiXgOLIYQQgtjlDNCOw700d1YuzSp0UIbFSJ5AjPacsBpMKro0yh0rJNLHYolhWjItpsP5h4OD6jWt/HnhxXb0+vnawuk9owP3NrxgZHkMfo3vNXwmHDuG38OYQR3Y7OzsOfwnygpJJOMFFnJ2RkaGdjJzjhOJiPDWwr424bGNFVQ/gQeFYBe9tYyC7loK9u0hvcFK5swKchSsoJD7EHm7tqRfMTTCm4THl4gO3+LRtKc1ersE8HlD/Lkj/k7hvY4Z9oIT8VFcL9vCqSIrK4tyc5HuR1jo9qj5qgHxm8cHFc6ZA9s1ORxo6iNfMMYenZr2NzjZExy7BzQACmHvONxDGvbgqoqzSM9e4qwiO+Vm2dj76xT1Qk82Lk+I9jX2sUdmpOYurxDAUxFU2WdDZeE/h5g0kUhGhUmn052xatUqzWSVM8MwY8jTKApXI+hFBG1wGy+Y13J3vE1KRZQcRWcKT8dkryCVIsGieJi9v8b0kSePWKiPRa9dXGsiHmRhbiCkeZyKrFixIlZcXIw6n0fZpgHxy0XCMlRyooF35WGPb1dtD1nNRrFUEZYoauxwiwCSsRJhbw0l0Rq7/LRqQYno+yD5Pc9hpsKcDOrtD9HBZu7ZnGB+bDKB99XAnxPznGcvLSekJiJoxeUdRy9rmoIgqbSRggBO77pskpmAyWg0rli+fLljsjw/CEB/8ysiSd2Wt5RFwEcuVHUZB1jk1ln/JCVjXjLbq0hrycdG3qPgcywhlTLJ53gzdfBJxN22nqL+NrLlLiZT5iwx9xdmMTzVQMoed6C07P1hWPM48VvIN5koCTMZdLmC9Lfn9vGZVDSnPIfmlOVQBXtpD79+mHbX9R5Vymw0rN2BBPkIza/Io+xMMyGEGAIYY8HJsBioqjRbzAUiPeFkgNSLVzY30dqd7WJItqzATmfMK6S6Di89sbZWBO2caqA4QmlpKVYdxhDCVI66Sk49jFqtdumcOXO0GRmjCzAbCQjT9/ftF8OQ9rzFlFdxMWm1BvJ2viOGLMdCMhERaQ2ezs1kthWS1TE7NdwndsbJ7KgivdEu6oAG+g8Jz/NkgCCcvuaXxRQSPjcKdAf5u/D17BAL5p5KIGVv3rx5mP+DTSpKbU0B8Zu7YMECM6r0TxQoPo10hY37Oujh1w6x26+mJXOKqCjXRhaTjhZXF1BxXqZYuPa5jQ1iDhCh+fASRwK8KSxxlGk1iXqgR+bOIOkawR6zihwU5PfEcVM1/Inrx7kaOz30r1cP0L5GF5UVOmjZ3EJRsWY2C/KCynzyBONi/x4Wf+QbjrUDMN0oLy+n+fPn40ZCUVkpfpLxoPH5fJVVVVXqiRK/BAtRPOIjb/dW6th3D7lZBFCb02DJI5XOSraceWTLqqS++qep5/C/Kdh/WAwLjnTFhkigh3rrHmfhKyCjtZAIgR1H2jSFiozsCeoNZnI1vZia/5oSkmJYN+iup66a+4TXZ3WUU2b+ElLz59YZHZRTdi5FvfXUXXM/e4FvCq84jkT+GQ7ykCF+DAJejvLwIH7zq6urM8db0gzDizWNffTs2w309Fv19MrWFlGzU6c30KLZhcLz0etSCdfw1JbOKRSh+01dAXqeBRCvQe7d23vaqad/6C8dYvHy5mbSaLRi+SOLSSuCSQbAn6gCYzMbxP7ddU6qb3On904OSJZfx0L++No6evGdJv4MneQNJln4WOyq8smRYRLCaNJrqZoFcF4Ff9dKrRD/Zzc0iM/90qYmsZDvSDsA05GioiIqKyvDTYa7TYqfZDzY1Wq1biKGPAOuA8Lo9xz8J/UceohcjS9QPNhKlowCFoBlpFTrWRnjpDPliqWLjCYrxfwN5G59nXpqH6XuA/cLMYyFh7YjmDf0s6gmo24holp9pvD2joLFF+sAmjJKKOxtEB7gZAogkvaRN9hV8w/qPvggi/pTFHTtIzN/bnh7Bis7QnyNyM+z8ee22EtIo4qyCB5mD3iD6Bzgc/tmcNFu6A06TxjdZI4OeNHr9QvYYNnGe5MhhB8ez+aaLtpS0ynW3vOH4lRZ7BDr86G6yUC+nhACo54qS7JIlQ6A2XqgS7x2f0PfkEOCgVCM37eP6tq8lJ+TkV73LyFSI9DwQdEghng+pzyX+rwRqm93i4jOyQLJ+EjgR4rFjsPd1NjhpWy7hUryM4TgJeIpQcMcIJZrwgoVJfmZwuPdcaiHNu3vFOsZNnV6hXjPVHAP5ebm2jQaTTU/leInGSsmpVJZzPdSUKcbed7aUKDoNFZocLevFwvThty1pDNkUkYePB9MUTPw7vjHp9aayOKoYo9BzZ7SIfJ0vC2SuLFqeyI6VJR6kvw9O7htI2tWNWkN9pTXB99CMdD458C/bYXGyJ5mPhlYBPG+SJSfLDAM6+nYIDw5d9s6sUSTSq1hkZslUiRSB8HgoCnIZCtOeawJ9hJdNWKlCnz+1HJNM9gwMZjWYy8QH/rdIU6VVqv9zvvf//6c5cuXa9PqOCb0WjXNKkitQTe7JFNUF+lzB2jbgTbxvcETQzQmvmQIVn2rk9Zvr6dYNErL5+bSuYsL6bylhXTWggLKsQ9+HS3dXnqJvT7M8xn0GjHECbFD/t2AsOJkeMR2A3uaCKpBgAmCYYpz0zc6g7UBez0RWjy7QLx2OCCkYfZsd/BnQX6h3Xp0TdFcvt45ZXZawJ+9JMdCWH921+EO6nJ6xTVkWFOfB+/T4/Lz+7TS7kNtVF2cSWctzOfPXUTnLikUifm47tTngJCLlwngWdqsJiovzBTzicOhUSmp0+mjlo4+umh5iTjvVABDVVNTo3722WcR0noPt1NjPFcy1WRzb/3sRYsWnce2SYs6jeNBbykhW9H5ZM5aRIaMKlEOLOhpomion/SGrFSenBJriMYo6G2n7sa3KOBuEQu3ZpZcRvbSy8kx61qRq4bf5bFgns/XtYXFsZ+M7NUhAR5zTfgtC+8Pv2fYJByMRz4XRLa36VXSWcv4+hCFL3aK96K4nz1HK58P3uMwPyGFilBrNBJyk1qfTXprOb/3e1VakPBuLTiLLHkryWSfz8beSoH+OvHZ1OztYkHeVFkzPmXET87WreRs28K2MkyW3DPJnLOcP/sV/L0tTr9vyi4NgDzBYP8hUlGMPVp2ZDQG8fmGhL+TEH+/mObRGPNJZz5qCm5S2bRpEzU1NdW53W4U4BA9DlU8Hv+fj3/848Zly5ap8A82HiBCqH1pt+ipJNdK1SyCBQ4TbTvYJZLbMd+Hua86Fr5Ne5po5ZxsUYpscWWWqNNpE/sHvwa3LyxKnqGWZzAUobauftpb18VC0k419V3U2uWi7j6fOG4gwlPHgpzLHlhdm4ta+HiIC86Pf759Db3sFUZpxQIM96ZWjxiqadQQ7CRt3d86qPgBFNO2GrVCCCuLMmgOf3Znf4AOtfSxGKq4M2Cknn4/bd7XTOFwmK4/t4KFr4DK8qzi+zJwx0D8WJiaJhd7iQmRxzgAhkizMs3cscjg+2vw6xxoOn4Z8h8b251TKn6IrKqrq6PHHnsM4ax3cZuqSQ3JqUWB3W6/8Oyzz1594YUXqsa7eK3IwVMb2Muzi/JlqCyiNReKOpz9HZvJ7KgkpcFG3u691NO8iXQZsyl37sfJmrdaGGi1PpOFBL/5Y39HSRbQPoqFkB/InW4Wo5C3gzz8Ps4W9rg6d5G/v5m3dbJAYQ4tIMQM1wJhQy3QKAuXUm3k55gtSImfIhEkvclOaiNvg02AQA3W1FqKoxZosJ9UuqzjxA8olVohekjEN2bOYVFbSWKtwvbN/Bhmga+gZCxELfufYJujoAwWu+yqG7mTUMGvyWFBs4j3RIAQigCIIeI0A+KnVibFvKmSxXTo6+XrYm84zN8Pa86Ui9/hw4epvr6+s7W1FeInIprwrxl+6aWXNJdeeumkWEhUdtnf1Cfm6cqLcyjPYWWPr47OmO0Qpb4geiMBHhyWMcLQIR4hcAiSwSOGQ7EtEI6LYs4YbkVyObbB8/KzWEJTl1Zl0aUrSsT7IRDnhU3NVF2alZozHLbDouDzx9hb7aPvfWrliMubIbkdQT81zW669vwFtI49XZ0qwQKaS/PKHMeVHcNlwEtF6bWlVTm0SsSOpPjBve+Qkz3Vwhwr3zzDXCwjCoez8MbjUfr57ecMWd6stcfHnyshapWmdXfcPPnkk3T99ddjnOR8bq1io0QyOlZWV1d/8zOf+cz1n/vc51A4Pb154kCkpa97J/XW/pts2VViGNTnahQd07x5nxKrM4wEJIcnYmExxAgxgSCI3DkWukSUf4Mxfh71cfOKFo952RkMC5FIsi0LB3rJWngB5VZ/hE1QgnoOPUK+zrd4X5C1DaN0Q3t+EHV4r6TUU2bplZRRcgnrzImHiSHY3Qf/SYpYP1lY/BJsJ/o6dlNm2dVkyz+LHcr3Ot0DIADG2fgMmdgbxkruEOxooJt6Dj9Cgd7tLOjatDAOZ5sU/Hm7SWeZRfayq7gTMkihcjaCkWC3+I5QPUclvoPxA7t077337nrmmWd+x08xKkUq9ja+c+uttypLS0snRfywJl8+e3/NXR5yukPk8gT5BojQ+9bMElVaRgo8GgytwkNCMWp4XxDOgiwzFeVYxDCrw6KjDLOWPTANmdkDNemUZNAqKduWqgbjD0bEig/4G8YepdMyjCp+DT8O02zGVBm0OaWZNL/cIa5hJOA6ITy1rf1CiLt6PbR0dhatmpc/qDeGKjKvb2uh2jYPGfUa/t6M4jMDCKOVrwMtc5BrPLLhmDy7gRbMyqIq9kIHPMpjwULCtW1uqiiyDelxjxbuXdELL7zQGwqFsLgZMobl0KdktMwtLi6+7vLLLy9EpN5kFNqHcGgMmGZQkq9nJ3swjaTUOshWcA4Z7SMv9gGvCEYf1V3U7GHhPbWmPDbwxaS3zSKtIZe9nGz2HrPYkLMHqeHfo5o7myo+nj0r1LtEiTWs+KAzoYRbkvcb+Fi78OaGa7hejbGADOzRmRz8PfE58HlOhPCCtWYWInipO8WwqSX3LP7sa/j6jndG4Cn6nbvJ0/4mhT0t/LkqWZhSDgDOp2AhVOkcx13fYE1rLuFrnS+Gn1PifjTolHg7N1PIUysEFt/nROB0OmnPnj1Rbgf56XpsU2RlZfWzGprOPPPMkVn0MVLf4aEXNjZSe69PDMVdsLSQv7hJ0dujgKfYx6KLoBQk29tYHEvzrCMWsMFA32akV47UBwTyPLuhnhaxGF3MnmdRNlLhjgbzfI2dXrr/xYNUkGsjJWtGcbaRLkl7qhMNvpe/PrOXulwBuvWahZTHHYmJ+Od4/fXX6bbbbjtcW1v7/+LxOLJ5Z368tGSquW758uW/vuOOO8rOPfdcMZc8WcBba970PTbqzWSfdQ1lz/5wes/kAw8nFuyjsLcJw0uiJuhU0tfwtIgEhZdbsuqHLJ729J6j8XZtI0/HOlImg+R1HqScOZ9koTybhX/iOyWoMtOx9y8UYWHGfKut8Nz0nvGxf/9+uvPOO/vvvvvuv/PTr2Kb0m63JyZrCaMjKc+zsFeiFXNj89iDmiowBJidaaC5ZXYxjDin1D4u4QOj0QgU5a5izwo1N2cVWIWHOhgYIn1jexsV5tlo6ZwiCkdJFAHAunzDD3KODZRdwzXBo+yfwIozMFTZ2dkaFnP8kia1QyU5ZdFzxzgjHaGX3jQ5wIBjrkxrzhdzY1OJ1pAjvMzM0sumXPiAmsXOYCvnz1/C3uDgdgnl3pD4H/XUU3bxasrMW0oB5y7y9e5OHzGxYOgXNUdjQacYPp4okO7Atglu7bvuJsRPMZmrtg8ALw/5dxAOvViAdvK9vukChi4TiVRQDCIxjwXzfCjE3dEXoDPmFpPdaqDyQjuZDHoR5TkZ3xRKzDlZABEghJJrE+WE6/V6lMnTKJVKjItMruWSnKroEomE2WazsUM0McPxw4HhNQzBpYJaTh8wP6jCqhD8+Yeyx31NL1Ei3EX2olUiIR75gRFvI/m6t6XmLieYeNhNIS+ChJonpM7qAFjhgZ08TGa+GzqszMzMVHLvakqUCAnpDvZ8kKYwBSOe0wYszYT5TcwBYu7yWLYd6Ka9DS6aW57LnqJWeHplBZmUl22jA00uauv1nzAdY7QgF9Og14k6qKLSzAR5f/D82GhhnMrCbfItl+RURJ1MJtVWKwKxJtdQ4N0Raam1lL47j3W6oNJYSWcu4c+fBxc4vfU9IHARXzPpzblkQak2ODDsHZszy1iknORhj3AiQbAQcjHVGqNIwI8Gu8jbvT29d3xA/LRaEcjzbg9HyRtZ+6amg46AEYT3j2Ux15kM8hsvXlEsAn+Opbatn+raPUKIZpdlC+FDHozRoKEcu5k9KS1t2d8lolcnAkTGrt3ZSj39ISopsNO8ilyKJxX0+vZW6mbPc7xgCJ3vKQ0bLXxY6flJxoIKc+DIO570uAB+f4N9nljIVmeZnPn16QpWgDfnrhQrqx+bIoEV6vuaX+LOrFEk/SvezeFLki13kfidYy4wLhL/x98xR9QsxNTd9hbZsudSVsk5vDFA7ta1qRSRcYIRhPQI57tzfEq+wXj75CeC4eupKLDR0qrsyb+hpxkQ+7NZ9DMtRw+roCrOxj0dhNqni2bni2owA0SjCVEYYHZZDnuFfWI1+LECQ4JIUgT9oJLM2h3tVJiXSRVFDirNzxSFt7EmIgJz2np8ogjBkSXjRgNuML1er+RHhPKeXv/QkolCiXsWQ+iTj0IkmRvtc4UHeDoBTxe5f4aMSrbJ7/VTUaoNC/HGQ71ktpdxpyCfe+TpBQKSCdKY88hg4k5zxMUCuJk3jTGdl/+NUVgAQ52ejo3k7XibVEq2ezlzyZa/mM+RRbEQe3+dm95dfilVDHxstik9hP6uyit1Oh3EL/108pBW8GjCURa+fR2iykxRbiaVF6Byy3tZARAfDA8X5WaQ2aSjPXVOUUN0NCCgBbVQsZDwwZZ+enlLMz27oZGqy3No5YISseo7CgFgBfzVi0ppy8FuevrtetrBAolzOVkscZ0wRCMFHRvuFWIeGZZLDntKxoIQv6kakZIcTchTT/3NL5KjYBnpjTlsjI4ZdYpFyGArIrM1TywJNdrAFOREIqgl7G+joLuOOmvuE8XEtVo9Fc27nlD9hl1Bysw/g7KKlpOn5RXqPnAf+bq2UgSL7wZ6xuRxpnXu3Ztqyub7JO+BH3Y7e1jPb2yk4vyU9zVYyTLM82nVKiFOu1j86tr603tOTK87RM9saKCf3r+V7nx4Bz36Ri0FIwp633nzafHsQpH8j/dHQyBSZUk2XXv+QhH99tBrB+k3/95BP31gK9373H6qb/ek3/XEQPxwk01Jj0oikUwogb795GlbJ5LfTZnlpBTDncek6rL3pdFnilJuGMTDcGU8MnIb4Wx4jg6//jlq3Phdatl8BwtaPTkKl4nllZArKVwlPidKr2F+sXDOVWTLqqCwex/1Hn6I2nf+kpo2/UAMzY4H9LDG5kNKxgw8sTd2tFFxnp1sYigUtUhRjk2VighlwUNyPMrF4bEg20Z2m4lae/yivulIQIoF6qyeu7SQllXniIR5lwfl1Vqoo8eDEQcRfINzQLD6PEHaVtNKzn4/FWZZaElVNp2zuJBWz88ThQFGC+quSiSSmQOKbKNGaSzYSQYUuIboYS4QMxio+oJi3XiOIVLu22IpJKujkr2/l0a1EK7JsYCyqm4kW+E5ZMpayE5elDy9+0QOYWqMMO2P8XliYR/1d+ykvrZNFI0ESWsuEnVHUXN0vKkpylgsNiX6h3y18ayrN94rHOvrMeyH6iwThZh76w+KsmK5mUbqdnqE6GzY1URb9rbSvtpOUfu0nQXK5Qnw+VMl2pZUF5A7EKPN+zvT7zQ8SCdBjdGLziimi5cX04XLimhJpYP0qgTtqe2g5g6XKNaN4dXuPi9fQwuFQ0FaXOGgK1aXieT6i5eXCBFElOpIwb2E2n3c8I8tO1aSsZCckrgAvlex8roEI5shIX5Y81CpMVM46KG+9u3U2/AGuZrXs3e3k/y9hyjkRgpCLyUiPpEaYs2u5s5zjEL9B1moRrZ0HKq7ZFW8XxQLd/AjSrMp9fnkcdaTq30b/7OwvVXrKORt42vYRgF/H2mt1WTOXUXW/LMpo/gi0VQiRWPkpHXuXZukmjdv3rfPOeccdVZW1qTdbagmgvktDLGNxYsAuDjU8uxw+gmrs7v9I2+I50G6wVho6fJRtysw4hqkJwLXA+HLyTTwD4+FNRQml9tPvS6vePQHQuTzc0chkG7BiCjLpmUxa2h3sXD6qSjHTBnmkVW9gOeIUmkoB4dVNwqyTFTb2idWfbCY9OJO2MuC6/b4WPBKac2iAnFtJvYcx1LyDGWENm3aFOL2DgvgBt40uolKiYRoeX5+/tWf+tSnJnXeTyzw6jrIRlwryouNVXARoh8L9VIk2JNK0B5Bi0cgFFjhAWlfo/+d4ZzIsxOl0VA4elwkKYZhS7ZH8KZU2gx+HmQB7KeAt5NCLD7RSIAi7IVFI17ex43/xmK3ouB1lL9HTwsp1HrSW8vS7zk8+MwQLwyfGjJmi9eF/d3k7thMpoxSttkqcrHH53W1iJql2ZUfENG4qPc5kvqlg/HGG2/QunXrUNT6ATxXvP/97/f8+Mc/NrIITspdBsGra3fTI68fpsWV2XTVWSP7cgYDi73+6qHtInVgpLepNxChmy+ppktXDiwbMjqwOG+3K0i3XC1WA5404IFB1Hv6A8IzRCpCNz/ib6c7QFqNmmwWg6hOk2XV0k0XVglhGwso8/b7x3dSYa6DRU5Huw+20Keumk8luRZREWc81NTU0G9+8xvXPffcc2csFsPKDr2pPRLJiLl12bJlf0GpPCS6TxZhXxt17r+bTJnzyFZ4PmkQ3DEG3O1vUV/Dc2INPIjoiUDEIlILHOXXUGbJpaOuXwnBcbW8IgpnGx0LRKHpyQRCDa8Qc2wRfydFA/w3P0eB7AR7aTpDtqgTas07m7Jnf3DM+ZKI6MRiwyplTEzHRGMx0lqqKLvqhvQR4+O///u/6Y477nie/7wKz1Xcw/rGZZddpsnNzZ2UAAV4Of965RD3LZSkYe8LphXL/oyFTvb6dtX10keuXEYr5hfTotkFtKS6cNC2lNuyuUXU2Oai4hwTzS4efUm1zfu7qK4DC8xiVYc4FWabuceS3jnBoNeJSjDw6PIcJirPt9H8cjudMSeHzl5USAsqHFTM50fBbugTXHirSTcmAcTcIvdJqL69nzp7PKnSb3PzxiymR9Le3o76np79+/e/mUgkkKE6cbXTJKcLiwsKCq694YYbRHLyZAyBwpB7OzZQ1NdEvp7dQkC0orD06Am561khfJSRM5vyKy8ne8EZlMkNj8e2rMKVqYRxRqzBZykVRbFHSjKZYA+phbr2/4N83VvFskNI05hM4GmpdZliGSikRZizl5C1YA1lcIfBmr+adLZZ7JWViVw9eLUY1hwLKKqtMeRQX9PLFHDVkin7DHLMukZ45uMFq3W8+uqrtGHDhr389GFsU7pcrgT30PH3hOMPRentvdxDSChofmU+BUIJemdf+1Eh/aMFkYkOm5GyMtBMQzYHHjONIoAkKQb3Rg6OxlAnVpdHVQCr1UhvbG9mL3Liy/kcCX7jECAM0RpZ5LD6BMQQQ5ZY96+6JIOWVWfTynl5lJ9lEitmjJVFFVmkVyvE/Nxisc7hxPR9cJPxPRVmg4XwLxn1IhkLmIgLut3uSQmcwnSDt3MLt41kz1tMenOWiHIMe1vSR4wepUpDGvZ4NKZs0bRDNLUpRwSKCMEb1XBnyobBC+treJaMlmyxhl400M5CcUDsmzwwtMqdbhZBXDeGRiGG8JT11lkigAWFrjOLLxYBLGMFuYZi/URtaikjrTFvVB2D4fD7/bBN+BLfzctQOp1OxWSInxjubHPT9kM9NKc8hyqKHWS1GKnfH6O99X2jlKOjQRJ2NJ7kx/iQLcZGPRaD7KVXUB4FWIPwze2tFGPRRp5dtt1CkTiJZPOBhXJPBvAMkSgPzxmP4xmizLTohAcI0RurJz4YoVCIent7o2y0sMLnyfuyJDMZdJ683ImaFPHz9+6koGsv6fRmMtsr2CNbQWHPYfJ2bUkfMQYQPINADQTQINZrqMb7E8ibOzZ94IQoRFCKv3c3RTz1lJG7SFRBSbLH2d/8mhgKPVkg8AVDnZiTw2LB4wEiK8rNmSZO+AA6UpFIBKNQSBAUKPv6+lTRaHTCxxUaOty0q7ZXTFzOLs0WQRflhZmUn20TwS9Y2X06Aq+0sdNDu+v6qLQwiwpzbexpmmhBVYGogIL5v1MFeMUQ1IksNwfPr7u7G2UYnNyk+EnGQiCZTDq5EyVGJiYSBLl42ONTJEPkKDqTsHCr2V5JSoqLVcnF8kLTFAgfvFVzZrlIRTBlzSaN1iDWvgv2HxZDoqcCWG0Cq+6PZP50pPT396NjDuFDp1yg9Pl8elbEibN+DARk+8Eeqmv30ZkLU4EmmDPLc1iEJ9XTH6RDLa6T6kUNRVuPn97Y3k6zy7KoNB+LvKrE8OPskizq90bocGs/uf2TO/w5VeTZTVSSZxn3Ek9HAs+vp6cHRgsl2aX4ScaCj21SF3eiJlT8EGjirH+KnS+3EDydtSDtgSnIlreEEFjqankjdfA0I+xrIW/3FkqEe8letJJEhGgizkJYSWZbMbmaX2DPcPw1ME8+CjGUqs+oIpVu4pa+wyhCIBBAiG13aguLH7eY1+sdzyjkcWAZnh53mObNyqVse2rCGikWSHlAxGJVSQ6t39nBYjK9RASRlVjhwBeKiSooZqOe769UnUt1utIKhmwbRlHxZDqzZlE+XbGqTPz7TBRstCgYDKJ4bBu3ie22S04X+rlT3tTa2pqcqCkZ5PMF+mpENRKTNZ+sWdUsHun3ZlE026tIb7RTyD3gRU2vW7ev8UWKB9vJXrhSzC8KWPz0lny+9lns/TWKtA14tjMZDHuac1dQRtGFIhhooujq6oIAokMOuyRQarVaJ2+MsiqmN42Ppk4PHWh2ifm9ebNyRI7dABi/x5I9FcVZFGCv73Cre1oNf27a30m7WdzmV+SRia8TV45eAeYvEYhSVZpNCe4vYC08rME30zFo1SKwZiLxeETHAL9Amd8nGStetket9fX14Wh0YuwDErOddY+TyZLL4leUGlJDj3wApYqMlgIxD+hqfvGkzqEdi7ttvai6YmRPFSXH3guY4D8UKtIaMsmcUUz9ra9TNPCuYzNjQWCNUm0QQjhRtLS0UGdnJ9Ku3q2JptRoNE3d3d1huIXjBfljr2xpJpVaS6X5drKZdUI4BsC9hmjNDIteLKeDABIExUwH9jU4qaHTS2aTQax2gKs+cmUDOEcWk47K+Lo7+4K0/eDMv8kmGkwqO51OVOfATXZqTEBITgYev9/fzuIXnQjPD5VHfD3bKRFxki1nHouFnY3RMe/LnqHOlE3mzFKRuoB28r2/pMinc7evJYMpk73VOel5sPfsEj6HSmMgW/Z8ivrbKcieKwpHS44G4tfR0QG79G6JLCX3rA60t7f7UZljPKAE2H4Ws4MtbhHUgrXokOMHz2+gfiQaBAWPWLjV6YlQfbubEL15MsG1I6cPC7GunF9Eep3miGvGKHRKuLFKQlVJFt96KjrY3C/WxpO8B+Zo+D7ycoeqMb1JIhkLGPZsaWho0E6E+CFQxN+1iSwsHjpjVqpGJX7VmDcTP3Bu/PtWaIxkYO9Pb85mb2sdRXwjr1c5GUSDfeRufYOFOUgWeyVp+NqEaON6hVXCdaNKjFYsOGu0FlIAn9W5X7xe8h7s9SEKHSsDtKa2sPhFIpFd3MNyYUx0PGC9uXW722nFvGKRp9bnCVAgHCEszBpPJMSQJ7zAAU/QZtbT7NIsIYBbasZ37vGA2p3rd7WRLxQXBaQxRxmJxo645qNdGLNRR+VFdv79qMWisPFBVmM4XcENxh2pfr6navip/GIkYwWK19rT06MLBscXXR3oO8BtL2tEhDR6G4VZUOIRH9+d+GGzZ4cfuAh64RaPCi8qM3ch+bo3iaV9xgaEaZyw14no076m5ykzZ4G4dooGUteLJqwSGiOuP0mZ+Ysp4q1nL3dnarvkXdLOHVYFeDfVASXNMrh3tWrp0qUlS5YsSW0dJYh+RAoAQudDLHht3W7aW9dFOw50UE19F7V29VN3n5/c3pAopgx0Wg3lstDUtbuoqaOfFopE61QFmKFA4jnyBlcvLiWDTskdICVhZYLBGuboNGoFbatpp8IsI80uOT5yCLVC4XnWNPWLEmKHmpy0vaaNGtr6qL3XQ87+gKirCY8P74l5QH4QQTtef4Q272ujRVXZZNK/uzjwac26devoxRdfPNDa2voUP0XmrRRAyVjJzMjIuPGCCy4wFhcXY33I9OaREwv1UTTERk+IA9smXxd5uveSs2Uj9aNQs7uZt3UKDysOYWEvSqU2kMaA2pY+ioa9Yu4JVUeGA8Em8XAv6XQm0loKxfyhWP1gsIZqJfEIBb0d7Glah6zwgqAbT9t61sAI+V2HydWxnTy9LOSeNgoFuvmzeVkDo+z1qfhtdeJ9VVqzWPUcdTfhZOgt48u5OxWAA9PQ0EBPPfVUorGx8Wne9E5qT6qLksftoZ///Ofnfe1rXxMbR8vAygdIcQiGYuLvIItcKMzb332MsycY44Zj40J4sFirh4VTpUjSGdVZdPEZqfWhhmJ3XS/94p/baU55thC3I6bkBgXvtb++m244v5KuXlOe3voe8No8gYhYcQKijNQLDGXimnGNqWt+73ohglhYFl6rWCjWG6TyPCNdsLSIPcKJFUAsJovvFZVdhvtOphN33HEH/exnP3vB4/HgRpLen2Q8lGdnZ9/7ve99b81NN92kyckZfd1NJIWj5BYiIPGIBVAT0SBv93PDYyD1N7bHsM+fmi/jTjUS0cMBJ1kLzqWc2TcLkRmK/pY3uL1C8WAHaYyO9NbBUfD/4nxdEFZb4YWUWXr5oDVFsZo66mhimDPG14dC1qnrRfNRUjz3i8+EY7AALCrM4CcHgVRoHFS45MssjGNbSGBwkqJ4Nwpqp6qwjG9JoakAAVMvv/wy/fSnP6196623vseb/pXak/L84AbeuHz58qqLLrpIbBwtECIkSyORHUEuDptB5JBh9YHiXAtl2fRkt7BomDSiNiW8NqSWadkzwz6rUSdWL8jNNIj3wFzbYKCeJfaZ9Sr2tpRk4Uf8PVTDMWX5VlpUmUVZg6wmgflI5Lih2glWm8h3mERx5zy7UVwXSotZDWp+HxXpNVhbL0larP3LPUl4lSa9lho73GIVBJQgwzzhRLFpf5fIKawoRK7hhKZhThqPPfYYvD+MudzNTaY5SMaDlr298tzc3PmLFi0ysBCmN48cUZJLrWfPyiwqkGjZg9OZC8QKAqhRifJZqCai0jtIqbGxYFjYKLCdUOpJo8f5UnOCeA9UHBmKJGHhVTUpVEZ+n4xhm4LPo9LZRS1MU9Yi0vL1HF+7MilECwWvIYwo+WWwzWJPrkQ8V+v4mvnzKNXcMVaz18jnJYWOEkklv5deCGU07BbXrbMU8UcYWrhHA5LofZ1b2NOtE++N7266A/F7/PHHafv27eu6u7tf5E3NqT3oiKT486233vqxr3/964aqqrEVJR0L8LycntTKBVjqJ4NFCJ7OYEnXcCHGIy3wEidCm7yBKDndQb7ukHjsdYdpdnGGaKNZ9244kA/5t+f2URt7f5+9ZoHoSEygrk4KGFP/6le/Svfff/+f+ennU1slkjFj5nblkiVLfvqb3/ym/Nxzz01tnRJSHk4s6KSQt0l0uDNLLkvvm57Aa40Eu0WqQxTXHnKyJCcpp+qDQkgnAuRKduz9i1h9IbPkErESxnQHNT0//OEPR9jr+6nL5bqXN71bwmfApdjd1dXVeODAZBdIPRoVe1FYJ29euYNWL8inuaX2IauNjNf2T5R4WIwa4U2eUZ0jlkm6+ZLZtHxOzoQJH+j3hkQELAQ7VQhg+o8e7t69mxChx3/WpbZIJOMCice7du7cGevr60ttmTIUwkvEagn20sunvfABpcbEHm05WfJWkb38asqZ+wnKm/vJCRM+gJG3WMiVEtbYzCjziGjhPXv2qFn4DvPTdxPcwYD47dq3b1/N5s2b008lJxPUFoVXifnQw63Iv5zmbh+zadMmamxs3M1/okkk4wVRKhiiCrS2toqasZKTC1aUCHH/NuRppkgAxVKmNyiNV1dXh6FPVEqA8B2VNzMgftv5oLa9e7HUkeRks7WmizRaLRXkZIhya/2+6V9NZsuWLbR///6D/Ke8iSQTBRRvV0NDgwcRe5KTBwJtPO1vkRqrtVsKKBbsJl/3jvTe6QmKbmzfvj3BIA7huET2AfHDEEM7qqgj3w/urWTqQZTsW7vbqdMVpJJ8O82flUuxpJLe3NEq0jymK7jJ0r1z9NSPGlqQSMbJup07dzbJjvnJA9Gdnq4tIvEfNVGzSs/hjSHqb31TpFZMVzBc/sYbb/jYLqFa+XFj5wPiB+rZTax57bXXRISMZGoQ4+jxBPV5QrSztpde39YqPL7KYgeVFmSK4uDbDvaKQgDtvT4xF3hk2bWTDYajMOTJjygbNPbVQCWS48GNvn7Dhg3NUvymGLYxKO8Wj3jJ07mJvb51pKAoZeTOo4z8pWQwZ7H310E+FsVIoJM9w5A4PvVPNj1AxSmIH3fO3+Snx3l+R8bAKlj8HAqFYskVV1yh0mhk4vZkgohOFPVGlCuWUdqwt4Pe2N5G8ytyacmcQpFIr1Yqxar0JqOWNu1r5+N8qXJx3CCYahX+Vp7UGUGfz0f33XdffMuWLU95PJ7nedO7tfMkkgnAGYvFLi8vL1982WWXkbRLkwsKeiPvMRp2UTTYTb21j5OnYwPpDVbKq7yYNDqLOE5vyiGN1kKu1vUU7KshhUIt0j2S8aiIjk0VpT55lglOxcaNG+nvf/+7j//+Fm96t7LLAEdeHe6qm0tLS/++Z88eslhSH1Iy8cDLW7+rXawiAS8OuY0F2RlUXZZDWZkmkTc5AP6BIJS+YJi27muhQ03dqf3cwSovsNElK0pELuDJAr2r8847L1xXV/fFaDT6KG9C/TyJZCL5r6uvvvrLX/nKVwrHmossGRnO+qep+9C/SKU2soAkSKu3UWbBUsrImc97jxEztl1I2A942ykUYLEMeSkS6qMEC2DRsv8UeZQni0OHDkH4/L/4xS9eZLv0Cd503CozR3p+iK6yGgyGq1atWmUqLCyksZQUkpwY9IxQCi6VYK8VSewol9bl8pPZoCGLSc/ffdqj42Nd3gDtOdxBPX0+spm0QvQqCjNoXpmdCrPNosDAyQDRVDt27MBN5mUP8Fe8SaY5SCYDJd9rRSqVah68P8nkAduEyi1IpkdxgFgYtVC9pFRqU0XBBwRQoRIl4Dw9e7nt4+c6fk0u6czFZMycS4aMqkGS96eON998EyNSte3t7X9jz28Xbzqu6Maxqf8as9lcyjdZ+eLFi7U228nzKGYiGO0+pm80KPDcHDY9leZZRQUcJLHrNArqZ5HrcvpJx2KG6jG4EZ1uP+04wD2rUJCq2MNbOS9P1EGF8OH1gwnfSK9jKEb6egS5PPnkk7633377nXA4/E/edGqs8iuZbvS4XK5ynU534Q033EBa7ckzqqc6Gr2DjPZ5ogqO3lbOQpjB3l2Ywv5uSrAI6szZpNAYKOxto/6uPRQM9JPaUEimrKVkdCzi184nk2P+SRU+8MQTT9A///nPPSx8P+eng9qlY8UvGgwGQ11dXRdfcsklluLiiS2MGonGKRJDabAj42wmlvGeIxyJiyLd3kBkVE2lZG9OPboyQhBBDHlCCOHJFTrMdKi1j7r62AM06uH00d66TnK63HTx8hI6Z3Eh5dqNwjsc7lwQLtQiHf3niIr1FrUj/O527dpFd955Z09jY+Nv+CnCiWUylmQyQH5Wnslkunj+/Pl6FLrmDnpqzwSAyiUDi9eiWP5kgJqh4zkHUg2i6QTzWMQtcu6Gatgvjol62RZgySOUjBz5OcWCAWojC6Gdvbhq0lvKhPj1t79DpoxSthFqcnXuJI+zgTKLL6KsqhuFWKKEHMqeDUfqc/Tx5+B2xDUP1o7+HHxdKCE3gs9RU1ODQtZhtk/r+emDqa3HM1gH38Yex66777679MMf/jAZjcb05vGzr6FPlAVbvSCPNEfMa00kOAfm1FAxBgEhowWL2t757x2jGkr0BaP00cvm0EVnjK+zAI/L44vQXU/sovwcO1nNetq+v5k+deU89vIsR80Fnoidh3vo94/tGrJizmAgAOcTfK7zlhSmtwzPX//6V7r11lsR4bmcm1zdVzKZLMjNzf3yNddc8/Gf/vSnOrvdnt48XpIUdB1iA+shrTGftOai9PYJJJmkQP9BYcR1pgLSmkb2+zoSrObe1/g8X+sBUozAq0LkJYYqHbPeR5kll5KaPbrxgEV1uw/9k9TK1BqtsWiU1OZZlDP7g+kjRkZ/61pyNeFzHBr551DpyFF+TfpzHL86z7H85je/wZDn2h07dvyOnz6W2no8g6kDpPt/P/KRj3zotttuKzjrrLNSWyeAx96spbp2N91y1XxyWFOezUTzyBuHqanTS5+6ah7ZLaM/x67aHrr7mX304cuXiuFHrOs3FKjQjhvh4Zd20YXLCuiKM8vSe8bH2p1ttKO2V4hRRYGV3n9uhZgjHA1bD3TRfS8coJuvWEpq9hITYlmXwcHnwPf0EH+OK1YW08UrStJ7hmbnzp3EHST3XXfd9SQ/vZWbzI+RTCYIyLvG4XA8itSaioqK1NZxgqAOZ+2j7Nm0kSV3JVnz16T3TBww4L2HH6FIoEOUH7Pmjd6mYuWIoHOHWHDb7JjNW7irjN7yIGAFigh7ie7uGtJa55Ct6PxxF6HGZwi566hj1+9E7dCM0svIUXEDqbWjC4x0Nb9Kob7dpNPryWzH52C7NMznwPqL7p4DpLPN5c9xgRiWPRHve9/76Nlnn0WN4f/iNuRUzGCuBIzYv5544onerVu3prZMAFguyOOPiMAODLElh/rE4wDnwPujLBjONaZz8EvgYWEl+lyHiXLtlqGbI3UMFu/luyP9BuMHc3p6tZJ7VzFazH+PVvgGQNAMPkfeiD6HWZxnpN/Z+vXr6ZlnnjmkUqke5qdHlQ2SSCYB2KWaQCCw780334xPVL1PdPwigS6KeFsoHpmsKWs+h7+Twt5mioexnurowa8S6/ZpDXbSWuChcrPkDdo0vF9nyhXr+03UMC5WhtBZSkQwjIoFD5GcoxW+AcTn0ONz8PWe4HMgpUKtGdnnQB3PtWvXYlHtXn6KaZhh/0EHe0dExWzjm6yGe/eJjo6O1NZxgpXevYEwhdmgt3aP7QY4ETgH1ufDvF17z3FpHSODPSDoWDQWp2g0mXoctqXlYgLdWCz/pNeqxLxlvgMhx+kdoyX9OTAHevx1H9mwH4W0k/j4J8Tr9Yooz5aWlv3xeBwJpGO9QolkNHQaDIZ/PfDAA76JKneWSEQoEuxiz69drKE3GaBCChLBIz4+R2Rs5xC/S/59Yp1BVul04/7AEA35dskE1nWYuJ8mcvk0xmyxvBMiQccMf45kEp8D1zr850DaBLzzkXwM2K+///3v1Nvbi6WLTlioeig5xameP3jw4C5EzUwEB5tdLEwxUrIrW9PYJwRqojnA5/AGsbqxkvbzORD8MlOBF4ZhVw0/Tsbw8Hh45JFHUDD2EP+5idvMKO8uORXoZ4/vUfb8Wiei4guG8sK+FhF8IdbAC/aKYIyJRAwXehuF6MVjQYoGeib8HFNHktQ6u2gKlS69bfrQ1tZGL7zwQrCxsRHFNvaktg7NcL7k0xs2bHj7qaeeEkvBjxWoqD8UFQEYZpOBFlTmU22bm5q7vKJKyUSAcyDoZMehbrKaTTS/gs/R2j+h55hqENWJhXVHE7AyVTz00ENYtPY5/hNNIpkq8GOu1ev1G1kAXWyfUlvHCDy9/uZXSWtwkC13CSWiXupveT29d2LAmoCuxpdIb8whW95SPoeb+ltRanIGolCSzlpOelsVC+CJA0+mEoxQ3n///TGdTreFn6JnxK7j8AwnfvDP3+np6Tn4wAMPiPHUsYCFav/+3H6+a5U0pzxHtPJCBz382iGxYkEiMX63vMeFcyDRUsXvn01zZ+VQaaGdHnr1EO2td07IOaaasxbkiwCaiVwdfryEQiHk9RHfExgLx0327qrIEskUkeD78O5//vOf+1955ZX0ptGDobRAXw15Ot8he95CyqtA6S4tP99IIc/EDKkiQrK3/iny9ewge8FiPsdFYrUWT/sGPkdj+qiZA+b9LDkrROAJUhumE83NzfT73/8+0N3d/Ud+OqIvdzjxA2tra2sf/+Mf/0guF9aVGxnwtvp9YRFxiOjLaFJBi2YXUHFuBtnMelpcXUA5DquIanx5cxO19/opHI2LMduRgnO4vGFR8BnnwOoHOEfRwDlmF4pzYEWEl7c0UYczdQ4+Sfodpjfw+JDPN50IBoMijLilpeXf/BTiJ5FMNfgBb45EIht37tzpxtzzSEnVrQyQv3cXddX8g728VykzdwEZLAWkNmSSLWsuWTJLqK/hWXLWP0khdwMlYuFR2QycA0Oo7va3qOfwIxQNtFJ2ySo+Rz6p9WybsnGOYj7HM9Rb9wQF++v4+IAYHp0JII9PpTGxEzh9bBO8vtdeey3MwreTO0bI7RtRUMmJwgg9fJMl+E0vXLBggXHWrFmqoaorIKm6ocND2w92i/m9OgxtdrPgxBS0oDKPygrsYg4LfozZqKNMi4G8wRi1O33U0uWhNhbA+na3KPSM44yDDPeJc7TzOQ6lz8HHt+AccQUt5HOUHnkOk44yxDmiIvilpdubPoeHzxEWeXyDDSkiaGbH4V5aPq+I1CrVsIIMpwxVWHYcaKOSXDNVFWWk95x80KHYU+cUn0OlUg77+8VnwGfZXtNGs/ItNKvw+M+B1RvWrl0bv/POO1s9Hs9PeNP0XsxLcqoT4c5Yuc/nq7z88ssJBd6HAiH6rpbX2NPbTwHnXvbEtrH72ElGcxZlFiwjtdYkjlPrLKRlgYqH+yjsb6VIoFt4aIG+fRRmbxCBHsg5G4xg/2ExZIpz+Pv2kK97KymSIRa7arKxwCLnDqO2ap2VtIbUOdASMT8LZBe/vpavs560xtxBz4HriId62HPUk86Uk946BAoli3yQgt5OUmozhJcGwZoO4DPGw71HfI7hDJNSdAyCvi5SaTNJh8+hPj7vHFNzf/rTnzr5XvhtNBp9izeNqLdyIs8P7GPB+zPjOXDgQHrT8SDNAIL0xvZW4W1tYxEMhBJClPKzrKICCuYOUcg5mUiSlYVpYVUeoUr79kM9tI5f8zq/Fp4chkoHA+vdIahl4BwQ2kAkdY68Y86BoU6sjLCwMj91Dj42dY4W2nKgm5zu6b9A7HRi9+7dxPdAwGAwIK9vf2qrRHLSWNvU1PTi008/jQVLk6gzOxRBdy056x6nvqYXqK/5RZEorjdlk6PoTBajdAlHEVGYJA2LU0buQrYZBj5uP4vmy+RkL83J3mAsPHTkPMSvN30OzPHFWKhMtiKyZs3mjiU62WyP0QM94hw6Y6bwDCGUnva1fK5XKBadrHSLUxMEubz00ku0d+/ePYFAACUWR+xCjySBzM/e30E+yUcrKioyq6qqyGQ6vhcBTwoFlxfOclB1SaZIYu/t99PW/W3Cq8gwG/iYlKscY4FqaOujN7fWUiQcoTOqc+ncJYV0/tIiWrOogPIdg/dS4KnNKrTRApyjOJPsVh2fI0Db2GOBtwdPb+Ac8XiC6vkca3GOSISWz8mlc9LnOHthgQgoGQzp+R3v+WHZokcffZT+8Ic/dHJv+/O8qT21RyI5qQRVKpWmo6Oj+sILL9QOZpeA3lJCGUXnkylrERlsVaJ0VtDdRJGQW4igUsU2A3lkyTh7GR3U1bie/K4GMtgXiKoijrIryVFxLXts2akf/SDoraXvnSOjkqIhJ78H255QPxnYwznqHJ42Psda8nTvJ42phMy5K8hWcDbZS69gz3Pwc0jPb3DP784770w+99xz61wu11/4KQpYj5iRZk/HWATCDQ0NFbNmzcpasGBBevPRwPMyGTSisgoKNlcVZ1BeppF2HOpiLzBGVpNOhO5DlDbtbqRlVVl06cpSWlKVTXksRhn8OpEwPgzvnoPFtSTXSrP5HLl8ju0Hu4RnaME51Cqqa3PS5j1NdAaf4zI+x+IjzjGQNI5k+0Mt/ZSdYRACALqcAbGo7FmLy0ivU4rhFCS9D9U0agULfDuVZBv5805MBBQ86Hg8Oa45PyF+9U5as6SMdNoTfA7+DCgFh45KGYsf6oweyWOPPUZ/+ctfDrKRuZufvsxtZobQSk41ukKhkNPtdn9kzpw5utLS0kGLXiNQA8Yf1UF05iJRyUVrymcRaiF3xzYyOypIqc8gb88+6mnexEZ2FmVXf4Ss+WeJxG68ThjdIYQPHH2OYj7Hcj5HAZ+jldydW8hsr+Rz2MjTuYt6WjbyOarS51gtxFmcQ5M6RzyKHGXU5HxvWiYI8Qs7Sac3k9ZaiMk3bmzHxOMxDWXD4mEKQfw0Nj5X6bjFT8xlYnWHE9TuPBFC/CJ96c9RkL7moT6HTuRIBn0QcXyO98QPI3yY7/3rX/+q2LZt2z940x/EjlEwUvETIcZ9fX1L7XZ7VXV1tdrhGLzMDEQEAgWjatJDpAz8qGYvpIc/o5L3K2kLi9KiCjutnJtHRdlmkcwN7+TYyEasY3eouT+d8/bepR57DniZeNxT183voxZ9ia17m2lxpYNWzssVy/4cew4EzOxv6KMNezroDPYKB7Z3sueH4Vd4rfv4mvfWdvHjEK2+i/d3U22Lk+aXO4TYjwd4Z25fmF54p1F4ubjusQLxe3Okn4PbXm61rX3875J11PqAjY2NqJOXfO21116Jx+N38KYxVg+QSCYFXyQSMTc1NS1YsWKFrqCADeqgYHRDxYKiYbvKHWAWP4VSy95Zjcg9Tkb95He3sFFVUVbVDewtlbO90gkBOra6SDwWoFiwhx99/F7GI/YfeQ5D+hxq8vfVCLsUD7vJ399CSYWesipvYC901qDn8HZuFEOzKrVJVFQBmHP09ewkb+9u8jsPk6drF7fdgzYv73OzyAY8zaJWKTzR8YofvGUM6cK4qvmaxhrwgvnX1OfYy5/jEF/vcJ9jJ7l5f4A7KVruUIjPkRY/DHP/13/9F73zzjvP+P3++3gTagyPipGKH8BEXNzr9c6ORqOF55xzDv+DnvjlEJ2iHDM1dLjFPJvby+54KETXn1NBOeyxDQe8xaffqqdMFrdULdDBe17w9CCide391OcNUT+3cDhE1/E5sjMGPweCazbu7aRevia81sYeI+p0xlmBMCdp0CrIoOGGx6Ea9nPD0kIQDXiQ4wGCvG5nG9Ww4MO7LcxOl04bA+g4QEzfvc5jr/3IduTnqMwWq0wApLf86le/ohdffHFXV1fX33jTCasmSCRTTJQNYWNra+vyoqKi3Llz56qHGv48EogUqpUAPwsKhkEV7CVZ89aQyTH4yNYASGHwdW8XAgjP8EgP7UggaBp9Fv8OY+Tr3UMBVx17MHayFV5ARsfc9FFHgwR4d9vrfE07+HUJsTwQEBVRMLmjYLFUWbiZh2zETXh8llJ+/UIWjgIW2RMXkR4KrHoR6NtL7tZXKOxrY9GueG+udLQkMCXHn0M50s+RkfocWQuEJ43PgeC7l19+Oca2qa2npwdLFqHK1KjDZQdXk+H51pw5c77/y1/+UnfFFVcMKUjHgsT2F9mjQcrBBcuK6MIzik+Yw9bW46M7/rGFrjuvgtYsLBg0AvRIDrfyOTY1iiWBLlhWTBfyeQa7PpTyem5DA+2ud1FFsZ0iLMZXrC4Tw6LjAWIzwq9jUBCR+rfnaigv20Ya7giW5hrF9zRa4PmO4zIE6Flt3Lgx+ZGPfCTW3Nz8Xd50Jze5ZJFkWqJWqz9XXV19++c///mFX/ziF9NbT0wiHqKmd75HYW8LOWZdQ9mzP5zeMzQQPmfD08Kbyl/4BX4cfoQGqzk0bfyuqCYDj2+oc+BaemufoHioXeQaKtQZVLT0P0WKxPh/0WMHnpqnfR1/EDf52OvMnfdpshWcw5d0tEc8VWzevBleX9+ePXvu7evrwyLaY6rBOZarf+LgwYN/+O53vxtCIMRImZVvpQyLTqxDh4VYT/RPCYFysQeH4sy+QFTM552IWQVWsdK5DucoHXrJkzd3tFGnK0wLqvKosiSbdtc5qanTM+5qMOMRPgj9a1vbKD/HRsvmFlEwmhRVcZD6ATEbDRPxM3E6ncnvfOc7vt7eXkwkP8tNCp9k2hKLxf68b9++t55//vnEG2+MvIIKhu8MtnLSmfNFweaRAJFC5ZY4aoEiSvQEKFUGfv9CMcwpgmYGAd5VqL+W+lteI6PJTjml55FWb6G+pucpETt5kelYP9DTsZHC7kOUXbyGMvKWiDxJH7eTQW1tLT3++ONJFsB2Fj5Mw4y5+PRYxO9AMpl8tL29ffsPfvCDQGdnp9h4ogR1DCling6WOeXBDW+iURLtcGs/RaPI7cOQ6YlLSOL9sRgr3tqgP/4cSIHAcOfe+l6yWYy0qCqfzAadyEPc1+ASOYQnA8zzoRJNG3vFZ7DwOWxGKivI5M+gp/W72idEzEYD/9sibybON1pTJBL5O2/al9ojkUxr/vzyyy8/8pOf/ATFjdObToRCzNthbk2pGlkwRyTYTUFvI4V8rRQbyUoQ3CseWA1hqDXsUGqtt+5RysiZSwZrMZkyZ5HZViDWv4v4EVw92i7wxNDX/DIlQh1kL1hBGr2NH5dRxNtA3q5tLNiR9FFTA0aj/v3vf6PQRn0wGPxv3jQugz22CSWiboVC0drU1HRZXl6eBWtr6dlQnwiss4cqK2fOzxPBKsPR3OWllzc3U0VxNnWyKFiNGqocQSpBI3twWMVg1bzjz4H6n4+9USvWxILHZ2eRgWYjKKemoYeFk6hklIvGTgQb93bQrro+mlWcJYoBYDgYhQDCyJ1s7BHpHZgDHOkQ83jw+/2ihNkf/vCHPpfL9S2+ydby5plRfkJyutPFnfCI0+ks5fu44KKLLlIiyhkd86F+O1jpPOzv4P0qka6AeaXhQBK7r5sNf8xHGq2N30AjAluGj4JMUjSAc6jF/BWOPxIU1vZ0vM2iUk+OopWkMzrYMutIwV5lONBN8WiQX1NEIhp0ChEeXtdmMhgzKTNvEQu3mpQag5iXjIY96c9z4rU/J4r77ruP/va3v9W3trbez08R4XnC+p3DMRbxw10UZ4+gtr+/P59vtPl2u10/f/78Expn7HfYDFSSwz2gYY7FkkebajqpyxWic5dViOHPfl9QeHZIa4AXORR436wMAxXnmvlC3zsOw6a7antpT72LFrLHV5RrY08Qx5NIj+hy+tgDC5FWrRTr300VEOstNT0UT6po5YJiFl4sPJskI3uuCFrp7EWHISYiP8e6rt9owCoef/nLX/p37dr1UDgc/jVvmtrunUQyPjr4vvVzx3xJZWWluby8XIUiF0PCv//3luopGHb+LspC5Kx/hhLh3lSSuimH3N07+bW5IoViKGCHMLyqMeaIdfCOPAeCWjydG1hQN5Etew6ZM8qIlRTjoCw2GlF9xt21g1+bN+w5JhosWNtT+whpdXqyZc0hNQQ5HayCJP1IoEfkEZqyF7E9HntK1kjZuXNn8le/+pV7w4YND/FTTMWM1LUfkvFYUyjL1paWloVer7e6tLRUgTyboYDTjohNGPHBhA8VWTDP1+4M0NodbVTX7hW1OmcVZbE4aUUJtMZ2t5jTQ/4b0hbETXXEW+EcWTY+R9bRwgdQbu0Nft+q0hwqL3KQQacR5wQQGwx/tvV4qd8TpEUVjkGvcaLB50UQUCSuFEOvOZlmcS0ADxjCRSTrzoNdYj4z0zK+HJsTsW3bNvrJT36SWLdu3TP89HvcRl7QVSKZHmBuupl/v9k1NTXlZWVllqqqqmF+zApS6zNFWbFBhY9FKJmMUoyNfV/LyxRw7iKTtYAcpWtEKTRv9x5hd5TslcH7G0hZOMp+8N9qLN46yDkQRYk5NUUySDll5/MWvA7ziOytsvhpdTby9h5kWxUXKymodeNLpxoJsYibr+kt/qx7yJG/hAwZbNex7p4gSSqDneKhfpGsr1DphSgfmw4ykbCnR9/61reCW7dufYU9+nt40wmXKxoJ43UlMBF3qK6uzs49rfkXXnghWSyDe3VD3X1Ycw/1N5EGgYjQx9fVkT+coOXzi2lOea5QNFSHycowihXa1+9qFcKQ8v5SQoGgGCGE4tnxNLFwbjvQQ75ggs5aguT1lFd1JFYWFiy22+f2i/dBlZnJFMBILE6b93fS4RYPlRVmUXVZthDDAfAZdRo1GfQaaunupxjvs5l1k1bsGoXLP/e5zyVff/11rMz+W25ynk8yUwmx9/eG2+0+lzvmpQ6HQz1r1qz0rpGRiIdFUnc00k/+vn3UfeBB9vzaKatwOWVgCJC9M+QHmu0VFHQ3sFi8I1Ig1FqbCF4R4oWcv2FEAcWsuw8+yMbASVnFa/i1EMYj7BL+ZEOg1hhEqgSGWI2Zc1L7JpGg6yD1HHqQsopWkdFWLD7n0dfFAsjCnIgHycOeL4oBjCeVYjggfHfeeWfi5Zdfbuzp6fmPRCKBNUQnhIkYR0PES39vb2/Gvn37qq+88koyGEaW77a7tpeeXF9Pz7zdQLvretnrC7Lg5dGSOYWU67CQ8ogbB54aaoRmsXe0YXcLbanppLd2d4i6oB5/VCRmDzYcCkHByhEHWz10zrJZYohzMCmGdGpZbLAaBRLCV87LE97lZABha+320T9fOUTVs/KpqiSLBfz4Umq4SggwinVvq+mgDJNGrPE3UQzMhQQCAfrsZz8bWb9+/SuhUAhLgmCeTyKZySSi0eimtra2eT6fr6qkpIQKCwvTu4YHFVaa3/mBqNXpbl1LQfbOtAYr5c+6UIiB4ggxgNFHDU+9OYeSLAYB537ydm0mZ/1TIgne6JgnbMtgOOueZA+qkywsoBDRowRmAP59ohA2yq7FIgFSsfenMQxeYGQiCLgOkKf1ddLpTZSZt4RUKPp9XEQrix97uvhcfncz2109XxPKxE2sAKJu5/3330/33HNPD3dkPs0dGgjf+ELyj2AixA+0RiIRV0dHR1FfX1/+smXL1Gbz0GPnA8DwwmvD/BY8Gnhj3f1+8Wg16clk0IqhSQSgYN6rtctNNfXdIvkaOXlIykYQTFWRjRzW90qUHQmSxhs7/ZRlt1JhrlVUisHcGc4LcUVwiSLtRepZYCGWHb3edyvHTEbwS5crQK9ta+Vr0FJxfiZZzXqRAqLRKMVQJybpUzmQCvFoMmpZLD38vSQo06ojKz8fLwPC19XVRT//+c+Djz/++B6n04mEUcSJywAXyamAiw1mB3sMed3d3ZVz586l7OzBUw2OJGUNEkJkBpK5MQeGn6RGnyEMP44QsA0JulvI3bOXgp52UuuzhBCgpJgxc66Y4zsWkTTu3JsWGTOZMopTXp+anQYIK3uMeF/RcDUINOFtQW8zhX0slrkrUm80wWBO09O+niLeOrI4Kll0M8VwLn/g1LWISPr0NaU9X8wD9ndsEdVXNIas1BtNAPxvRn//+98R4ILAyh9yR+Zp3jyh8QcTIX64V2AsW1gAvfv3759lsfBXV1mpxhDocCCCEdVfyvJZmLLNQmz8wTD1uPwiMtNi1ImC2RgiPNzSS7XNPaRTJ2nFnFxaVp0jqqrMKbWLSjHHCh9uTT+/B7xLLKRrNWmp1+WjTqePevr81OcOktcfpkAoShEWVsy1DQwzgj11XcLLwlDjRNPR66e6dg9ft4nPH6Eup1dcl7M/IKrT+IIRCoVjFEOlev5cRr1WfA8QQI8vJD7zeMH3xQYBEVThP/zhD/u5Z3VXPB5/indhzuToL1Mimbk0+P1+b0tLSyUiQBGZfiIBhGdnyKgSTW+rIJ25gDeqKBzoZRHsE0N+IgAkGSdP9z7y9NXxb5VY8CrJnLOCjPa5ZM5eJnL7joPtTCzUyx7WQYryo4q9JZRLQw3QiLedInyOWMgtvM9kPCTOIUalWIgRFRrkY/SWUjH/J9R4AgkLcW1hcQ7zx1VTyNvBja/L182f20XxsJcSsaAQbwV/DhXKxOmt5O7eJTxSEfU6yHJMowVTMBA+9vraDxw4gDm+33Gb8DzjifL8ALLQ97EB1W3atCnfZDI54AEOtf7fADDCKOGF8mIFWSaaX2YXkZmoMwnxKsi2UmN7Hx1s7KYMo4o+cF4VzeFjUNga9S9F7uAgwGNEpRcU0zbquNcUCpPLE6D2bjd19rrJ1e9jIQmSJxAmnxDBCAXCUaGaCu7hbNnXRtkZeiGs8MqGA4vqevwRcb3DNXyuli4WOr4ueJZqVZLPHRTih+vq6YO48TXxNggzOgK4phA3CGBdm4s7Bj7h8ULMxwNWZf/9738fvuuuu2rY4/sXd1xQGFZ6fJJTkTq+31u2bdt2tl6vzyguLh6RB4hhPNSxhIiZc5axXdBQf+dWERCCoc5Y2EcdtS+zw5ZPjlnXUUbRBezp5aTy+dgzGgwkyGMucaD0GTrd4YCLRa2DfK5GigT7KRLyUDTspmjEw8f6RaqDgrvwCHqJ8WshSBDY4YQG84moLBMLuUQuYjziE+c9tiVwDO8PexrZ8+vi69KInMRYJEghfy/5XU0iqjMS8opVMJDikHovP+syHLEkizd31vmaFCqDKNI9HiB8Dz/8MP3617/2HTp06C7e9AtuAbFzgpmUHr5SqbzN4XB86qabblr8m9/8RjOSGqBHgmFPBIMg+OW6CxbSG1vqaFa+ia5cXUYZE+CJIYG+zxNiIQlSL3uAPf38d3+QutnzCkfiZDZqxVqAKDF2/tICWjhreHf+Vw9tp5qmPuGdjQTkIWbb9PT9W84UtU9BNJ4Qye5YyxD1RlPXw39zQ4I/5v0wPGrUaSgnQ0c3XVg1pPCPhK9+9avhJ598sq6rq+vuYDCI0mUSyakMQqXXcPv7bbfdVnT77bfTvHnzxI7RgLX9Qn17SKNNxQ6ghnBW5Y3CSxwfSRaTsFhAN8IiFA2w4Pg7+O9OIUox9gRRTk3JohqL+qlw8VdZAOcMKbJYUslZ9wT1t60VFWJGEo2JIB9z1iJylF9D5tzlqY0sokjAj/i7WJj5Wvx8XYHUdcEThSDrDFks4J1kLTiXsqs+xF5pqhj3aOnr6xNJ7N/5zndQYerrvAkFNsad0jAUkzW8hbHDmwoLC28/77zzVt15553KkfS0jgTr6r2yrYU9JT97hgpRD3Rp1ejeYzggsChn9l7jHgw/IgkfJcU8vih1u/zCw8SyScPl/v3vfZvIZrPSWYtKxdzkcCCoBl7szpoWuuPza46aU+RO4HHXhEdcFyJi4V1CtFHwG9eE5PfRFr72er0Qvsibb76JJYp+EQgE/sWbx5UsKpHMEBCJd57FYrnjmmuuWfqVr3yFli9PG/kRAm+qr+FZbk+L9IW8+Z9jEZo3pAiNFnhsWD4IQ4tHPoqSauyhxYK9Qhwx/JhZetmQuX+Yo0TQjSLaR6bMUjF/lxR5eoODoV53116KJdXs5Z5JlryV6T0pUteRvpZ3ry3C34c/LY4dQgy17CXbSy9Pv2rksC0SSey/+93vQu3t7V/jTY9xS5UPmyQmctjzSBCR08iGtrelpcXe0NBQVl5ersjPP7qywXAgMEWtVNL6na20uDKLW/YJC1uPBgSSQHgwpAmPDe+NOUgMv0LwMi06seAtVjjA9uFEZv2uNsrLstGS6hzS63RirnKoZrdpyO2NUH2bky46o+Qo7w1D+HgObxDnw7AuhkfhiWI+FNeEPMZcu0nkO2L/cAn/x7Jnzx664447Ik8//fTmzs7OX4fDYUwin7hunERyaoCeKUr2tXV3d2d1dXVVYGm2srIysXO4SjADYKgRAhRw1ZBGZ6fMsqvTATATAzw0kUah0oq8QXh7GEbFHB8CaUQwjaVYBONoDVgkd/CRsEQsIGqFqrmzbbHPIo05j9TifayDNpU+gz9Xn3AK1IZcPsfRovruUk18PiwrhHxFpHUgyAVrEUL0tKY8vqZsfr/RrWt66NAhuvfee+mhhx5qqq+vR71OrMjeLXZOIpMlfriDMEFZGwqF3Lt37870eDylGRkZKoQbq9UnFjGIgIpvxDd2tNLKubligdXxDPONBggKxBeig3Yi7wr1Ny1mI5XkZ4q8Rcw3DtVwcyOatLm9jy5afrT4nQiIopHF0MLXhMeRCl80GqW3336b/vjHPwbuueeetT6f76+JROLfvAsVc6fmS5VIpgfomB/0+/1d3DF3uFyuUrPZrESRjpHYJYBiz1F/mxAiRF4OVa9zooHtEOLDwpNKLRh6CgjiF+g/RMpklHTs9anUfCx7axjGHLRRkoLeNorH4qQx5Q/pUQ4GRFGlNrAI2kctfLt27UJEJ0oq7q6pqfkzb0Kq1ZQUWZ4s8RsA3+oBbu179+4t5ZutiL0/IYDDlhxKE40l6a097cLzQ1ToiXplJwt4flaLkcoLM8VQ5XDA20QptaYxiN9Y4B85rV+/nv73f/839MQTT2DdKySwP8Ft+AuVSE5tEASzvbGxseLAgQMWtksG9gCVIxFAiB+GHuGRYb28qRK/0QDxC0L82NnVm7JS3inmVYaChRXRnSgerTGOTvzGAtLVamtrkz/60Y/cTz/99J6mpqZf8ua7sUscMAVMtvgN0MBtM99oGTt27FgM4Vu6dCmdKBAGwxANnR5aWJEl8vimK9NV/ILBID344IP0jW98A0v+Y27vR9zeFjslEklvNBp91O12l7zyyit5/GhetmyZ8kRFOhLxCNumGKn1DrHi+0TN900k01n8wuEwvfDCC4nPfvazrj179mxiO/Ul/nd4Lb17ypgq8QNOblv4gzez4i/Zvn27dt68eSqMuQ+FWqWg2cWZlJNhnLIhz7EwHcWvvr6evv/978cefvhhL/eqvss3NcKGD6X2SiSSNIlIJLLR6/X2sCEu2rx5cyHmAFERZiggJDpzsWgqLIM0DUekpqv4NTQ00P/93/9hJMrV0tLyJ7/f/xMWPowOTjlTKX7Awzfa4d7e3sOtra2Gffv2lSQSCQ1utMGWRMIw53C5fNOF6SR+Ho9HrMzw29/+1r927dr13NH4Ed/QT/KuttQREonkGDD33YBcQLZLam7z8DuaPXv2EHZJlQpIwXDnNJ2KmY7i98wzz9Ddd99Nzz777M62trY7k8kkRqPqU3unnqkWPxDkD70vEAj0HTp0KMlfQg4rv9VoNFJe3vGlgGYC00X89u7dS4899hiWJGp59dVXn3a73ffxZszvTUqSqERyCgEBPBCLxRoOHz6c6OzsNPp8PhvbJVVGRsaIYhSmE9NF/Ni5EaNQLHio2tL2wgsvvN7d3f0n3oWliXrEQSeJkyF+A9Rx28rip9i6dWs+32zKwsJCg8lkEovNTtfglsE4meKHm4t/pFRTU5O88847fXfddVdXQ0MDFnr8Fbct4iCJRDJSsGz6cz09PTruQFrZcGdkZWXpuAkvcKbYpekgfiiYv2PHDqQxRL797W8fbmxsfC69AvtGbic9t/hkih/wcntTpVK9xl5gwX333VcWDod15eXlNNxc4HTjZIpfbW0tlvVPfvnLX+47cODAG+xFf4EbhhPcqSMkEslo4U7lO/ywtampSb9u3bp5dXV1kerqag3bJda/6S+AJ1v8UK0F5RN/8pOfRF966aXt7FF/m79TLEI7bdYIPdniJ4hEIk5um9lo72pvby98/fXXc7jHpUJifGbm6PJGTgZYY9CeYaHqsgxK8u0GgRuq6bVE3X1Bqm/tHZf4YZ2rX/7ylwkWPqQybOnq6vphKBT6M3+Htbx7eAWWSCQjoS+ZTL7F3sqrLS0t1kceeWQh2yeaCZ1ziF+IxU+tTJLBmk9KrE7BAidWiR+sqbQU8XZy5z1GGkPecUnuI4XtOP31r39FFSli0dvW29v7Y/YA/4d3IdgOQ8vThunWhUENsSXczq6oqLhixYoV561cuZIuv/xywnIk05Uf/W0TufwxKsvPEBUShgNi193nJ38gSP93+zmkTdf2HCmHDx+mF198USStb9u2bR13El7gHtVbvGs3tylJDpVITkPO4HYee3/XLFy4cMWyZcuMl156KZ1xBjZPP1DerOfwIxTq201qrVEkoSeH6RNj5YiQr4M0piLKKLmCrPmr03tGBjrjr7zyCq1duzZZW1t7kO3TM7wZ6QsY4pyWdmlaeH5HgHHgFm67XS5X7969e338RQbYhc5xu91q5P1hncATrRQx1fhDMe5hkehlaVXDNxUfYzOqqbrUTvPLHCOq0oJ8vYMHDxJ7xPToo4+G/v3vf29588033+Dv5QH+Th7kQzB/OuFLfkgkknfp4LbZ6XR27d+/380dz0Q4HM5ku6TFUCGWb5tedomlLhERVaWSCh03/QmbSmcnQ2Y1GbmNtFILSpO98847qNASe+CBBw6xt/cie8mP8C4krO/hNm2XSJv+g9dE13O7xeFwzLnkkkusN954Yw56WxgORXDMaFeMmCngB4UJY/6x0e7duyF6Pc8991yQBW8v776XGwq/SiSSqUfN7XydTncLC+Cia6+9tujmm2+2rF69WonOOdpMiw4dKQiwQ9Uo2CYI3+OPPx685557unw+32G2xY/HYjEIH3K6JRPAgECfwT2rP2ZlZfUuWLCg/0c/+lEMqRKnKuzpJf/nf/4nunTp0n4W+n7+MSE8GKXW8X3MhE6LRHKqAxFcYrfbf2kwGOqKi4uT3/jGNyKbNm1KBoPI6Dr1qK+vT/7+97+PstAn2Cb1sT1+jEXvCv4eUkvezyBmkhFFVyqDW55arT67srLyJn5cXVRUpGOPkC6++GJatGiROHCmsm/fPjG0iTm9tra2MP+ANjU1NT3Cvcs3eDdyYhApJZcfkkimDxBAGP4CbktZAN9nNBqvLSkp0axZs4auuuqqUS+bNN1obm6ml19+GQEsidraWqXb7d7odDqf8ng863l3E7c+bjNudZiZ6kFgYb/qdJuzbNmypeXl5Wtyc3P1VVVVtHDhQrFQ5WiWUDoZdHZ20oEDB8SwJgJZ2tvbIy0tLRu2bt26nTtZNXwIIqRQ+mfSl/eQSCTjxsINNgkr285dvHjxSrZLZzocDht31omf04IFCwgryU9n+vv7kTcscvQQa8Ad8SSL3Q62S2/7fD5Mu8AuHeSGedAZy6kwfJbLbRU3rNLMHa6SPHbJS+bOnVsya9YsNUKSc3JyCIvpYp7Qah3bKsPjBYvIYon+7u5u6u3tFa2+vj7O4teyYcMGdvCacCO1ckPh6c3ckGwrkUhmJnZuCJnEVMVctkHWs88+u2LOnDklLIha7qgLm4QGG4UqMicDzN/BLvX09IgG+wRPj21T58aNGw/t378fo03w7rZxQ+TmYW6nBKfa3JGZ21Ju56nV6nNjsdgsvrkSLIao1p4xe/ZsLTeV3W4XVWSwfAkmptEQOHNkGw0ITsFEMJbpwN94RL4LHsPhsOhJoWTSoUOHwtu2betnsQvwTRbn87fwMWv5LdZx28FNpipIJKcmK5VK5QVsJ9BJr+ROuHLVqlXG5cuXZ3BH3VhRUSGWeoPtgT1C5CjsE9qATeLXj6rCDGwS7NFAi0aj7zbsQzAd5vBgl9jLc7HY+Vn4sKRQL5/vHX4NlkBD8+P9TjVONfEDA58JCXTIG1zMN9Byk8m0nG+o5ey2lxkMhmRRUVG0qqpKwU3P3qIKQ6TwEFHGCL0wm80mBHI4IGwogAtxgyeHXhOW4+cbCGPjQb6pEi0tLTruXSn5Zm/gm257IBDYysKIsmMIA0YVFiyuCWRiukRy6gK7hIbfOzrp87ktyczMXM1Cs4xtSRkLkpFtUQB2qbKyUs8eovpIu4SRK9ilEy25BHEbsEsQONilrq4u2KVkXV1d8ODBgzEWPUMoFEro9fpOPj9SyzZyRxzeHewSRqFgP2GTTlm7dCqK37FAwXC3QAjxiGScfBa2YovFUsw3UjELUzkLYwH3rLKSyaSNb0IdPxLakb0uMNCbwuPAfu6NRXi/m7f1srC1u93uhmAw2OL1elv4psaQQSc3BKqgwPRAk3l5EsnpC+zQkXYJLZO9vlLYJbPZXIIGO8W2JZttTQY3/ZF2R80tGk+yPUom9DqVEnYJo00g7SXGYZf4eCcLYjt3wpvYJjXzYwt3wmGXEEvg44bKK/DuYJemVRWWyeR0EL+hQIQWGiYBMeCOyWrciFjDBJGliOJCQ88HkTMruGE/hgHQM8J3h5XqcbdFuOGmwc2DeqUYJ8cjPLt+bhKJRDISYIeOtE14HLBLEEzYJMzL4DF0+ZqcG4rzLUvufrTux/x8wCYNNNgldLIH7BJsEaZWYJdgo+Rok+SEIIz5W9x+zW16h5BKJJLThobXPviDQy/dhMhLySgZXWHJ0xf0uNCrwvc1nWoYSSSS05hgOKGKD0QNSEaFFL/RczoPFUskkmlGMpGUNmkMSPEbHfImk0gkklMAKX4jB5PDUvwkEonkFECK38iRkVESiURyiiDFb2QMCB88P+n9SSQSyQxHit/IkcOeEolEcoogxW/kSPGTSCSSUwQpfhKJRCI57ZDiJ5FIJJLTDil+IwNDnnLYUyKRSE4RpPiNnAHxkwIokUgkMxwpfqNDCp9EIpGcAkjxGxkDw54SiUQiOQWQ4jdy5JyfRCKRnCJI8RsdUvwkEonkFECKn0QikUhOO6T4jZyBOT/p/UkkEskMR4rfyBgIeJHCJ5FIJKcAUvxGhxQ/iUQiOQWQ4jdypOcnkUgkpwhS/EbGwLCnRCKRSE4BpPiNDnh+0vuTSCSSGY4Uv5EjPT+JRCI5RZDiN3Lg8cnvSyKRTBuSpOBOuSKRfioZBdKYjw41NznsKZFIpgfJJIQvnnoiGQ1S/EYGbq4wN3xfUvwkEsm0IAnSf0tGhxS/kYH7CwKo4ibFTyKRTAsUpIzzf+Jbt35Wk94kGSFS/EbGwNCCFD+JRDJtUKgozgYpnhPpw5SMZBRI8RsZA56fnPOTSCTTh2QykeQWqvNJz2+USPEbGXLYUyKRTDtY+hIKJcUj2WY1wj7TmyUjQIrfyMCwZ4yb9PwkEsm0QaFSxVn04omwWiMzkUeHFL+RgdsKAijFTyKRTB+S7PklKaFTxtQ/+MH3pW0aBVL8RgbED56fHPaUSCTTBjZGmI6JJ2IqzQ9SmyQjRIrfyJDRnhKJZNoRF0nuinjcoFE/Mn+/tE2jQIrfyIDnJ6M9JRLJtAKeHxunhJri6hvT2yQjQ4rfyBgQP+n5SSSSaUMySQkFe3/heFSmOowSKX4jQ0Z7SiSSaYdCqYwnFez2KZLqN7O7pW0aBVL8RoaM9pRIJNMOJLgrWPxUGpX6/PQ2yciQ4jcyREQVNznsKZFIpg1swOMY+ozGFRp683x00CUjRIrf4EDgzNyy048QvUj6cYACbku4mbhJQZRIJJPO3n/faN732vtLDz3/ESueJ9jrY/GLK2NJ9a6z6gx1r9xo2/3Uh3K3/vtGm3iBZEik+A2Ogdtt3N7g9ktuc7gFuUH88J2dxe1ubq9y+yA3eaNJJJJJpfnhGwxKC72Pwuq3o8noD2pe+GCZKplIKhXJUFKhVKsikbNDEcW/Ver4DoOJfpx+mWQIpMcyOIicOpvbPdwc3LZzg/it5tbIDfvLuTm5ncOtiZtEIpFMKjUvfvAs1rvHk8lknBQKJyW4Q65MKhSk6GAP0MZ/LGSrvllFiZ9WX/Hoc+mXSQZBen6DE+W2mdtWbnpumEu+iJuWG4Y653Nzc3uEWzM3iUQimXSiYUUdC9zfuWVYTdqFSiXNSyaoMJlMnKNWKc5QKBTaRILeiXoVr6RfIhkCKX5D4+f2OLe94llK+I78vmq4/Y2b9J4lEsmUsHB7dY8yrrgvSVTv80fY8UsmlAoyKJVKjQhJjyf3KJLJLQtuegQxCpJhkOI3PE9weyv1pwBeIIBneJAbhFFGWEkkkilB8cMfJmYHEoeUlHwzkUz2atRKpUKp0CRR5iWRjCqU9JhGGduQPlwyDFL8hifMbR23LeLZeyDQ5enUnxKJRDKF3PhIQplQ3cVSeECjei8AnfUvEEsmNsy+8onW9CbJMEjxOzGvc3sq9ee7vMPtxdSfEolEMnUoFJSsvvphTLu8HQjHelVKNuNJ8ikViX9q1VSbOkpyIqT4nRgXNwx91olnqbm+bak/JRKJ5OSgVqkeVxBtMBlQeIoiioTywepLFTIAb4RI8RsZO7j9lhtSGpDft5GbRCKRnDSqL//X5qQi+Vq/N+RLUnJ39ZVzNyoUj6ASlWQEvBup+P3vJ5UdBc/oNU6DIa5JHFnJ5LTHaHUkXvvnz4rqd6/7Xv6shb/67r9e2f32Uy8PBL9IGJUeBXbV4Z6cnuAjN90kf4CSCWPDwzcYCk1avSsclCsXDGAmCvR3eK3GwpsUSsWH2ZBvjcTC96hDYXdMbRKu4GkN6nL5iPQafSKZ8If3RHSBm246umPwrvjd9vPXSpVq5U3sSn84Go2VJRIJXZK7FendEkoq4rGoTqlSRxQKpYzwPAL+8cW1GmV7MklPRKLhf/7p65cNpIdIJOOi5slrLKQzf4Qt1YcSidgiSsSQciRhEOHJqEmRVLN5SvB3FGWLnZTJVwIFG6a4Uqnp5m/qJaUq+fvqS8U86buIr+nLd755STyR/Gh2pvGCeeW5hdmODKVGzc4f9kr5k5yAeCJBTpeXDjV2d7V09W/kTtS/fvf/zv93erdEMmqSye8r9z29fRYbsJ8ZM8vPNNsrsqy2fK1ao5cmKQ3McwKFPRNJUvITJf8H/5PfD383/H0kEnEK+Fzk62vs9rka2iJh1+8WXfM0crMFii/85JVZCp3qO1XF2e9fOLvQlpNpIrNBk/4ipfZJTgx6oIFQlHr6g1RT3x7cX9f9RjSW+EaNjw6s/eEFWAdRIhkVB57+cFZSo7zDaCv8ZF7JYo3GWEwKjZlIlR75lIZJMhxCvBJEsSBFAr0Uch+kns7aTdGQ8+dzL//3Y+KQL/7qte9mZ1g+sXppRcW8WXYKhRNIlsQ+iWTEoLOk0yqppctHb24+1Nft8v45nlT++nf/79ye9CESyYjZ88IHz9dpzM/lV15iNNtnsejpiOLoR0nbJBkFCiXfO2qKB7qpu2kjuTr3PNqk8Hz0yitfDCtVKtVH58zKLchzmKXwScYM7ptwJEE2k44WVOZlirnjRNSe3i2RjJhtj15ZqlFpz9UZs5IGa2Fa+FBUSdomySgR3l+EVKYCsmQUklqjyy9OGpdjlzISjZdlWPR6DHVK4ZOMB9w/eq2acrNsimgsURINhNlqSSSjQ62IO1RqwxxTRrFJqVThxkrvkUjGSCLGfSgL6c35FlVcOReblMkkaTVqlUKlwiCpRDI+MPyJYCmFQqlMxDENL5GMjqRKpVEqlQaVCoGdMvJAMhEkSaVUk0qtUyeUcazXSkp5X0kmCwxUSSSjRSOy1BCvJ5FMIKgLx/9JICmEkRVeJBLJ9ELGB0smBXh673l7UvwkEolEctohxU8ikUgkpx0zXvzUahVZrCqyZahIq0OgxdFTBRpNar/Vlto/FvCeWm3qPfB+I8FoUpHBoCLVEettHY+CjEYVmS0q0vG1JdP1iiQSyQwGSwxZTNysbAhEbMXRwCZYzNxsRHrd2Kc3MTlqNhKZBjnHseAcWk3qvIPZJOw38Xvhmo5teP9TMHZNtfyST/xgfmUe2W1GisdnlvFV8j9ic2MdPfLgA/TcU0+SyZRBmY4s/rfFjHmS70EVHT64n554+F/0+iuvsFBqKTsnj1/H+0coNHiPYNBP+/fson8/cD+LrJ0y7VnHieyRxOMxevbxx6ihvp6vycLiZj1O2PB6TL8+/9QTtGH9OgqHo1RcWjrj002wtlgoEqNdh9pR9eVPu994oCu9SyIZEbd/qKpIrc84x2DJn6M355JCmfo9T3v4N43feZ/LTQ/+4yl65slXyNPXT7MrS9+zF9xZ7+zopgfvf4qeeOxF0vL23Bw7qSFMo+n8su2r2VdLr770Nh2qqaPqyhK2VUP4MvhNhsK0e/dBevyRF6m0KI/MELQjbFg4HKHHH32J/nHfY/TU4y/Rs0+9Ss8+/Sq98MzrFPEHqHJW0Qk68tMctuPxsIv8no7ekK976x//dWDTjPX8cDOp+OqbG+vp73/5Df3pNz+l9W+8RP0uJ4scC0v6H3bzxnX0l9/9nO7+/c9px9Z3WJji3Inh1/I/JLwtvT7V4EEeKWj4G96eiTtKiUSC9u3eQX+88w6qO3wgvV+Zeo/06/Fe6rRXGI/F6bknHqJXX3yaurs7+N47Wijx3njP3p5uevKR++meu35Fb735cnqvRCKZyTid/XQPi98Pf3o33f/Q8+T2+FI7IE7xBB063EQ//+39dMcv7qV1G3Zw5zrM+9hGYL9OS2RgbxAeIQTxCJsk/kbNZexnj/Igv88/HnqOHn7sJYqxXRPAG9Qf8R4QrLT4bd2+n379h39SZ5cz1RnHW/N74k90vv/+4LN0513/opff2ETbdtbQ9l0H6LGnXhOfYcM7u0YnzjOAGSt+A0CAMjLtNH/xMmprbaTW5kbx741/3IDfR80NtaQ3GKhy9jwWs1TeEO6hQMBPXZ09/JoO0XxenxCkAQGESPb2OKmlqYd6uzu535kkizWDNBqNOCaZTPBNG6COtk5qbWkXvTmvx5t6Pf/fyKppMBj5WtTH9VnRQ4tEIrR9ywa+NiOZzRZy9Tmpq6NDXPfANUgkkpmHgn/fhQXZ5HBksCglqLa+hWLcIYZwudgrbG7tZO3SC4/PZjUJewQjEYtEydnRQ13NHdTDx3hYRN8VHNgctk9Br5+6mzupn21WiL01k1HPXpwRVk0cE3D7qLetm7qaUu8RDgTFe8Dm6FhYbTYzd/SPN/u4BnTSr73qPHrm4V/Rpq2P0aYtT9A/7/1f4Rjc/fcnKMw261RixosfBEvDonbmmgupz9nL4lfP27A9Tm1tTRQMBCgvv5CKSspS4savgQbCM/vQ+86h1QsK6KyFhfSvf/yZvcY+3qcUwtba0kif//h1tHJuDn3ypsuFUOHmw02Emwfi+fLzT9KFK6vE66+/ZDn97U+/FvtxjtR/BgdFKyLhEK1jb2/1ORfReRdfSV6vm15/5dnUNfJ7SCSSGQqLjU6nozlVpVRekk8bN+9h4YgKr66JhetwXQutXD6fshyZovMuOrvc2d619xCtvuiTlFdxKRXPvYpuue1H5PMFUu/JXmCfy0N//tvjlF95KeVXXU5/vucxcrPYQZwEKgX94nf309KzP0J5fEzl4uvoyefepJA/yJ12DB0PD64Do1ZB9hIJohn009w55VRclMfeq5/8/pDonAulPAWY8VYW/xiYl8vLK6B+9p6aGuv5hvAKz233ji2UYXdQUWm58P6ASq2mRx96iJ576hHhDf75/qfoS1/7Hj35yAP08P13k7vfx95cC/3Pf3+FPT0b/ej/7qL/+NaP2QvsEsKEc/n5hnzzlefpgXv+QF/6+vfp7gefofMuuoLWs5jd99ffiXOroHCDkLrBknytvdTSWEf5LMyXv+8DNHvOAtq1bTOFQ6memkQimbmgA52TbacMm4XWvrWNvD4/b0xQY3M7tbBHtmbVYtLrteKnDhu2bUcNff07v6FFC2bTQ3+7g37wrc9Sd08ffefHd4k5xGA/C9+9j9HfH3iWvvetW+mxB/6PSkryqK2jWwgbbM4f/vgQ7dh1kG756DX0wuO/pc9/+gP0w5/cTY8/8zp5vD7udA9v7nEdGhZZG4JijFYiQwY1t3QKAS4pziN7pjXVMT9F7NMp4GKkhgntWdmiOXu7qb72IEUiYdq7cysVs/AVl84S616BeCxGO9iL03LP7MrrbqL3XX8N3fTRz4ghypp9u7jtFHNxtYf209nnX0I3fuTTdNHl19CKM88ho9lMar7RWpobaPfOLeK9PvyxW+ljN19NH/z4Z6lsVhVt2biOQuzVpUchjgOeIYZj21lgLRYblVVUsde6hOYtXEJej5uvv4di/L6YU5RIJDOTWCwlfsVFuVTf2EbtHT3k7+6jrm6n6ETPY49KzR1x2C/Mx2EotK6hlT70gUvpgx++ij5+81W08oz59PwrG4RgtvHrxXCpUU+f/eT1dOUHLqGrLzubKsqL2NbFqI/F8dEnX6P83Cz61MfeR5df/0H68uc/JK4FAtbPnXoEow2HQa8TIvyN7/2Wvvi5b9GXPv8N+u6P/yiGVm/9xPWp+chTiBlvYaFpED+D0UQLl64Qo40H9+8mt8slglNycgtEhGeCBQU9G0Ru9nR1Un5BMc2dv5iFisSw6CJ+LebzGuoOieFPvB88Q/TO1GoNnbHybDKaTCxeaiGwTvYE44k4vfbSM3T/P5+lfbu3Uywapa6ONgr4UvOHQgGPAfe7291Pu3dtJZfLSeveeJmef+pl2vrOW8LjhOiGWTxlrVWJZOaCaZdM9pTKywrFXFsXC9/+A/XUxd6cxWyinCw7i1EqMM/nD5KLxQte4sL5lXixEM6zzlwkOsK9Tjc1NXeQWqWieXPLKTfXQRSK0OKFs2ludbmI1PR4/CywvcJLfH3tFnr+sYdo3YbtKNwshkudvP3YwLtjgWeI69izv442bd0rhmu97PXp+fphz/z8Hpj6OVU4JdwL+HTwwpadsVqkIdSy6DU2HObeTp8QLHh1CFiBUkbCYSFuPq+bb6yoeLGShcZstQnPDv/IHrdLCBjm5fBvjX/wSCQ93s0vgEjG4jHau2sbffurt9IXb7mRfvStL9MbrzzHN7qBRTAiXjOY54dtPV0dtGHtq0Iw//c7X6XPfvRa+uNvfkLNTfW0bcvbwgOUjp9EMnNBxpKGe7r5OVm0cF6lECWISVeXUwS6wIagcwzxg3j193vZJgXE33gxvEKz0UhWi1kImLPPLUQsEU+kgmfYFmEeMRrFKJFCjCiZzQZ66rm19IWv/pQ+8JGv06dv+zHV1reyMPooFAyL44bDzyJ84Xkr6Ml//YK2bHuMtm5/gl595i7yB0P06S/+SATuiE79KRKTcGp8Cr4RIEyl5RUiynI/i8r611+mkrIKyi8sIZ3ekPpH4398eHTw9Ky2zHdvhgj3onpZkLzskWE41MGeosVmI7WI7OQD+D+p3MEUGFLNyHTQhz7+WVq/s5k213TRJm4b9rTRPQ89R3nsVeLGPjZnD5Pbvb39tH3LRmpraaLf/vVhWrejkbYe7KW12xroh/93F21c9xo11B6kWCTOp5UKKJHMRGA24LVlZlroovNX0KtvbKbHn35dBKdccO5yYY/QIcej0WgQ3pwtw5IaCmUPLciC093bJzyxKItdUWGOEE3YuZQHh1QvpRC9gU45PMP//cHtVLfrSeptfI2661+hvpbX6U+/+TYtWzKHQmznhgP28L2AlxCrYYBM7I0icCc/L4u62XsVNm14DZ0xnDLWFTcShE+v11P94YP0wjOP0PJVZ5PDkc3/YOgppf5xkVrgyMkV83tvs/fFh7OXWEtbNq7nd1HQoqUrqaCgiLRaHe3Y9g65+/v5pgnQc089TP19fWJoE6Jq5/fduW2TEMLKcquIDr3zZ9+nX/7vf5PP5xETw8f2tHBftzY3UBN7pVnZuTR33mIW4jzKsJsov6CQCotKqLe7m/fXcm/NLYc+JZIZDIQCQ565OQ56e+NOemfzXiFu8+ZUpAQL/+dHeGzw8FrbusSQJW8Uf7/46kYxFFrMwrdofhXpuWOOIUlEiyKP7+XX36H1G3eIecAsRwaVlRTQ7j2HWTRdZMqrIC+L1wdu/jr96Z5HxXDru1GhQ4BrOSrgxWQTUagt7d0iNxDiLGwatPYUYMaLH4Y7EUASZVHC3By8LltmppiTW7BoGZmtRnb5gxQI+sWQJ7jimhupqLiUnnr0QfrK5z5DP/zWl6iwpEwEtpSVV4o5wiuvvYk2sBf2n7d9jH79k++JeULRM+KbITe3gM5ccwFVzp5L3//G7XTrp74ghj23bXqbvc9KcYMHA34+b0AI74CE4X5HBCrmIufztVmsVtxbfFxqHB1Dtrnslb7+ynPiuGO0UyKRzADi7M1hHi/A3puWxaSoIEfMp0HkCvKzKTPbzr/7hJhPQ4I7hkcXzJ1FH7rhUrrvn8/Sx275Dn3lG7+kuvpW+vLnP8heXy6ZWdzOWbOUSory6Iv/+X/06Y9/g97Zske8dsB7vPWT14ngme/9z5/otlu/TJ/7f3dQM4uozWohM+/HkKrXGxDnPhbYJmxf99Z2+tp3fkNf+vy3+dzfpg9+/Ju0v6aern8f27vyYu6Qs2Tg4FOAGVveTPRAuGF+zOfz0sIly6mQBQ2J7Mj7y8svEikENu459fY6xWvKK2YLcaqcXcL/iHrhrR2s2UPRSIQ+ceuX6MJLr2bvUc9em5pFsIoOHdhLNXt3ivH5cy64jLJz82jZqjUssEWUk5svvLc3Xn6OGusOC+G95Irr6FOf/4pIc0DwSgF7crPnzBcl0dCrSiYVIhIVf59z4WUiOnRg2AI/DhW/B+YSIZzlsyqprKJ6xt1nsryZZLzM5PJm+MFGwlG2OS5REmz50rnCM4MYLl4wmy48dwWVVBRRmJ8jTeGMJXNF+bOcvCyaV11Om7awzTnUIOb1Lj5/Jf3Hlz4qcgbx3oW5DvFeGEJF5OdF562g5cvmC0FdvmweVS2oIr/XR/vYO9y997CwK4j4vO5951NmhpV6+9wUYScB14DnGOnC9eKyIdidXb0icKant09EiLa0doko0wvOWU63feYGyuJrVMAgzUTtY5t8bHkzxef/77XkTZctpopiB4Uj6RI5MwjMo7FmEGJX4JVBTNQahagWFA5DcOJ8DFbwJcLop5gsZjAEgNcNBEDxPcH7EuKGAXgfrZbfRyWCr/i9sS11XIKfQHzRC9JoxS0k7gccEwmjV5Xk16pS22Kpcf0BUAINnSccO3AtA+A9NRqM42Pf8ftnAljF3eUN0T+e2Uq9/f4lD3zv8l3pXRLJiNj35JWr9Bml37LnL73WlruQFCo2/snjvZVpC9QEpclgS5DcPvAcj+KHzb9r/I3UAWEIuOFY/PCxbcAoYR8LqdgH8BoMXeK9wMDrAM4DsA/H4Fjswvmi3HActmPuBcceYZMEOCWqf7A9fXeoagCcB+9x7GtmEioNRTz11N2yvcbVufdPi6554rf8bc9sIHgQHDwCCE00kmDhg5DhHys1VIltR4oJ/g6HUKIs1aLROB+fvpEYvA/eIxjgRz4Or8d5IHwAx+I9MGSJ1+Mxwsek7jjcX6nXHCl8IMbnwXGDCRveE/tw3pkofBKJhIEdgcAMCNLAc0RyDvyusQ3PB4QJwFYMBJugHSl8AH/j+IH9KDd25HkA/katUOwP4pgj3gPnFtGkg4gYDsH74TUD7//uefg9BnvNDGfGix84UrQAng+27VgGjhtsHzh6/+DHHXXMkfvF38cfDwZ7n/cY/DwSiWQGcexvGM8H23YsA8cNdvwA7+5PPz+W4V4/2LYBsOvI1x7ZTkFOCfGTSCQSiWQ0SPGTSCQSyWmHFD+JRCKRnHZI8ZNIJBLJaYcUP4lEMr1QixiLYwPuJZJxgiV/37utTrzyqkQyBkTOYvpviWQ0JJOKpEKRTCBVTSKZKERUPiWSSmUqTlapUip84Ug0jrw0ebNJxgPun1g8QQEU0E0mQgqDQiYrSkZNOBEPJRKxvlDQk+AbKXVjSSTjQaGiRCxM8bAvTElVHzYpNWrVnm6Xz+/mbahqIpGMFaVCycIXpfau/qhardynV2pD6V0SyYjRUKQrFvbvDnpafbGovIUkE0GCwsF+Cvq6XIlEcg+2KKORyJ/3Hu6ob+lyk1qdWl9KIhktuG9w//T2B2j7gdbuUDh6Tywa60nvlkhGzKJrX++KxeJvRsPuqK+vnhJRP1sq1PeUSEYJ9EyloXB/A/n6W1HwsmHRtY/tFrtu+dmTFpPW9k2HzfSJqrK8wtklDrLbDKRhQyaRjAQUie/3hqi+1UUHGtr7upzeJ/0U//Y9X7lYFrWWjIlDz19ujSszPqHWWn9SULrQpLVUktqQw4ZMnz5CIhkGiF4iRomwmwIsfGH3QXI62x+jmP/H1Zf/W9QbFgr3xd++PSceCV9jtxiuKcy1rczIyNCIRRUFp2ZpG8lEgNsHhbuT5O53UWevd2en0/28Uq9+4g9fumBr6hiJZPQg2vPgM1c7Ign6jDGj9Aq9KXtpRobd8p5dksDAoxg/5tmV/DeK4sPmS5ONrwaLiSfI4/VR0NtdEwp0rQuHXQ8uft9zWLhV8K5794nvP5FhNFkvUagVV4RD8YJEMqnBOKkEX6QyEYuG9d3N+9dk5pXvMFrsvYl47KT/CpUqday37fCieCxiyCmZtzmZiKvSu6YUBSkSOp2mW0HJ10Lx+Iv3fuPS9vQuiWTc7H7m/VeyMbsimYhWcW9+yoOI2Y4muYOnbGj1V8YTSZXdpu3Jtut62Lae1CCJZDKZUCiVDv79ZbPeBfgiO6CHvOtdu366wt8N3zLKhFKldfJ3s1GnCj44+8oXj5qGOe2/pFGQwQ0LA57FbRM2TBPu4TaL2wXimUQimSz+zC2T29+5PY8NJ5uaZz9wFimUN7KbcnD+VY/8Kb1ZMgJkeOfIGZhs0KYfpwvwQOW/o0QyueRyu4zbjdzOxIZpgUqtJUVSzX6OpnnDDYb0VskIkEZz5Ax4yf+/vfMAbKu6+vjRXpa8tx2PJM7eO4EkrLAJG1p2S5ktHdCvLS0FSqEFWqCltFCgA8reYUMYCQnZew/Hew95aa/v/K9kCMFDdiRbdu4PbiS9J+tJT0/3f8+9Z0hrWSI5tsCsz2XcYPWB6dxmBe8OMooA90dKUvgDClWjU/ZNfUCK39BHLm9LJNElh9u13IziEdEcbhBDyRBGip9EIpF0j4nbbG7juHU6uaVwW8wtg5u0toYoUvwkEomke2Zy+w63I2dYIIDXc4sTjyRDDil+EolE0j1Y2zuZGyw8FzcPN5DN7fCpUMkQQ4rf8ECu+0kkkWcht8NDiBzcWkK3AB6gF3BLFo8kQwopfhKJRNI153Cbxm0Xt39wW8ltNbcXub3KrZXbVdzGcJMMMaT4SSQSybfRcXNz28DtUW6/4/Ylt63cnud2L7cXuCF/rZx5GYJI8ZNIJJJvg/W9h7ldwQ2ZXeq5wdsT3p+oUwkRvIXbJdwgkJIhhhS/oY8cdUok0aGRW3vwbrchDVj/Qz5NyRBDip9EIpF0DQaWnYNLGc83zJDiJ5FIJJJjDil+EolEIjnmkOInkUgkkmMOKX5Dn8PXJSQSiUQSBlL8JBKJRHLMIcVPIpFIJMccUvwkEolEcswhxU8ikUgkxxxS/CQSiSQ84FiGYHcZ8D4MkOInkUiihRQJScwiL87wyeRWyQ31vVDaJFb4F7cCbofXHYtZUlNTL2xqasrw+/2dRUElwwyDwaBLSEjYUlNT80Vo03AASa3/j1sit/e5fcpt0NnzwcUnkJ/O9/sDBxL8jqeyz3nHHtol6QUpfuEjxS8C6PX6NQUFBXPT09NtPh+S40uGEyqVioqLi0319fV/cblcPwltHg5I8RtmSPELHyl+kWHbHXfcMfn666+n1lbUApUMJ+Li4uiGG26g999/H2WAbghuHRZI8RtmSPELn1gVv6e5FXIbKuK39W9/+9uUm2++maTlN/yA5XfppZfSSy+99Dg/vDG4dVggxW+YIR1eJAMOOsjOW9mGVwMKhRxTS2IfKX6SAScQkKlIJRLJ4CLFTyKRSCTHHFL8JBKJRHLMIcVv6CNLGkkkEkkfkeInkUgkkmMOKX4SiUQiOeaQ4ieRSCSSYw4pfhKJRCI55pDiN/TBdyi/R4lEIukDstMMn860FbGWvqKY257gXYlEEkU6vaoHrQ8I3HmnctWqc8yhh7zBF/CH3o9N7ZX5AvuAFL+u0XCbw+1mbudzi+PWwg0Xf2c25iXckLV+ETcTNgwSulCTSCTRZdAHvjtnbRuT0Kr9xa73L7p49+vnJquRctTvd/mVAY9dZYjf9f4Fx+9858If7X7v4ktDfyLpBil+XYMkhaO53cftj9y+w20uN1z8k7hBEH/L7WFuU7kNpvhkcMsL3pVIJFFEy40NLfKKR4OARqnKUiqUV/Mw/K6ATnO91+ebpVAqk5QB5QitX3NOwKe4g/ffoQjQaaE/kXSDFL+ucXJ7nts2bhDBB7m9wQ3i93duKCMEMSzn9j9uzdwGC1iiDm4J4pFEIokWqOiAIsw28WgQUJJ+n0JByxSkyFUoFff6lcpf8+YTuV3GgviwVqM+he/v9SmVr+P5ku6R4tc9GOG9xg3rafHcMM+Oi94QelzDDcLXzm0waeSGMiaw/gZ9WkYiGabgt5XDDb+1QRvsjl43qtrr9TwRCJDPoFPzmwoYiQLJpAyk8e44nZa7dCWtm3j6i8uCfyHpDil+PQPrb1Pwrrj49dyCdVuCVt+T3DASHEyquLVxm8BNfp8SSXTA73w6tw5uFdgwGCjuvtvvCngOKBX0gcPhbVUqlBoWQqMioNChlJTN4d1IAf+XoadLekB2lj3TwG0Nt3rxKFjQEmCqERdYKbfBzqu5n5uVGxxvjmlvL7/fT/X19fTf//6XvvjiC3I4MBscBPveeOMNeuCBB+jjjz8e0LJKzc3N4v0sW7aMPJ7+jZUqKyvpn//8J23dupXsdlmvdIBBPzmWG2aDMOMzqAPeGWe/41Ap/U/zcLzcoFeTklUPJRTVaozPFa+R0xBLxbZjFil+vYML6c3g3a9Ywe2t4N1BZy83jEQxKsXUx2ABj9dBvZ5QGb68vJzuuusuev3116mjA4N0IrfbTe+99x499thj9Mwzz9DOnTsHtOAqBPm1114Tx3c6sZzcd0pKSujnP/85ffrpp9TePtgz7cccSdwu4LaO2yFsGEz40g0UnfbqxzyA2+V0ecWclN8f8Hs8vjqfn1aOP//ZptBTJT0gxa93dnJ7L3j3K77gtip4d9DBlCccc7AeiR9oMrfBYCG3ccG7g3NdQdBQTdxisZDBYBD3YfFt2rSJbrzxRiosLBQi+NOf/lQIJUTR5XIJQYKViIbthwNLDdthbeF5nfu9Xq/4e9wCWJJ4LTy/06rEc3F8NKPRSHFxcV+JLvbh+XhdvP7hf9fJ4e8P+xMSEkiv15NSGTy9ne8NDc/D87GtExwDf9vTMSRhkc3tPG7LuZVhQyygJOXbLHrrNGoV65/Czlue1CnVWI6RhIEUv/A4wO2V4F36hNuG4N2YAQL9Irc7uc3DhgEGDkAI/fiY29+4TeE2qEAgIH4HDhyg73//+6LBchoxYoQQic8++4yuuuoqOuWUU2j69OmUnJxMY8aMoY8++kgICYCF9ctf/pJGjRpFJpNJPPf9998X+1555RX62c9+Ri+88IJ43NjYSOeccw7deeedVFFRIUTx888/p8suu4zeffdd0ul037A233nnHVqyZIkQ6oyMDPr9739PVVVYvg0C4fq///s/KigooHHjxtEf/vAH8ZnQIOw1NTV09913U3p6uvh7HPuHP/whPfggHJODvPXWW3TqqaeKY2RmZtJ9991H1dXVob2SMMFa+ve5YenjQ25wMIsJTIm+N/xEq80mhCWT1+ak/xSd8Vyl2CnpFSl+4bGb273cIHzoXTDtGUtgmgO98tvcfs7tR9y+zgIRfWB1buGGOKhLuP2B20Pc4ILduU4adTqtGggExOaTTz6h3/zmNzRnzhy6+OKLafRoRK0EhQXWEARQq9XSj3/8YyE+EEtMl2KKEcL37LPPCgG5/vrr6W9/+xtlZWUJAcG6G8QEAgcRAhA/3MfaXFtbmzjG/v37KT4+XjS8J4gf2po1a8T6Y05ODv3rX/8SIvryyy+L4+G4mK79y1/+QqtXr6bvfve79Lvf/U4IM8QRr9va2koffPCBEOrbbruNHn74YfG6+DydU6Jr166lN998U4g9jgFr98UXX6TnnnuOmprkrFiYYCB5K7dCbr/nVsstZhgx/1XH+AkpK/mr35CRZnh11vkvIduTJEw6PRePVWCxIEh8BLcx3CZzw9rZTG7I8IKLH202t4ncENCORW8sfs/nNosbno+/wzb8SDK5IeYOIREYXHztdRFd4IQDB5wibng/6OnhnYr3i6nRaM534Rj44eEcweobxQ3JALAGiSkjJAFAhhwseF135plnZs6ahVMXWSB+WF9Dpw/rC5bXihUr6Hvf+56w2iBuAAJSWloqhO2MM84QAjJt2jRhJULAIJYQNlh1sLJgzZ100klCMD/88EMxfYnnbN++XYjNjBkzxPEgengPsMRgSWKdD58zLy9PrEXiveF4Tz/9tBBJCDLEbfHixeK94H1B5CCUjzzyiJim/dGPfiSOjdfFet+JJ54ohO7LL78km81Gf/rTn2ju3LlUV1cnxBGW4vHHH0//+Mc/xONLLrmEvvOd79DChQu/OgYsWQh5tMDn3rlzJxzFgmby0CKVG37nZ4UafjdY38dnGag5Y2SUSueWyw2/Y/yWpnHr7JcQY4x+afp/Xthw/LqtlblPvbRdUVnnwfPRH+E5M7jhtzie20hu+MIRp9i5No/f4jE9B36siB9EAF88LijE6qBDnszWwXzupBampKScxCPks7iTWsrtXB6Rn5ebm3se357B7bTs7OzTuZ3ELYvbcZ3b+TlncDuL2yn8eDF3KPNTU1Onc4c5ll97lN/vH8GdKI5p4ZbCDdYYrCNcdNHwGMPUzHZuEODjueGix+fGDxrHxy3eDz4/btEg/pFoWPzCgAACCPA5MSDA+8BaIAQSAng5i19qNMQPa2sQGFhRW7ZsEWtcEBBYdxMnTqSkJPgtBNfKYN2tX79eiOLs2bPFmhgEDFYRxASPITYQHuzHWhsECNOGEJXTTz9dHAPHg0V58OBBISoQTzyPrwN66aWX6OyzzxZCuHv3bmpoaBDTkLC+MPWalpZGGo1GCOOuXbvENlhqENfnn3+eLrroIiGsEGCA94vzBuEsKysTx8P7AHi/sAghnPPnz6d///vf4vUwLapWq8XzO48BMR47Fl9NdAiJH9aeNnJD/GlX18vhrfNaDLf15296ahAGCAeuXYjKCdywxod4vqe5HbnmHykwKMQAvHOQiEH4RP4O5yQmJh7H393J6Gv4mjiH27mhPgntLG6n5+Rkn6k1Zc5otFkyvcqU0SNG5J6cm5tzOj8P7Ux+zhK+PYH7LPRLM0wm0wT0S3x95vFvAOcQ/gHoH9A/4fcK3KHbYc/AubwNHPhMGNl0NnT444xG40zuVGby6H8Kj9AL+bGCLwr7yJEjiZueLy4lRuwshKKThHOB2WwWHQ+m0I4EnQicCTBF1dLSItzZMfWFzpA7s8ChQ4ecxcXFfu5Q9dwpqfi1Kvmi28Gd1Ea2IDbwCBzrdJhGgWhAGNAiORLDj/pCbvghQ2kgvLAA4QKJCx5rF7jQI3UNwBMEP2IcF4ONI18XHQkcBk7++9//ngQHlEgDa23Hjh104YUXis4d05mwki644AL69a9/TVdccYWweCAUmBL961//Stdcc42wjPAddoYS3HzzzcKqwlQoLLXrrrtOXBN79uwR3qIQP/wtQhcgalgzhIW5dOlSMaUJsYVoYYoUU5K4hv73v//R3r17hcfnL37xC3r77bfFNQOxAhBuWJO33HKLeO/nnXeeWPODdQghhXDhff3gBz8Qwg0nHjwPa4EAa5F4P1jfu+OOO8RzcQyr1fqNY0DIf/KTn4jPHC3w2i+++CLChOAZGc60d3+u+0j9DU6OkRvEB79FJLWAM9s73BDj2z/33G+D3wMaDA7c6rkvms7X5xT+zmbxNTOD+5QCfqzmfsjNfVKAB25abmoMknANYBCFKXT0S1iDxoDsSPAbwPWNfgmDIVzXnf0SBnfcLzl4oOYvLS3VYyaDB19N3HbzdbKGj7+F+yUsX2AGCecFfRJ+15Hsl2KGSHV8sQQ69uO4Hc8X1/H8ZaaxyKl5NK/jDilhzJgxGm5KdGYYdaNjwC2mxHC/8xadZmen0RMY5aNT6WyYVkLDRdh5i+mwAwcO+Pft2+fjzrWVO0g7X4A+fv0W/htMDyGcAj+4rz0ejh58t/hRQ7mxIo7zggbzB8N+TFNCCCNl/WPa9Vpu3+UWNFW+BmuC+HyPc/szi19hNMUPjiynnXaacHCBlyUsQUwjYgrx2muvFYOW5cuXdyl+sOawPobv/v7776d58+aJaVMMhjZs2CDEDGBNDpbcypUrhSWGBrHCOh2mQ9FRQSzxPBzvySefJP7+xdrhTTfdRPn5+UKUYb3hOsH7xHUIoYTQQeSw1ghHFrwW/hZ/d/XVV4vXw/vEe4LAAnweTGvidbDOeeWVVwqrF8fAAK/zGLACIc5o0SIkfu/yXby53taecZ32p3Ptb991+N/hPhoEDrGyGKDhN4FBIZYrIjk7g/Mwk/uVE9Av8bU6mgXNzdeXcerUqebx48fr+VpQYi25sz/Cd4WGa/Hwhr4JrSeO7Jc6+yb8RtCwH9c8i2CAry0PX7O2tWvXtuPa4+d28HW4iUX0U36pz7lBDIcd/b2AYg2s10HwsDaXxRdS6oIFC/JHjx6dxh2AAtZcYmLiVyMnTCsNNBhlQQQxrYYRP0bkGMGzddjEF135xo0ba/iCxGgZU0WruWEEFmkgdBgu4ocIQcJI92ivgc6OC1M2yDN4hXgUBJ4V8JD7gBs+D9zEV7P4TYqm+EHQzjrrLLr11lvF944fOcQE3wFuzz33XOGBCWHqTvwwOLr33nuF6GAKEmL1+OOPi20QVQgiRtjYB3HFNfbQQw+J7xdrhbDyMOWJ18dU6FNPPSXWFHELIUYnA2HCmhyAtYaRPCw+jPLhyYkRO7xNuXMU3qUQbgjylClTxLrmunXrxBQjrmusS8KDFJYq4hxhteIYmDpFAxBFCOCZZ54pXiNahMTvKb77A24YgEWLSPVfsG4iZeEdDqxJTPsv4DaCr6EU7peyJ0yYkMMDEhW+N7TOmSZY7QMNPJthIaI/wrWLhpkNvlZbebB36IsvvsCAAF5dmKmCo99absOCobzmh84WF9XZJpPpnMWLF1/Ao6gzuNMr4pbDI/+4k046SYHpJ3RcWPvAxdWfES+mOHFR4ELBLehqKrQnMJqD6GIKA2sucGxgkYaDgpEFOpN/EKP5dmpWVtYovhhzbTYbBB1TtvhhRiqXIIQKo9nO0S3ED4+PpuE10K7jhmlWrGEg6B4OAi9zQwgGQiDquOGYcHjJiMaaH0a2EBoIEqwdWG2d00P47rGGB8sM1wBGvqtWrRKOLhACWFNwIsH6G66ZyZMni+8b2WAwSMEtpjQxNY6QAtzidTBNCicYhCPA2oTYwkLcvHmzeB7W8DDlBKGqra0V05g5OTlCpDFVCpHE9CS8P+GsgvU6vDYsQGzftm2bEDGs9+F9wJkFnwufFe8X0594D5h+xWfA8bCOiesMf9t5DEyJQjBhDeLv0eFGi9CaHzpJrJV1dc3EWsP1Gymwfoh1wzP5N3/e7Nmzz+a+6ewlS5ZM4MFQLt8mcFNiihvfBb5rDMj72p8An7uN/F47X8s+CvicbBVy39aLRXgksCzxG8HgLTc3V/RLuPb5OtLz9ZjJA69Ctkgnc79UxNdXNvdNcKaDTwEOhNmeYODrEGSoiR9GkViYxjz5uSxqPxw7duyVfCHN4NFtOmK5zj//fNGhZWdni1FuJECHilE1OjSsBaFjwbz70YILHhc/LrYTTjiBjjvuOIz6k1Uq1RQWypO5zeJOzsgWBr4nzMHihxoMQos97uaG72Y9N1TA+As3TH0hsOzwaa0boyV+EDR8P2xNC0GDxdS5LoLpRVjccEyBSGCdDpY4rhXsg9UIccJ0E74PCBQcWfB6WB+E+KCzglUIccS0E54LaxIN3x+Oh+8UnpeYnoLFhePjNTBowj48D+uOEDdMj+K6OnTokHBcwbQmjoG/xYANI3AIHN4z3g+uD7w3DJowgAIQNTwPnReuS3Sk8AiF9Yjj4RiwcuHdimNgLRADA5yr3qbO+ktI/LBehu//WAAXGRxIJvH3fSYPhG7OzMy8lgcZs5YuXZp75ZVXquHVO3PmTPG9RmrmyWOvI0fLAdF87lbSxeX0Wfy6Atc1riUekAsvYTh9sYUaz9fTBL/fv5gHePP5+k2GLwM/vXNNcKC82o8p8G2ipfJFcz6f+GU84g7wF+J58skn3XAuiTZr164NTJw4EV9w4MEHHwxwJxnaEz0aGhoCL774opfF3MkiHmCxX8Ed2zX8HjCVAiGMTs/Vf+B58UNuGBX2xNa///3voU8p6Q/cAQU8Hk/A7XYHeHAk2q9+9asADyoC//vf/0LPGjwuvfRS/Fb+Efy6hzXo/PE7PJkHw8+z4LWwwHU89NBDgYqKitDZiB5ue0OgattjgV3vnBsoW3dPwOO0hvZED5fLFXj//fcDl112mY8HcW08eN/B/fGP+Rxg4At6d5SQhE0aj6YQuL2KT3Tz7bff7oAY8eg6wCNu8cOPNl988UWALcxAQUFBgC2GwNlnnx1g4Q3tjQ7o4NjiEyK4bdu2wP333+/i94BQgc08AoMjQQFOTgyBBQuY2r2JshS/o4Qt28CPf/zjAI/QAzwgCvAoPDBp0qTAY489FnrG4HKMiB+cyK7mtppFoOT666+3fvTRR+L32tHRMSD9kstWE6jb+1xg/6c3BvYtv5Zvrw/YmveE9kYPCGBbW1tg7969gUcffdTDfWIFD9DhJfsoN8QjDglizXo4HMydX8zt5EWLFk087bTTcubMmaPCtFDnlM9AgcVgrJ9gmgweg1gXgls71lAGCky9YnoMU6/Lly+vWbZsGS42eGK9yg33hwoQvynRcHg5VkBgPdbx4E2KNRt48mH6HNNU8BYcbEIOL/DsHY5fMqY3z1YoFEvGjRtXeO65506ZO3euCmu+WDPDVPNA4fe5yOfpIHvTTqrf9wI5Wg9SxoRrKTn/TFJpj35ZJhywno21aDiKffjhhzUff/zxdpvNtot3vcQNSyAxSyyu+eHXexqb0lcfd9xxF7PozbvkkksSLrroIiXWOuAVNZDwQEesz2CuHmtAcG/HWuLJJ58sHAcGCqwxwpkBa1kpKSnmtLS0gri4uFEszCOcTiesLuS1grt2rHNDtNb8jhXQwWJNG9cCW3xiHRCDQlwjuF6jtZYXLqE1P3gtD6c1P4QJncTtYj7fl/Hg94QLL7ww8+KLL1YidhIORBiIDCQKpZpUaiNpDMksgu2kN+eTIWEUaY2ppFQfGW0UHeAsg/Vo9M1sAZu5jYqPj59SXV2d4Ha74bCH+lsxkw81VkHanSJMcfLodd/pp58eeOaZZ8T0X6zg9XoDjY2NAR55h7YMLm+//XaABwYBHnE28EWI3IPwXx94f+m+Iac9hznDbNoT05vIUHQjW3d7TjnlFPcjjzwyIOv+4eLzugKujqqA19MR8Ps8vGVw+8wVK1YELr/88gAPcJsyMjL+xecOiTYGq9pMzJOoUqkuSk5O3j1z5sw27hw9LS0toVMp6QmbzRbgkbZ34cKFbenp6RU8+ryJz+fgz311jxS/Yc4wET9hPvOg8kSDwfBeWlqa74EHHhC+BpLwWL58eeCMM87AtVCtVCpv51uEQUkOAwuk/4qLi6v7/e9/78UiKrzYJOEDzz94vT766KP+7OxsTH2+zm0JTm4MIsVvmDNMxA9ZkJ7Kzc0tv+WWW1r37dsXMzM+QwX0S9XV1YHnnnvOw1ZgBQ8kEPuJmqPfzss2CAzmmh9WZK9LSUm5+fTTTz/+zjvvTOdbJdYuEGciCR/EhSG+Kz8/XzFnzhw9j1Qza2trx/CPFYkAUOkd2VxiBbnmN8wZ4mt+sPiQ+PSnbLWc/sMf/jCdxVyHWFAkNZCED/olrEMXFBQoJ02aZOE+KpuNmykOhwP5fxH/O6hrgQOpMoevwiN7+o3Tp0+/4bzzzptx1VVXxSHbPTrwWARVAJACCOmskKkFX2osgsVnBDDn5eXpjUZjnt/vn8wWIVJ5IBMDUhQhUe1gI8VvmDOExS9fp9NdkZ2dfeXSpUuXfP/739cjTR4SBsQi8PQM+BwU8HvJ73WQUqXjXjb2HPgxaICHPgbnLIYpNpttVH19vYX7J2R8QvLzQWGgTSwsHiOD+bW5ubk/+8EPfpCAjBPITh/LIBs68jUiJRXEJVIZGqIFUrmhLA9bgMYDBw7MZgvQ7PV6MR0KAYxkKqf+IMVvmDMExQ/90tjk5GQ4tfycr8+R9957L6yVAffg7Auu9nKyW/fybZlIb6YxZQy6p29PII8pMsbwYMJstVqRLWZSW1sbqt3AAoxGbtXYgTvjsxMSEj6ZOXOmc/Xq1WJOeCiwbNkyrGGI9uWXX4ptCPSM9bVJeMru2rULi85ePu/r2RpE1YXBRq75DXOG2Jof1G0Bi8aKRYsWBV599dXQp4h92mrXB0pW/zKw96OrAo3FbwZ8Hht+9Py/l/fGjpd8V1RWVgZ+9KMfedjKblMqlcgQM+Dm9YDN3/EI6pfcAf/+sssum/3OO+/oMPKP5VHV4SApMuL8kPQVeRyfeOIJkTwYmf2R/DhWwSgQ7/n5559X3XbbbRN5xHWbXq9/BLuCz5BIjmkQkY5k7E9eccUVxz/wwAOi4sdQIeB3k0prETk9keC6ZueTdGj1L6h251PkaEHFstgFcaq//e1v1b/5zW/MmZmZD/ImZK1C1foBYyCmPRGVfteUKVO+e+211xZdd911enzwoeTUgrVIBLTjh4EsGs8884zI7oJkwT/72c/EOmCsgvVJJFceN26cJj09PbGhoWFETU1NEVuFKFGCdGkDjZz2HObE+LRn58APcWeX63S6m2+99dYp3C8pkOR8KPVLKk0c6eNHUlzqNNJb8snZVkId9Rso4HOTPmFUMNF1DINkIXBwzM3NVdXX1xdWVFR0OsJ01jWN6iA92t90IV9MN8+dO/emyy+/PIutPiWEbyjBFvpXGV6QYQVOJXB8wSIusrwg4/lQ+MHgfY8dO1bJn8VitVqnNDY2Gt1uNy40VJMfSKT4DXOGwJofOqFL+Td9DQ/IZyBlYVFRUUyvl3UFsrho9EmiqXXxpOLHan0KGROLRKYXtW5gs2H1B/StSA2XmJiob25uHllSUoIkHeiTYsVBr1+M4g/2Bx5NBZ5++mmRhBpgHUoy8Bx+3rlzCixevBiVIv7L31P0qpp2jVzzG+bE+Jpfolqtvp073L2//vWvByQBtSQ8UEDguOOOQxWbF/h7Qu7IqC7LRevFMbK6jS+wX/7iF7+gq666Sig8GGqjq+HC4ecdNQ9RIXzOnDlX8kOUIhrFTZYikQx3dNwP/TI3N/d7N9xww2hUu4/VsKVjEdSrfOaZZ3RsMJ3HAngbb1oY3BMdovHNp3D7M1sWV/3qV78SHa0MWo89EFeJgckFF1xwMj98mtvAlsqQSAaGzlFfAgvf3ampqec/+OCDI2655RapejEIlpb+97//6U4++WRkqPoRt1PEjigQ6QsAi8gPnHjiiadff/31+jPPPDOmnUEcLi8dqm6lACZpjkEWLVpEPALWLF26dC6PgB/iTUXBPRLJsAG/bpQhujYtLe0CFr68M844I3Y7Jcbvc1LAjwLpxx4wlOBf8dvf/jbusssuO5E3Xc9tgdgZYSIpfilsqt48c+bM71x77bUWZEbonOqMRSB4pTVttHpHDfl7UT9keGlqahJ1/XB/uIBQEwjgjTfeqF24cOG5iYmJqMQ+MrhXIhkWwOvjvFGjRl39wx/+sPDCCy/UoF8KxPCI1968R3htel09VyjzeWzkc7eJTC9eV2uwUxsmzJgxg6677rqEc889F2WkbuaGrGARXTOLlPjpzWbz2azYv4DFd/bZZ4ssKLF8gdU02WjLgQYqrmqlhhZHaGvXoJDsiy++SM899xxVVXV64Q598P3AMkfMIncM8Aa92WKxXM67oloWSU6DD29iaF0fgcTnZWZmXsV90oTbbrtN2bnGF6u+B36fm4VvIzWXvUfttT3XgnXba6i9fhM/by05W4v59zy8rEVkg7n11lsTJk2adB5/X9fxpojOTEWkF+IO9IrCwsI7L7nkkqSbb74Z7vRieyw7t6zaXk3bipspLzORaps6KDPZSAZd10H369evp8svv5zeffdd8YUgcBz4fD4hIEN10bzz+8EtilE6nU4I/biGhgYtfzZUiY8GN5x66qkZKADq9XpFFXLZhk/Db+Hll1+mXbt2DXaoA/q2U7ndetVVV835wx/+ENNLMABTnS0Vy8ljKyd3exl5nC0Un7mAFMquu2kInrX0XWqtWU26uCzSxxeKAredIhjL/W+4ZGRkoFiz+r333ptjs9mQBu0gNxTuPmoicXYu4jd4w0UXXXTcgw8+qB3IMv79Zc3OWtpR0kwmo0GI31uf7aTLloyhKaNTuzwhK1eupGuuuUZME953333Cqv3oo49oz549tHjxYuHNinyaw4H777/f949//GNrRUXF09yZRcNd/cDo0aNH5eXl+Twez9D/dUq+Af9GAjt27EDQ8n/44TXBrQMORqNIGPzSDTfcMPEnP/nJVwPWWAWC5Woro4rNf6aUrKmkVGuoo6WK9EmTKWnEqaRQfbuiRBuLXmvVCvK628mcOp3MmfOprXo12Zt3kSGxiNLGXBZ65tAGWbVef/11uueee+z79+9H0W54qB81R9v5TOZ213XXXbfkl7/8pamgoCC4NUbBLGxds41eX1HMAmaiaeNyxAlYvu4ApcVr6bjJmTQiHZWWvklzczNt27ZNTNchw8uGDRuIhZ4+/fRTrJfR7bffLkr5Dwe400L6Nsdvf/vbTfzwV9xQgyuSybB/wNZBJree55olQxafz2cOBAJr+O77wS0DTiYPwh877bTTlv7f//2fcv78+aHNsQiWhhRifa9uz3+JPC2UkjObNIYkam3YRU3V2yl3xs+7zNbidTaxdWjll/CJbC9KblVbHqaWyk/JwkJYsOCPoWcOfTo6OuiRRx7BrMIeHlzBOe+p4J7+czTiB1PnjyeddNI5v/nNb5JgAcU6dpeX3lpZTA1tbpowKovG5CWT3emluqYOWr+zjKaOSqITpueQ8rDpAkxrHjl9sHnzZpHFoqysjM455xwRNhCr5Zj6w969e4m/Uzt/xo/5ISow7xY7IgNGF0MjqavkaECW/sEY4KQkJiZemZ+f/8cHHnhAA4euWJ/uRDmi9rp11FzyFqXnLySDOZsUGgM5W8up5uCHZMk+keKzTxBZXHoC1mPjwdfJYd1DxqQJlDIKdWOHD+hvH330Ufrvf//7aWtr6888Hs+20K5+0V/xs/AFdXFcXNyTTz31lMh5GevrXh6fn/aVW+n5j/bT3Ml5NDovlTTq4Fy6Rq2kd7/YSwZNQFh/o3N6TgsEB5j29naRnBXrm0N1za87IPhY57zkkkvg4HOH1+t9kjfXBfdKJDHN5RMmTLj7uuuuy7vxxhtVsS58oK12LbWytWYwxlNyzqzgFCf/BoUoNh+klvr9lDzqYopLwURbTwSE56eCVKRUGyOzqBVjfPnll/TQQw/Vv/XWWx9zv4RA+H6nZ+yvw8tM7vj/cfvtt8edddZZCuSNjHUq6tvpow0VlJORREUsfCaDlvz+oDcqbgx6NVXxc1o7HDSxEOGK3YPqxKhNhfyew2FR+UjwmfD5sI554MCBGfX19ft48/bgXokkZjmB+6IrFy9ePPf+++9XDQWvYmdbKbVWfU5+Vx1ljFzCvz1+z1ifYSFTqHSkMyRSay0bOEo1aQypYnqzexSioK1CxYI/DIUP5Obmol8yLVu2LMvpdNbwQL2EN/drhqE/V8f0lJSUG+fMmTOTxU8Tq1WOD6feaqdN++qpttlJ86cWUJxRR4GQ8HUSH6enlnYHNbXaWRg1lByvH5bCFi4YMaPI8M6dO9XV1dXajo6OJt48aFWXJZJegCr8joXvonvuuUeZlpYW3Brj1O9/kXyOSkrOmkla4xGDbu5+FNxNKZUq6mjeI8TQEI9MhMc2KDHHAqhfuXLlXJfL9QVvKg3u6Rt9FT+2penKMWPGXHPvvffGcecY8+qAQdTnmytoZ6mVpo7jUUOyWQyKvil9RGoeJSqVCrK2O6m4oplmjEkTj49l4N1aUFCg3LNnT/b+/fvhP/0lN+moIok5tFrtT6dPn37x1VdfbcYa/FCgtfIzcrXuI1N8JsWnjQ9tPQIegGv08WRvKyefx01aUxaptd92yjuWwFJTZmamgvskU3t7u7KtrQ2D8j4vy/RV/M7Pz8//3oUXXjjyqquuGhLKsO1gA20vtpJGq6UJhelinU/NTaVUCscWBQscDDyscxn1WnK6fXSoqpkyU0yUEKf7lgDC6wjPhTAcC2AEzZ9Ze+DAgcTGxsYO3rQhuEciiQmw4D6GO8Tbb7zxxqJLL71UgTpxsUwg4CdXe6mI0cPSSVxiAWkMifxJNDDzWPDQ0O8EbxVqPZHfQ86OanI7W7pc+4OziwJ/d4wA6w8xgJs3b84pLy+v503ol/oU5d8X8TNoNJq7Lr744hPh3p+UlBTaHB2wHgchgjNKf/H6/PTZ5iryBRSUkxZPHXYX2R1ucrj4QuLmcnvJ4/WRzxcQKc50GjVpNSrhHHOoqoVyUk0UZ9SS2+2miooKWrduHdbARJxfQkLs18qKFDzKQkB64oYNGzL4XLzFm2zBPRLJoJOuUChumTdv3sKbbropbuTIkWJwGrUlCxau4Hpa/1/f57JSR8MWcneUk0ZnZr1Tk8fZyvrmECnLAl6nKEgbCHihanykAGlZHF0sfvbWUopLRRxgUOAR7mBv3iuyvWgNqfy5+7OSNTTJy8tDrLWR+2Sl3W6HAB4I7gmPcM8UDz3oBxMmTDj1yiuvTEWWk2jT1OakHcVNlJ0S16/pRx+LZ0Vdu8jaolErqLmlg8prrLSzuI72ltZTBd9vsLaTtc1BNrub3CyCfJ0J68+g09Dnm0opm8UvN81Mzc1N9Pzzz9PVV19NBw8epIkTJ9Lo0aNFhhIQjR+amJblf6L1G+4LcPDBGuDWrVt91dXV6FwQ+mAP7pVIBpVZPBj925///GczsgbhOo3mWr2HxQbChEKy/QEenOI1/F5Sai3kdXP/Yy2l1rqdZK3eyOJWQY6OOhazJvK4WBB9LtEPqLUm0Rl43TZy2mrJmFDEBqKGrOXLqWLDvWRr2kmJI07h96Xn3ydbgThYVM5D54JRDHRMDBxgGhoaCrhvQhaAV4JbwyNc8cvi9vhtt91WdOGFF0Y9YTWqLWzZ3yhSkM2dmEFqVd+tP0xpxhm0lJ5kpLwMM40dkUTTilJp3sRMms63BZkWSozD+fJTS4eDSmuaaeu+atq8p4pFs5XMRj21djgpOd5EiUYFFZeUUWlJibACEebwxhtviOB2mN/IQq7XY3wQOQ5WtlJlQwelJRii+mMOl8TERFi75tdee206P0TwcqXYIZEMHlO587v51FNPnXjNNdcocY1Gm5aKj0XuTYgMvC/7ikKhJpXWTFpTBhniC8mUPInMGXMoIWcxJeQuJmPiWFIb0viJGnI721kMy6ilbis1Va4le0s5eV3t5Gg7JP5Oo08mj72WnO3lpDVmkCVzAdXveYaqtjzE28pEoHtEYesAr+vmY0JYVSHrczCBw2VLSwvt27fP09jY2Mab9nILqwJ8OOKXwge4esqUKWfdeOON6lGjou9ttPNQk6i2oFKrSK9VCc/L/gigii1GFf8dpk4xnanXqoUlaDHpKMGs49c1CHHMSTNRPgvk6Jx4GpUdz9amiTISjaFchRBRHRXm5dC8efNo6dKlVFtbS88++yxVVlbSkiVLaNKkSREXv1XbqmlfhZWKRiSK9z7Y8oe1ifj4eMWePXv0dru9vaOjA1MMPaedl0iiy3kZGRk3P/jgg7qRI0cqoh1v62g5KKotwMrC9KQ5fXZoTx9g0cDaHHJwwnJDaAKsSJXGxNZdPAtqshBVOLboLDyojh/NgjiBDCyKuviRpGGRQ7gDMsJAQJH5BYIZlzad+0s9NRa/QXbrHtJbCig+O7IzdLAo26q/IId1L6n5/WpNmaE9gwuW4Gw2W+KqVatQk/RNbmEty4QjfjO44/vNHXfckXzcccepop27s97qoI376qnV7uWOP5W27q+hEWlmIVaRBA4vOhbWOINGOLaksoWVmRyc5sxi8UsyaynZYqA4vYbMJj2lpyaJOWaY2bD2YP3OnDmTULMwKysrog4wWKtczVZvdWMHTShIJosR8YShnYMIHAl4dO3//PPPc5ubmzHC2hHcI5EMOHNZ+K466aSTpvCgPOrCh9JB9ftf4kF4QAyqvfxYF5dLGh1bmxH8cWLNDlYlrEONPoktunQ+TrYQM70ljzQsOHo+LmIgtIZ0Uut5cMzPCVqhMHgCQgxhTXaVEu2oCPjJWv4xudjy1PJrI5F2LIDsWiqVSs39UlogENjpcrkQ++cO7u2e3sQvjTv18woLCy/54x//qIq2kwc6/Y83VFBTu4fGFaRTdlo8rdtRyUKko3S2xGABDQSwMjtj/dAOr/aAxXRkdjn55JPptNNOE84gkfb8rG+x047iRmq3eygv3UIZLMqxIH4IGh4zZozi3XffjT906BAyrO/k1iJ2SiQDy40sfBfefPPNBlT/jiYoLttRt4Gtns8pMW08mZOLyOuxk81aTMak8UKsBgIIIyxEiKKerUKV5pvTjrAihRWYOi3ywsdgrbOl7ENy2WvIwFYojhUrhJbiPOvXr09zOByoBdVr6ENvw6XjJ0+efPENN9wgRv3RBMKH6c7i6lZKSYijcYWpbJmpaeb4HNpX0Ur7K2Kjjx2I9Tes91nb3SLv6N6y5q8y0cQKV155JZ144okn892lwS0SyYCBHyCC4maMHz8+8bjjjhMbo4nHXk/NpcsoKXM6GSy5pDNnU1x8jvDYhBUU8A+fAtfdwoN+j6Oe3PY6cT6w7uf3xo7PG7JRffe739XzAB1Jpqdy6zWvXU/ih3nGWWazeQpK9kR7urPV5qZlqw5RWnI8FWQnkdcbEBbYpKJMcrj9dLCqhVo6XKFnD18C/N/63bUUZzLQqLxU2lXSJDLUxBKXXnopnHxQ8X0Bt6gWvpVIjiDAfdE1559//pQTTjghtCl6uNrLRY09hCSYU4pIzbf4lWqNKSIwvaVqBbltNcEnD2O8bh6Ql3/MVmcixaWMJy8LYWvVytDe2ABxf9/5zneoqKjoHH44K7i1e3oSvxPHjRs3h0f4Iq4tmrSx8MGz02jQU35WEsWb9cISxBAP1l8+i2Fjq5u27G8I/sEwBbGGn22qJI+PqDAnmcYXplO8xUhvrDxIh9gijhWwvrJgwQKaMmXKBI1GczZvioFJWckxQqbL5VrMwpcR7UoyPrZs2us3kqN1n0g/ptGF+kG/jzRaMyVmTBWxenbrPjE1OlyBc01z2UfUXruOEjMnUXrhiWKpx1r+CbXXxU7OCzgdIhzNYDCcyQ/nBbd2T0+LaD87+eSTT7/22mu1UNRoAZHbXdpMG/bW0+SibMpKiyeNSiXW1gBuEXaAOnzNrXYalZMgHFUGGnh+wssTbrVoiPGLxFQwPr/D7aXaJhtt3tfAFm6bSL5dkJ1MiRaDWOcsq22j5rZgVjGjXkMqdTA7zWCCRebGxkbz6tWrcRJe5dan7AoSST8wm0ym0/Pz8y+9/vrrjdGuH4rCsLbGzaQ3mCkhc1poa2gJQqkmtdbAlmENeVgclBqzCDcYaPxeJ/nYKvP73GydtQgPUniSHi3IQhPwu4OJt4WH5y7SG+MpKWsGaePSSeH3kNveSC5bLQ/aPWItUiTVHsQsM1iSgg/GF198od69e3cdaweUGeEPXdKViqBXxbd420UXXZSPsjbRBMK3iTt9rVZH08fliPRjPhaaw0GWFScLRFOrjWwOt4jRG+i8mzzapA8//JA++eQTKikpEdYwHF/6g9cXoJYON9Ww4NW3OKm22U67Sq2045CVrdxkGlOQRiajTghcElt+ljgd7S9vpqqGDrI5PWR3eEUOUryOSNfWjzCQowUxVc3NzerXXnsNRcaQ9aWZW2wtTkqGG9k6ne72m2++eeyiRYtU0ayhiUD05pJl3EG6KCV3Pqm4Y//25e1na9BCHU27sSRGpl5LDkUen6edLdNisjduZwt0L+lMmcJTtL8gY4yjpZhcHRXkYuGzln9I7rZiscaZmrdAhFPgw2oNSaQzppCzo4oHCNvZOPAGA/gddeI9qXkwoFAOvJECUPmdB+aBsrKydn64Mbj123T17vAtX7F48eLjzj///JRolv/HdOfyjeVUUmenk+aMIi2b0ljzOhJkFDLotdRh99DWfTU0c2z6gFt/DodDxPY9/PDD5HQ6Rcwfgtv7Q3Obk1ZsraLlmyrYquvgx26ymE00a8IIYfkiDAMWb8j4JYtJL6ZBqxvaaeXWctp6oJE27Kln8bSLEI2U+OgmHegOBPxXV1e3HTp0yMGW8S7eJLO+SKLJBJVKdd8999yjGj++m0TQEQDZVxr2v0gKXwdZUsaSIT432Al9CwWp9Qnc4TeR28kGhkIVFS/LnkClB1d7BdXs+Ie4ReozhD70l+bS96hy859FIH9b7TpSsY2RkjOLEnNm86ftNDiCHRPWP+MS8lns7NTBAthS+Tm1lC8X06OWLB4wDFICblh/+/bty1i/fj1ScL0U3PptuhQ/jUbz4Pe+972Jp59+ugoxbdHi3TWl1NzupVEjUljcNGKKD2t8sGQULAAi8TSm9/h/5N0Ere0OMU2YnmjgbQMngOjo16xZIxJbc2dPH3/8MbFpLUIe+hrqgM+IWMLcdDOlxiMdkZ9Kq620aW81DwBUlMjWXmdYBy6zyrpW+nxDMQ8W7DQuL4nmjE+n+RMzRfabrFSTEMvBIBTYb0DcHw8IXuP7MuhdEi1y4uLils6dO3feNddco0HKvWggCshy522rX096YwLp49LZ6tOQQmsU4sYdU7ChUwr1TQj4xvQgQh8SshcFX2iAQP/o89pEAD4FfMJaC/g8LIBpYhqyr2DqNi5tBhmTxpHePILcNuQTLRHTq4a4zNC0Jn9obi5bA9WXraS2xt2kM4+k+KzjKDH3JErKO13EJg5WnlHUly0uLkbh2yaXy4VwLBS8/ZZVdeS7w+OJBoPhup/85CeJ06cjk1XkgVXT0OIQAe14R26Pl8pqrLS3pIH2lzWG8m52UEu7UyShxjSohsXPYtSTloXjy+3lNIKFI4WtnsPBtCDW0A6Py4sUiHFDgDucPZDgGiX1cX54gNBn8YOo4z0mxiHLjF4E16cnGUQO0n3lTXx+FKLmII5VWddC63eVU06KgQUvg6aPSRfTvsg7Gs9/P1jCBxBbo9PplC+++KKuvb39c96E4NKwUgtJJH1k9siRI3941VVXZc+ZM0eJjEORBiELHkeD8N70832/z0vO9mpqrd/JVtBWFpgycnbU8nOa2drpgFJyB8+DdWMS33eTy97EuqglbVxWSCTQ1/lZjJy8PXoV5VXaOBafXOF9GZz6zKK49Fl8zL73g8g2ozWlCxHUm/PIkDiat5nI0VbFn/8QGRPzeCAQR7bGvdRUtZGV30LxuadQfOY8IZg6S56wPAc7wTZm56xWq6q0tNTDoOZfMBHzYRz5DlMTExPPmzFjxknf/e53DdEqVAvBszm8ouNPsujJqFWSgZuOO38YPFjCCvh8Yp2vrcNJjS02qmloo/pmG9mcbiqvbWXLSCmm/ExsMQJUgPhsc6UQFohJpIEQ4Xwg0B/JcxFYC2+zKVOmiH39AZkiYL0ioD4t0ShSrbXbXFRcaWVh0Yppz637qijeoKSFU7NFthdkpMHfHCl6iAXE2iEsx4FcA8S5WL9+PbW2ttawVYy6Wlj7k0gizZL8/Pzv33777eqUlBTuXGF9RJaA38f/eEmpYTFhAVFpE9jYM3EzUkDBVpRST34emHq9LpFjE2IHcXSxILodLeRxtbFIlLAITBQOIACxcO21a4QQqTTI0xt5UcBrQ6zglYlpWFPqFBapo1muQkV4Lb9foxAyCCumNtsbtpPOmIh0N2zt7SOX007JhWeThYUPmWYQ7H+k4CIxNwYKAb+L+0k+h1H43roC/XRLS4t52bJlcNF9ntu33HGP/CYK+I9+9oMf/GDU3LlzldEKbMeFi04clktaokFYcaNzE2liYQpNHZ0qElFDFA06rH35yWZ3svC1U21jK9kdLrZ6zNTa4WbRUIuqD6jgsP1AI325s0Z4Q8IjNFrekBBABNYef/zxhB9hJH+IsAZHZifQln215GAxhxBW1TbTd04u4nPU8/SzzemlD9eVUxIPKOJN8LoK7YgysOL586u2bNkSV19fj8Xl4uAeiSRiwAHvLB6UL7jpppsi9ns7EjhoBDOoBFOGIYsKrJm4tGncwc8lQ0KREBl4dgYCSvK47eS0NZCttYq8Hhe/gIo8zmaRl1OUF2Jrz8li2HToNfI6mlhQs1lQo7eMZEqdRua0GSINGizQSKFU6UUeT8T6OVoPibJKAYWWzOlzyZKFUN/uQVC8vXm3cKTBawyURYglGYfDoXjmmWcwCnmD27cyvhz5TsabTKY7fvOb3yjhzBGti6w3IAKwCnPSzFTEoghBnD8pixZwK2JhSzbrRMJroFbxKIXf5wvL91NcnJ5HFwpRpy8nNTqxiTgnmObEmkM0RqAq/jxY39xf0UzlNS00hT87HHx6E3NMI7+0fJ9YR8xgC3KgrD9MBycnJ9PLL7+cUVtbi+mFzcE9EknEWDRt2rRzli5dOhKOZoMFpgQ1hhQxHYi0ZkhsnZBzAiXmnsjCM5UtpDyx1gXvSz1bS8j/2Vb1OQU8LcIhxJAwRlhR0QJ9kQg3iKDwdQKrDs481rKPyN5yiEz82VMKl+KgoWd0jcO6X5wDiB/SrkVz+vdIbDYbStC1VFVV1Xi9XgzKv5Hw+vAeMkGpVE7IzMx0Y0qvv1N50QQdeipbiqh0MH9SpmjYhnyg5jgDTRubwxaQn9btqhFTpkOVsXmJZDFqxBrgxIKkXoUPa6LwnMV0MjxiXWw1DhS4TrAWiuTe/ONDptu04B6JJGLMKygomDMQqcz6Azp0rT6VTGwlxmctpLTRl7AFGUetlSvI1rCJUnPnkjllDFtAO8Sa3FBFpY0XAqgz5wjLtjfhA8Hwh3ryugZ+NQSzdKeeempiWlraWXgY3Po1hyvcyMLCwtkLFy7UhZKExiQQApQognWICuzFVa20r7yFJhdlikTY6clmFgEVrd/da17TmAWfDaKONUFM//YG1k9La9vI6/VTWU3boKSBw4h8ypQpk/juwAc7SYYz6GELuCOLnzWr14xVgwf3SxDBzooMyHziaj9AluRRpI/LEMHhrrZi3o6VgW85Hg4J4MSDaVu1LkFMhYYDLD5nW7moQo/4v4EEM1KLFi3Stre3o7BhUnDr1xwufqNSUlLmIp0ZprKGArtKGmnrwUZKSTJTdmq8EEXkBc1MS6DN+xtEPF2kaWpqQmybCHfYsWOHyPwSDSCAqDsIh57eBliNrQ6RFHxEVqIogIsK9gMN0p2NGDFiCt/tTIUhkRwtuPLH8GA8OSdnYOPnjgZ4i3Y0biGNRhfMDKNUk96cRTqdmdwdFaIeYDRA2SV4qwpP1CgJrFqXRBp9Gn+k3v1BkBfV1VHJz0VJNiV1NGwTluBAAR1jgw7ZqDAPjNIf35jOPPxBntFoLJoxY0bES/REA1g324ubRZzg9LHZhMIHbo+PUKA2M8VCDpdPCILdGbmM60hptnfvXnrrrbfoiSeeoJdeeklsiwZw+hmXn0RGfc/fBT4z8n7Wt7ho7qQ8Uqk1dKCyhcpZAAdyfDl58mSMtNBDRS8rguRYA+I3b+7cuWlFRUXBLTEOvCKbSt7mjtUrSh+pDclwIxVaFJ8xhQVRRa1VqygQiGy/gTCN9vpNZC3/SDiYwFEw4rCA6VHKKHkiaVBtvgcQF9hS8Rn5XI2UmDWLz8UYaqtaIfKgDiQoyDBr1ixXWloaZqWQjP8rOsUPNmwqUnZhhDVYji59YcWWSupw+mjqmCyRA7PzLbu9foqP09PYwgxas7OWmtoiMwUIkUNQO+L7nnnmGXrkkUeovr5eeDtGgznjM2jJrBG9fhcb9tbRnrIWmjw6g3LS42n2pFyqbHTQ26sPiXyhUXp73wLVlDHNgLvcopd3SnIsodBqtfN5YJU/bty40KbYBVaNrXErW3Y7KC4hl0xJhayGof4n4CNDYgHpjSls/VXy83ayYEVGAFFh3dleQU2H3qL6fc+zCG4WYhhpYL3BsceSdVyPjjsB/sxNpe9Qa82XpNUZKb1wMSVlTWWrtI6aS95hq3hb6JnRB9bfokWLdKxrM/ghKr1/Raf4jcnKysocNWpU6GHsgsoHOw41irRgqUkWGpOfKrZ1gng3o0FL+VmJpFApaU8pW4cRmP5EerN///vf9Otf/1qIIEaiyG850AMFOPI0tjppX7mVnnhrB23a10j52Sk0bVwwz+jInGSaOzlPrHv++91dtGZXDdVZ7eR0eaMm1J3A8SU/Px/Ch3W/2B9BSWKdgNvtnpKXl5eI6atYB9OdjQdfocS0cWQ0d5H3188CaMnmfSnUzOIQKYGyNe6gig33iWlGfXwBafTJ5HUObP3TYGLtNha2rVS59a+i+G9KznRKyp7Je1Wk1sZR9pizhS9D4/6XqG7vMyIMIrgOGL1+CbOY06ZNQy5m1Pj7Rj7KzsW9k9g0PG3JkiU5U6fiObFLY4uTXvp0PyUnxQvhM5t0wvHlcBDuIPJj8v09JY1kNmoo+yhDH5Ax4LXXXqOVK1fSeeedR3/84x8JU8QoojgQAri/vIVW7agWlR+qm+zU3OGhOJOJRT5Z5AM16hEUjxqIKpEdJjHeKDwxtx6oEzUBN++vZwuxWUwHZ6fFReU9h9ZDXXv37q3kh8ioHl21lQx3kKTy+quvvjolWtmmIoW7o5paq1cQeVvZypnJAsRjwCOvfvw+NUFnwo7mA2LqEEJ1NFUYkH6srWY1OVr2i9dKLlwaDDrXIrF09MMKsL5Ys/0xain/mNpr15KdrV5lwEXJLHrm5JFC9PC50d8gCbjOhPAwIhcSYjftZOtwtfhbTA3r4yM/wEEfCK/PF154wVhaWoo+6asihJ2W37js7OyYn1po7XDR+j115PIoKC3ZLKo9IMC9s7KBKuQhCRAvByvIH1BSWV2H+NujAXPHZ599Nv34xz+mH/7wh5hHpokTJw5YSAiyJUHcXB4ftdvd1NTqEOuZWOsUFS5CWtaZGBxGnpd3IvShwxEMf8AygCJ0fqIBSsyMHDkyU6VSwfElegeSHAsgMWURDy5VmFKPZZDFpaNhEzlb9lBcUiF3+EbugFh40CBsqG6A4G70+iod6U1pZIrPpZaKT8hlqwq9Sj/hjgHxhamjL6LkkeeSJWMei2pqWA4pEYM/F9Ywfe4O8rpaxPngs8IdAPpGdAOhUQC/VyTHRqkkOOd4ndagA4zomKLXXSDgPVQBJJHbVwlPOy2/HyxcuHAeLJpwsrpgmhGdMARnIClnEUMWl9EjkD0BLv5ucji9IqgdzeP1kcfnF1OfOMkGXXDk02C1sVC4aWR2/5eiYD5PmDCBTjvtNJHaLJTZJLQ3+iRb9FSQFU8j0uMoIU4rvEz3ltZTXXO7EOD4OIMQQYghEmHvPFhDtQ1WkSBg7oQMERM5e3yGyAsarfeNAcL+/fv1H374IVy6/sMtOq6wkmMBM//mTpw/f/5i/s3Fh+XtKTpR3Bm43yWwN+8VMXwBn40tm1Tysgj4PXYKeJ2icw/43PzWPPz+kD4twL9TjagMb638gjTGrGBGFnRo/QDxhHpLARkTUX1ipAhyH0iQBs2cPoviUqaQMWmsSHPmstWRox2izpYuDwSUsHa5v3K215C1dpvIiKMypFNi7imUkLWQEvNPC6Vji973tnbtWpSi22+z2RBoKaqid4rfjUuWLCk86yzEAvaOtR2elo2iMsFA1dVD/Tprm5MSzHoWPZdIdbavtIF2HKylg2UN4nFDi03kAnUiGTb/EDD1mZIYR8WVzVRR1yK8J/VadUQGGQMpfJ1gsBFn0Io8oKNzEmhSYYqwAPeWNQtLLy3JTNUNrbR5TyVpVX669KQxNIsFD7lOzWwlIxQkmkD8EALyxhtvYCX/b9yk+En6S4LJZLrwzDPPnMsDc2041p/Hxb8Dn4utnoGKUw6Qx9Eo1q0ULALI/elsr6X2pn1krd5IrfW7WASqydnRINKeeSGIfh8LhkZMB3q9bnLb63kgrxO5RIcqIv4PaeHY4oSIWTLnk8/rYnFfw/2Sm0yJhcIqrNzzJik08ZQy6nxKGXmBcJoROUFx7qI8YEGVh7Kyssaqqqo9/PAAtkH8sDJ7/tlnn13Aoyxs6xGnyydi61ZurWKLIphhZSBAiZ9Etn5yWHBHsgU0oTCZZo1LZ2smnUUtUZQ4QnJsl8tNtU3ttJ8FccOuCtpTUifCAVAVAlOf4/IG3kmlPyB4v7LBJpJ3d/d+9Tq1SAGHqhjrdlfTyNwUWrn5EGUm6mjJ7BGUk2qOiND3hdLSUqyNNrJl+iE/lAVuJf0FSfavP/fcc/OmTp2qQpma3mit+ES4+yMAGx1x9FGw0Oq5A+dBNXfkxoQxop4e8l0m5J4gKivo4vJIqTULb3EnW0TtTXupuXoDi+MmFk0H2VuKWTj1ZEoazyIY4yFmPMJ2dpSTx14r+pXuplax1oj1O4+zUQS5Y3oTn93r8VBy4blkYitxoGlubkaqM8+ePXuQ5mwdtkH8puXk5Jxy2mmn5YWzqIzK66u2V/MHRJYVlcjBORACiMwuOI6arRcIISw4I3f+sGiQBSWRLUKkPstMNoq8nvkZZhqVEy/uZ8HyMWjEtCgSX8N66lwb7A9dTXlGehoU53hfhVWkcsPn7e6VkeMU+U1rmm1UVdfOVrGTZo5NE0nCB1r4QGVlJa1ataq5tbV1LZ8TOL4M3TxzksEkw2Aw/PjKK69MGDt2rALVQ3oCCZc76teLiuY+j03k3RwIYPVAtER2F5VOWJ2wgpAJBXlA1fpkkQxbG5fDAllA+oQibmNEvJzWPILUukTuO7BU4xbTn7EMQiraqleRo2WvmG7F5+oOJAnHAMTNQtlWu14kAU/MO0NUnBgMkYfD4rZt29Rbtmwp5YcYmIsVybzCwkITkjT3RlOrk/aWW8njV4h1N3gf1jR9I1fooADRQVkgVDTPZUtoDAtGcK0rk06YnkOzx6XRtNEpNLEgRYgehCocunsejtfS0kKfffYZPffcc8LLMZLC5/P5qa7ZLuoTImdnb7ZTBov79NFptL+8gXJTTTSChX+wQMLv0aNH6/ncIaNC5DPsSo4VNA6HI40H5ore0i3C4xAVyFU8ztKbkshtQ+05FHcd/Fn3zulAUSEieYJYH0vIWUxJ+WdQfPYivj2TzGnTScUWZCTw2OvIxgMAVGJ3tBwQghU52PJrKyF78x5C9freQJJviD7qIsILA1bxQK9JdoLq7iaTKYHvfqXYEL8R+fn5FriD9gScSGCNNHd4acqYLMrPTmbhc1BxVRtbG5EPqIwkKJ2Ul2Gh8QVJ4razSnpvQNBQuR3B7O3t7cLJpBNYOA899BBdfvnlqBgc2hoZEMcHhyKEcKBaQ28gFRoywuA7wi2K5A4WqPxfUFAQxyN1RMFK8ZP0FxP/3rShxAndgnpxtoat5GjeSYa4VErJXSBuIYaIO4tl1EgUbc4VVmqfLVUWdoh+0LPy69Gxq6OCmkqWUfX2v1Pjwdd4f+RSPGK9EtOYmM70eZFCrXc0bNnCosWaplgXHSRwHSGJCwMBFKAicmF6enpcyBW0SxBOsLOkiQ5WtVBSvInGF6aJaceZ43PoQGUr7a8Y2IDKgeTjjz+mu+66CyV7hLXXaQ3CfRajCQBPovLycnE/EuA8w6nI5vTQvjLrN4L4uwPhHjA+IYS4P1hgbSYrK0vHFmABPxw8FZYMZTDHmZqSkmLvbUYFDidNh96gpIypZIwfwWKSRXHxuWz5bBJWSjQynQw+AfJ62sha9gG1Vn/BIggBDGJIGC2mI+FIg6B34WEaEQJC9BDID29ON7ew8nRiOlhjJlSDP0yjBwX02QwUWKzTKdVqdW5CQoIupIpdgqm3ZasOUXICj+qzk4RFgpi6yaMzye7yi1ySg1FJYCDYs2cP/fe//6U777yT3nzzTVQsF9sxkrj44ovFvmuvvVakhYsU63fXkslooFEjUmnnoUZqsH59cXeHTquizJQ4SrYYou7V2RO4wPjcqFUqFRypel6okUi6xqjT6ZJTU1N9PSXZR9LklsrlbEGZyJxSRGpdcLpfa0ym+PTx1Fa9gjvqarFtOIEBuK1xFwvfKhb+d6i1akVoD4myQ/C2zJp8M42YfYeoSh8JvK42ain/iFDo15w8lryOej7uF6G93YNge705X0yB9jecI1KEps8xmkLyBFLyiUxl8dN0502FgGqs7em0OsrLShJ5NL2+4PSfXqehfN7W1OamLftF6MSwApYeMrhMmTJFmMxwCOocJGBta86cOXTuueeK4O5IBLvjov58SyW5vAEqzEliCzuDLGYjvflFMZVUB0W3O0x6NV2waBRlpfbuFRdNEO6QmJiownXFD2PcfU0SoxiZJCzFdPe7gtUBz05H825KzpohsoeIfs3vIw13uIlsCbraK8hh3SemRocbcBqBhQcvUzjNHA48LeOzjw9VTj/6fgmB69byj6mtdh0lZk6i9MIThfOhtWI5W9g9167WGjPJzGIclzZzUBxdDgfiZ7FYcELEGh/EL4E7dHVXwe1wvDhY1Up7Sq00cXSGqJWnPOxken0+tk5SSKvTCuuvjYVykC3biIM6dT//+c/ptttuI6R+Q7A7RAq3EECscR0NGEjYnV6qrG+nlduqaF9FK43MTRUDjcxUM5/3TLHO+sX2atpe3CAGI5iGPhw8wsVYlJsgSiANJhC/+Ph4pd/vx9y6FD9Jf9Bptdr45ORkNvy6tvza6zay8O0igymJjAkjoAb8Q8CgnH8N3MnqTGm8L4XFb/eQLiDbFZgKRjX5xBFLKDHvdDKIAPGvQagHvDGPBuGB6nOTs/WQED4E8RstGRSXWCgSdMclFXCfo2LL+xNhgWL6uatE3UqNSYiwxsjG1iBbftC4pKQkXFBitKD0er1mVkRVVx5VWMvbeqCRzHFGkSoMcWWoGt4JlqIQe5eVaiEvb167s1YI5nCBLWIaP368yOWJqc1OjtazE9PGLR1uKq1pEw5DOM/r99TT6p31lJ4ST+NHZojKFEFBS6F5k0dQdbOTrcJq+nJHjVh/RWJrJKxGDOPRvZvIwp0WBgQKn88HE3Rwr3bJUEXHomfhjkrdleXndVlZ/NbwyN1BSVmzgh3R4cNuiGDAx9bfFPI568neuCO0Y7igYEFhIUqbTqaUSaTRRy79G2Ly4M0JJ6L2+g3UcOAVstWtI5M5lTJHLQl6pfo8olxTWv7xpAg4qfnQm9Ra9bmo1mDjBsGMxbVWaBxmOfmucHCB+OkZvsa+eZEhJ+T6PbVUXN1OsyfCa13BI4FvC5vH4xeldJISzLSarRNYMZKeQbaaTzdV0DMf7qF3viylDfsaSKPT01kLx9OEkZmkVavEIALem/hJ56Qn0tm8D1bVslXF9ORbO+nRV7fSCx/voxIW0FgCAwOMsHBd8UMpfpL+oNZoNEYeRGm+ZfmxsDUdfIMvLC9Z0iawRQFv0MOET4DHCtJZsslgzmSrBLFmIq5Z0guw5A6tuo0qNt1PVVseIa+9ipKzp1NK/iJhUQqEhU1sfWZS1qhTyZxUSB08GKne9hcqXXc3lXFDUd1YA/2n2WyG+AmzGJ0TX2eabxkPn3Dn3Obw05SiTHJ5vGzx+UjNnTLCBL5KJA3B5L+MM+goJw0CaKK1u2vF1Jyke2AtL5qWTectHEVzxqdRikVLxeUN9PonO2hfSZ0QPpxfBPaDqvpWenfVXmpobqPpY9LpnOMK6OrTx9NFJ4ym/Myjm3aNBrjIWPxwkcWSUSoZOmjUarUxLi6Ox1JfX0J+n5Paar4kZ9tBVkc9N5PIoUmwRuBG/41E0sFxlyVlLHdyLrKWi7hmSS/E5yymvLl3U8aE71Fy4Tk8jFBQY8Vqai5fLdZTg/B3wufXbWug2uKPyVqzidSGDH7+eZQz9ceUO/MXA5Rhp2+gX+KBOZZixDQnhlV3X3XVVYqRI0eKqwzrWYgzq2m2i9kErElV1Fppb2kDHSxv4vst1GjtoJYOJzmcHjENitRhZqOedFo1rdlRQblpcSIt19HgdPtEkHe8CSXwB6YPxWc/2mM1NjYK87qn14GoITtNklkvElZnJBnF+YKT5v4Kqxi3mo06/g0rqaquRaRpy0jS0ZxxGTSDxQ8JrpG5BlltIJKxRltbGz322GOY+nycH9YFt0okYZOTmpq6ePbs2eNnzpwpOi2sJ8GaQOkgOLAg5szZwRZdw25qq99GjpZycnXU8XOaye9GEWcv/wZ5kA7L0Ocml71RWC5wEjkaJxDhPMO/38H2XOwLiAXENGQ4JY5UaiPpTJniPOkseaSPH0UKlUEkqna0lYr1VYU2jmyNSNO2mQIqE1myTxAepkjRpo/PDznadL1WO5iUlJTQ5s2bG/ft27eJH27EN6hUof5PCHS8mG6bWJBE00YnU366gXJT9JQWryGTNkDKgFsUdm22tlFlbTPtL62nTbsraNuBampuc1C7wytSoIUTnN0T5XXttHpHDb+X0IYBAIKFUAYUqz08oL039u/fT++9956IBdy1a5cQ0XBASIKFxR0ZWqaMTqUTp+dSQWYcHSirF9Zec6uddhXXUoJRRQsmBqsyIJk4BgRHBurjO0NWGATHRws42tSGcQxMVYXO38CMWiTDDSzDsPH3tb8UHDBQDQGejJbshWRInkbquJGkMuRSQJ2M3C7kdnvJYW+ljtYqFkUkl95ELVXrWfiaoADUXPYBeZy9ZybpCdTNszVsIa+rZ+/raADLNxjUHiZ8zrB+13TobRarvqx7KoTDjNaQJrKyIBuNIXE8dbRUkr2tijwshB3WUnK5nWwpnkhJeaeSIWFUKEl1aGo0RLDIbasoYRRUl8gT7jHQL/E1Bc0TF9a3hi+wStLZEkEmlImFyXT8lGw6a0EhXbZkLF1z1gRaevxImj8xnUZnm7njRiJpJ1VUN9KO/ZV0qKKeRuckUk2T/ajWotCJbz3QIJw6miJQhb0vIFj98ccfpy+++EJkcXG5eneT3rJlC/3qV7+im266SRS7RRLb/pAUr6elx41kCzBA5WxhF1c0UUNzO501v4BGZn+VmKBLHC4vfba5ks+dI0qXGIn13M/5GPXWno8xUJa6ZNiiYPHjywgWVvBaQuZ/jTFNdLIon5OQe6KoYZc56TrKnX4rpY+9iuJHLCFD0lRS6DKJdZDaW2upsWobtVsrRakvVA5H2rPDg8L7AlKFddRvEFXYO+rWh7YODLA4Hdb91F67ToQedOVZeSSwfhuLX6faPf+m1povwwtK7wK1LkGc77jU6Wxl76GG8lViIIw0bXGp00LP6hpY63CesTfvDOs994evj8GGx1dTs98mdD3hghIXFcSPDZXwukv8BZJIj85NpHlsiZzDovi9M8fT/102k3595Wy66vRxNH9CGo3NTRD19SrqUaK+76Bc0q4SK+VmJgonmuYBFECkM/vkk0/o0ksvpTvuuIO2b98e2tM9p556Kk2aNEnk+Fy1apWwjPuLVqOkRVNzyGaz055DNWIAks6WYW+02lyi1iHOOTxAo0Frh5OPUd3rMWD1dXZaEkk/CPiChD2LAqsDNe3i2SqEKGZN+RHlz7uHCo97gLKn/ZSSR11IKYXnkt2KvJR9n4mH5dlS8Rn5XM0idygyqwykRyPSliGjS/XOJ6h293/YgoVDSe/nBrF1ao2ZvM5mEfPYXyCASYVnCysaU81qYw4ljjgltLd7UAEC67SIyYyW+AWr2X8psvpA8LsD/RI3TEmJaSmIn48tlfCusB7AFF5aokHEms2flCXWpjKS+h5wvWFPHZXW2agwN5nG5KXTml3codf1T0T7SkVFhcjTiR8dTGQEsCO2rzcQEnH33XeLNGdPPfWUiP87GsbmJVGcQUOo1jCxIPkrx5fuwCgMWXjQUcDZCFXbI404Br82Ls22uPgAAEqjSURBVB14Avckfh6PpzM4+aivK8kxiZd/g+7+zqAcDhIpaw3pYj0Kgd+poy4gXVwfszGx8LmRM/PQMtLr4ygldx6p1BoR/4ZCtQMBAvZdthqRJgy5MpEXNGTAdI9CLQrG5s+/jwcAPyEDDw6OBhxTG5cdTFhtTOUBbu/rej6vXSTbhvhGC1i0OAZqJvYErie32w3hE6MW9FCeSIgfQCeNtSijXi1aX9NsNbTYafP+ev47DU0dkyWyyWSkxNOe8haqrA8vkerRANFasmQJ/eEPf6CrrrqKpk2bBlfY0N6eGTlypMj4kpube9TZXjrPHSpQoGRUbyCxeGltm3BOKufbaKSawzHKattFYoMyPkZrR/c/er7AMHhAzyXFT9IfIH4OzKCE1o6PDkx3KbUsHEaRDSUcx48gwctXVI0oeYf0xgQyWnKEB6nJksnit5zcjnrxnGgDqzaFhTt9zHfJkjGHRb13h0I45RiTxol8nxo9D6KPsnKEcCBiAcQ5PHJtrzsges72cpFmDucxGmAd96tjuLs/BgblfE2hXxIdJCbWua8SajioON1eWrGlipyeAGWlxVNygkEI6YzxOVTdaA96QUa5K4UFh+lLBLVD/HqrdBFNkKAatQqRsaW3GcTGVgftPNREuekJVMGDBGSLiTQYmOwqaaYRGYnCGamyoftjoNNi8YM6SvGT9AcMyO3t7e2+cKc9owNim91ka9pBzrYDlJgxmXSmVFJqLSJ+UEG8r2ELd7jRd36BB2V81nEiFEGLqu9hLitEuqq9WpfEQsrnoJtCtoeD3KtubnBU4uGHCIDv77pjd8AidndUhY7Bg/TG7XyMrpfJ4L9hs9kgfqIOH1yq7NxZ+TFaHyxgscCq2LS/kUZkJougeacL3l0Kys9KJL1OS2V1HXSol/yWkaSoqKgzEeqgMCLdTOPyk4QV2BMo0Avnojqrk+ZOySOVWi1SzUVSAN2HHWMeH0OpUousNAhFORJMLfAFBosZXgWDPqiSDEk8bPl1tLS04Da0aXCwNW2ntuovKC6hkIzxuaRQ6/iq9ogEz0nZM6m9fj0LY1no2dFnUEMI2JKEt60xaUKvcXxw0MEaqdfZQAlZM8mcPJpaK1eIGoORQhyjEuuwjV8fo+pzcrQeDD3jm2BQ3tbWhilP0TkizKHNbrd7sWOwgPv8J5sqaWx+GuVlQuw0Yv0Kgz6P108TRmWQ3R2gjXuPnZCxuRMy6NTZeXyx9zzC28DnZHeplSaNzqCctASaNTGXKhocogpHbYQKDWMddk9ZC03mY2SzdTmbj1FWZwseo/mbx8AgqrW11a9UKuHuO7g9l2So4uLrqK2pqckXkWnPfgLLpb1uI1t2TZSSO0c4j3CPK9YAVRoDxaeMp4DXTrbm3QM2/TmYYBrVlDpNhJrozMj61TVYB20ufVfk/NTqDJRReAIlZU0jj6OGmkoQdtG7E2Fv4BhNJe8Ej6E38TFO5GNMJY+tWqzNwlo/Emhcc3MzxE/U4FPpdLrvzJ8/P2XMmDGowYZtAwqm7Dbva6DKRgdbFflkidMJ4Tsc5Lm0tvMbb7WLuDh4nB6r3oRwZsF6G6YdX19RTOX1NraOk0U+UI1KSYlmI5lNOjFNuWFPDSH5LDxIUYIq3ID4w4/x2oqDfGunvOzDjmExUpxRS/VWmzgGMv4gJZvBoKH2tjbasX2rb/knn5ayBfgyv5w1+KoSSdho1Wr1SIvFctKFF17YY7m1aNJ44BXydpRypzpdTHd+A+5+0AUpSEl2636xpmiIHxnaGdv4hZfq12EkkQCer4hBtFv3UcP+F4SFl5g+jhLSJ5FKG0dKHjgY4jLJZW+g9oat5LbXksaIouoBtsDCK3L79TH28jFeJCcfIyl9PB9jIh/DJKY+MR3tstexRb6Nj8F9k+nrY3yxajW99dZbh3hAhX6pWaXRaM6YMWNG7rhx44y9VU2OBiu3VtG24maaVJRFWanx4gs5cpofadUUSgW1tDupuNJK04pQ6uTovzhYKQhPsFqtX1VngPAezUWBkWpVVRV9+OGH4hY/3Ej8eFE0eM3OGlE6qrqJBwLtbjIYjWwpJwlrzGTQiqK3EDtkh4k3G8Svc/vBetpT2iz+bm+ZVWTOQdmjrj4jpjIRLrHlIB+DByOdxxiBY7BV+Y1jsMAm8DH4sgodo4m2HGii/eUtVF3X5Fn7xYfb7TbbO/yyAx8NLBnyeDyeXL1ev/SKK67Qdv42B5K26tXksO4gozmV4tMmQSpCew5HQVpDPNlbSsnndYuq7EdbTaETn6ddJPCO1OsBBMkjSB/WLBxgVJre1+16w+exUe3OJ6ilYjm11a4lB1tcCr+DktnSMyePIlFjMdSnavTxpDcm81nzk5OtalvzHhGi0FLxCb9SgPQW1L/+NnCUqdn5uHhe18fgc3TEMTDp5Oqo+uoYSttW+vSTT+jzNftK+LlP8xPcSjYFyxobGx1ISTXQ7CppEomzURIJlSEgPPAYRRA+LBXkDoXIIYVaWmIcpSdbqM7qENUQUBnhaEEqsueff54eeughevXVV6muru6ohA/Ao2jjxo3017/+VTSEP0QCZHBBZpUOh0d4c8JiRrgBPEvhFdrpWiJSYfNDnD/8YBH/h6rwCIGAU9HhVTmOBMImjmHvPIbzq2Oov3UMBZxaxPlq5eeKyvN4b20dVN/Q5Ha6XChtP3gLyZKhjJ0HkQ2MfsAdXgJ+Md3ZVr2S+yENGS25pPhG3lA0FV//StHg/BKXNJL87max/hQJRK1CFqjmknfJ3rxbWDuRAN6QzaXvCc9VWE8I2j96AkJUIVBeZxOJ0kY+B58a9N3wV0B/GvoOcb7EtgD53O383HryuVr5b+3CqusePob3yGM4+bVgFGEN9MhjwPnlm8dw2nng7+jg44goeLHmh78cnZWVNWXSpEmpcNcfKHBRL99YQR6fQqzz2ZyIT/OKKTd0uGgen090+uiUOxNqw8GjtKaVxdJIcWyJHA1bt26l3//+97Rs2TJRuHbChAmUl5cX2ts/4PCxadMmeuONN6i+vp7Yoqa5c+eG9vaflHg9FWbHU166meLjtCIWcfehOqprbhcihKlhDBTQV1TWt9KOA9VUVddMU0alivXDBZOyaO74TPEa3Ql8SryBCrPiaUSGmRJMGhHWgGPUN3eIAck3jlHXStsPVLGVZ6Wpo4PHOHnWSDIFGmnVx6+1btq46T3+jjfwyw7eYrJkKJPAAnjj9ddfjxpsoU3RB2myOuo3krOthLR6C6nUWt7GfaUPU25OsdYU4Pti7Y87WHSyWn1C0MqwFpM5fQbrI8IAuv6NhQMcNhDQ3soCDGFBvb5I1OdzthaL7DRwFNGbc0QOz3C8NnsC04nmjDki04shaZxINuDqqCFHe7CCvgZTnho+HzzoRu7V5pqt1NFSTipdKiXmLqGEnEUifZoxcRyfsq7PGWI1LZmdxxjLlh6fb1sN2dur+CyztYcpz28cYwu1W8tJbeBjoOYhPGRTF9NnXx5EHDcWA1/C60L8MjUazezp06fnwM1/IICgIVZMp2VBUymoqaWDyqqt3JnW0O7iOiqtauYOt52a2+xks7uEtyFODKbdjNw+21QiclxmJmOet38XGaw8iBTSmUE8fvnLX9IJJ5yA3G+hZ/QP/D1qAEJMjzvuODr77LMpUtPJWLND+APSzxXlJtLEwhRqbHHQvrJmcRGkJcVRdUObyLWqVvjpkpOKQvlA48RaaThxl18fwxQ8RkEKNbTYgsfg7wDHqGpopY27K0mr8tOlJ4+h2ePSxTH0WgWVHCqmF158qa66uvpNFr89/JLS+pP0h2SLxfLdM888U5+Tk8O/86OLnQ0HESzNlgXCG1QaM3nc3P9YS6ildhs1V64jW0spd+o1Ikk2RBLPA5jagxem12PjTrlexNWFH0v4bZCxBOILC8aSfZyI8TvaKuj47eI9+vk9JmQvYpGeHfTY7EZw+gIcYVQoWsuvh/eKJNc+PpfWyi/Z0nLxtpFshdmoYs/rfLLMlDzyfEodfaGYJlbrk4S49fY+vj5GmohdtGTM4/GIM3iMgIePUcjH6OBjvEEKTTwf4wJKHRU6hi6RKqtq6dNPP3Nt3LgRU3Fv4zUhflq73X7KggUL8mfPno1tUQdfBOLX0hONwspAVpjJo1K4o05nSyWF8jPZumHLQ4GUQh0OKq+x0tZ9NbRlXxVbHC1k0Gup3eYWFhCslf6ATPGwdBcuXEjp6em0aBGPQCI0woSYTp48mZCRHq+Nx9EAsYDZqXGi5NT6PTU0MjeZvthcQmnxWjplVi6NSLf0mh2mNwx6HMMspkw37q2hwpwUWsmDj8xEHGME5abhh//1Mfbs2YMsNw1ut/s/PHKv5E2RmFuRHHskMGfMnTs3OT8/X6nXH12AdjhAHEQHa0oX60/IChOXNjMYX5d9PIvaGGFNBEhDbmc7i2EZtdZtpeaq9WRvLSevq42ttmIyJU8ijY77kn7+9tBZG1lAUazWCKtPxOodvUgpNQb+DEVkiC9ky8siBCUaQPhx/jyOJjGY8Lms5OyoJ7fHJcok9ZYPNBwwFa235PMxGvi8N5PX2cLHqONjuCmpYCkf45uZudAvrV69um779u2f88MV2IZeuYU7qsvnz59fACEYKIT3IVsimM5EhXgjiyGmMVGmB96cyRaDSJeWkWwU5XvyM+JoRFocWyQGymSrRJRSYqsxPk7HFkffR0UQJAggBA9ZWRDQHkmRQkFXxAlGS/g6gQBibbSmsUO0dpuDZoxJpckjkX4o9KSjJHgMBVU32vgY7dRud9DMsWnC8jzyGJhK/u9//9vGwnc/P4xcsKHkWMPEv88ZEydOHDV27Fj1gDi98MWMNSR03rBGECCO6Ua11kKolg7LBsm1EXCujcslHXe+KPmjsxSyhZHHllSa+BusTWmM3J/0c6oSVp5KaxYiKKyiCAgfgNhhShafL1rC14nIKWpIEbk9W2s3sBXNFueI04XwHa0V2wk+B46BKdA2HMNjp8Q8HGPKt46BnMvc9h06dOgDfihiLXAGYLvbUMoHnoqxAAQxwawTU2mjcxKENTh3QiadMD1XJH2eXpRCM4pSRQ08xAEeLbDOwk1jFotkppj4nKTSvtJ6HiiYREWOSJPFA5Bpo1NpLx8jt4djNDeL/HpY5zu62jGSYx2HzWbbuXfvXhuWEGIBWBsQJOQGxfSeGVZhdnDNKjH/dErIPZnvn8kiiGWOCI08hzB6c64YJMATNsDdtJkt2aNNsXYkevMI8X2IYwSIhY+P0UXqtYMHD2KJCzNRJcEtQfEDFW1tbbbi4uLQw9hFr1WJNS9kP0EC6HCL5sLBZrCzRUQLFMbNy7SI5NN5GWZK4oFDpMExMB2N9VpUj09gi/tIENpRU1PjUqvVuMCia/JKhjsOj8eza+vWra0IR4p1lEotaY3pYpoSyaRxX0Kk0SWQgS1kJMMWXrNRAE42hng+hqn7Y0Db2Oqr5bvfEr99jY2NVUNB/PoLShUdOHBAiOBwBEHmmII0apEUOzq60/m6mAbtynkGVTEqKyubvV4vphWG54mWDBROHqzu3rVrlw+zUpIhChKKa8xBr9Io9QgKhYaPAa/S7j1Xq6urEYaGhBtBN1SmswfbzWbhwXBq1w1VUHD25z//Oa1Zs4aczoEtkAvBxQ/4n//8J61fH50imPCcRUV4FMTtazWNcNFrVGKKFWuyXR0DgwvurCr47hZuUvwkRwOmaUp5IOVtaEDtuuGJs61UVJhvqYQfxsCDWLi2Gu4TW0tECESkQS1BrIdqYZVFaZ1RpbWwZZlHOiOO8c3pZizllZSUQPiwPvaNKYTOd8N91q6K3bt3hx4OLxBo/sgjj9C7774rqrRjFDCQwOq87777RHvzzTdFVplIY9Kr6byFI8U6abQwGTR07vF8jG6K6+Ii27x5Mz7cVm5S/CRHi5M7s5LKyko3ptSHFwERTN906C2Rqqul4uMIBp6Hh7sDQe/vUlPx6yJDSzRq7mlMmSIsAV6zkXJ0ORI4ICG8wpQ2g8Xvm8fAUhec8NxuNyr5YmD+FZ3iV81PqqutrRUZSoYbUH+kGCssLBRliwYiZuhw8AUgnhDOIBDCaFieiM8bFyqCGy1g7Y3PTxIi2BWInXS5XPBOQOp2KX6SowXD+A0HDhyo3r9/f3DLcIF/HahsDm9OldooPBeF8A3gsgyyqgRr4ZWR190WFeEVoSMofoscm9Gy/DRx3R4Dfe+aNWsCjY2Nm/lhaXBrkMMXh8ZlZWUtmjp1qhbejwMtENECU44jRowQhWYR1nDzzTcTf87Q3oEB5zIzM5NSUlLoxBNPpOnTp4f2DB/27dtH7733nmvXrl1I1PdRcKtEctRoeNQ+ZdSoUXmzZs0KbRoGKBSETCXGpDEiJs4QP0rEpkU7BOFwVChMqzWL4P74zAWks6BcWXScUgYLu92OGTfPnj17/sdCuBKbgnu+tvzAQbZK1mOKECm6hgudc8AQH6RKGozk3Vqtlo4//nj63e9+R6eddlpo6/AC2XJ4dLWL72LKUyKJBDCDNvHAyjpcnfGQSQaiZ06fGdoycKBvNCaNpZxpPyVz5hxhpQ032tvbae/evVoeQO3lh99YPP6G+JWXl6/94IMP3LES7xdJ8EUPpjXbefxOMR4skDt17a5akeg6knz22We0Y8cOOLoMX68pyWCAhaha5MmtqakJbhl2oE8YrH6BjyuszcHtl5Cw2mHdJ9ZBkYc0EmCJad26dQGj0Yjpzsbg1q85XA1KmpqaNu/evVs7FOJqeqM/IQ1HO90+gNP1/aa5zUmfba4QBYQjBaYWeHSFRN5YmJHiJ4k0W6urq/fAU1syPEFicBSmtTfu4I40MmuPqNrz6aeftrLV9zE//JbL8JEBYSa1Wn3OvHnzTDk5OYqhlvUEjiRwt4d4I11ZX4FR1mZz07biRqqsb6fKhg6q6qFhf/A5NlEwNprOJpHA5/NTBb/fj9aXU9GIRMpIMgbLIR0FcJBCGMkrr7zSxuL3LG/C1KdEEkl8fJ3lGQyGKaeffnpo09ACFg2qQihVSC3W9zhc5LB0tBwUHqEIj3C2lfXQsL9UCAqqTgQdaqIT+xspULqprWaVmBlDtfhIeIYiq8t9991nq62tfYiNIVRz+MZ015FnRB8fH5+p1+vHT5kyRQ3PyKECvHoQQ/fYY4+JWySqxlpbX6cZ95Vb6ZGXt1BJTQftLrXSTm67umnYj/YpW1JpiUYaldO38wWxRmA41liRBzTaU6IOt5cOVrWKora5aXEib2p/8qIejs1mo//85z+0c+fO93nQgeK1w80nXTL4NLe1tY1WqVQnXXXVVUPOGc/raqHGg68IYULqLa0hJTjS7gPtdRuoqfg1ain/gBzNO8jWsLn71riFOurW89+sE96kOvMI6kvhWnh9wgkGFRkgQgPhhGNv3kXt9RtEblRzxtyION7Af+WJJ55oZ+G7kx9+azrzSPHzOBwOH3fIJ5x11lnm7Ozs0ObYBmuUpaWlIo7u5ZdfJrhFI2zj5JNP7nOJotpmG+0tb6Frz5tN86bk0/Rx2TRzfE63bfbEEXSosolGpAfzkIYLm+Ii4P7+++9HVhTKz88XYRjRpLHFSet21YgpT/QfOalmEbB+NCB849e//nUHW9z/4O9hFW+S9fskkQbzYDlpaWknFhUVGdAvHW3psYHC62oN1uarXEEd9ZtYVOykjcsSibL7AoLQFWy4JGdOpqwxSykpZy4l58zhhttvtpQRC8iSMg42H6n0qaS35LH4he/MIpJRV3zKArpRxNAhsXc0wTlpq1krjodC2YjZgxfq0QDv8/fff9+2ZcuWFR6P5wXe9C0nhyMlvYMtqLXcobmwhsNCGNoc22AkiHCGq6++ms477zw699xz6a677hJVG/pMILj0i4oTiJ3rsalV4jZosfVtwQ+WKqZokW38gQceoD/96U8i+L4/a5XhgqlcWH2zJ42gigYbHao6uoTBEHAkRmhoaPCx9bqJNw39xWJJrLKXB7TvvP766/ah0i8Btc5CCbkniRp0SICNpjfnh/b2DdTsFNOXsMZ6aF/tZ4utP3NJmJ5FxhlrxXJqOvQmW6xfpcOMCljr8zqqKY4FW62No7aqFaJe4tGAwPZ33333kM1me50fdund15U928wX1yfcKdcNpYwvWJ9ESaZf/OIX9NOf/lRUaujXNCL/CeRHVJDvtflFlfkgfTsWpmTxflFTEBbqmWeeSWbzN2vjRZIDFVbaVdJMmWnxNHFkBo3ISKQd/HjF1kqRELs/wGL9+OOPWzo6OhDbN7BpcyTHGnt5cPj+e++9ZxxaDnkKUTQ2ZdT5opadMWl8UKD6BdtF6G9EMDyav8eG5/bnl63SxZMlawGZ02eRKWkCC3j0Kul3NGyllorPRN3R9PzFlJgxWYghtiH1Wn/A54bxtmPHDji5YCmmy8wtXYkfphieZ9Ws3bwZQfFDB2RxQQD5lClTompBRQLU+RszZgzdcMMNooo84v8gfpEE5Z7gwLOntIk2728gX0BFM8blUILZQFOLMoVlvHl/I63eVk31VocoWPu1mPcOYq9effVVh91uf44fxkbdGclwBWmRtvOAq4r7pQDc2IcSKCKL0jtDIYgcwfewUFNGns8iOJ8fx4f2RAZktkEqNUx1Iq0aSp7GJeWTIbGQLMlFpDcmkL1xK1uen5CrvZx1ng03CHqYbNy4ETNSLawBO/khkll32al1JX6IcP+cR1m18OKDQ0OsAdf63sQt2s4jkeI73/kORTJzhdPlo9omO1t6LWzpNdG63TX09pdl1OYI0IRRGZSXmSQKAedkJNCciSMo0WKiz7ZWCXE8UNlKpTVt4u/tzp4THWDKk0dWEMA2fgjLL/YuFMlwo4kHuC+/+eabHcgjG1PAyuJOPVIxaoMJvFEhgPr4QrZSIyPWODeujgrh1Wlr2snW3QpqPPgiKfx2Ss07jiwp44n8blJpDJQ5+gwhgB21q6ix+DV+/nayN+0iR+vBsKZDkcOZB0iIi3k7uKVrevJ/TU1JSSnkiy15woQJoU2Dj8vlglu9yNgCSy/S1DXbacuBRuHMouYhSU8iC32FyG7ZW9Vnh5dosXpHDb25spg+2lBG2w420kEWtHlTC2nKmCwym/RiqhZg2tag11B2egKNyEyk6oZ2Fr8W2rCnjnaxpej2+qggy9LtIGLlypX09ttv1+zatetlfvg+t9g2tSXDAbfT6WzgQddZS5YsSRg7dmxo8+CDTtltq+RO3kNKjSnig2+ELvicDaTR6klnSgtt7QaFkvweBznaa0mpZRGz5PfJ4SUaeGzVVLb2LmoqfU94pPpcTcLKS80/jrR69Jtfdx9KpZpMSaP4s5rI3lpKLZUr2Ar8VKw/ojSSKXli6JnfBjMC9957L8KvIHyPB7d2TU/iV8+j+iKNRjP5ggsuCG0aXJDh4YknnvjKQxJOLhkZGaG9kWGoi1+yRS/eSx4LV0aSiVQqJe0rbySbw00JcXoyGbVC+FCbr6XdSdv3V9P6nRUUZ1BSVrKRxuQl0rRRqTRmRKKo29cdCG94/PHHt7KY3s8P64JbJZKogpFbi1KpPD43NzcvPz9fPRjpCo/Ebasha9mH1FT8BjlbDwlvTnhIRjJEYKiLH0IuDAmjWLjGky4ulwI+D3U07iCPq12In0r7tSGDUAtr9QayVm0kHz/Pkj6HzBlzKClvCcWlTePP0rXRg5jjl156iT7//PNddXV18PDsMea4p2/nEHf8Gw4ePNiybt26ryyGwQTrZACxcShxAitwuPLJJ5/Qs88+K6pB9AWzSSsC2GePy6CFU7PpzHn5NG98OnXY7LR5TxU1Wm1icbmxxUb7SuvJzedw4ZQMmj8xk2aMTaMpo1JodG4CxXdRqb0TOELt3LnT5vP54OEpC9dKBhI79wMvvvnmm/uRUi8WQGcM1xKPo1HUxBNB7AMQGzcYOFuLqb12HQt+3/zbFCx+ppTJZMk6jhJyT6SkwnMoMX8peX0BaqhcSzbrISKNjnXGS3WHPiV7Wz0ZUmdQatF3KGHEKZSQvVCURtIauzd2sET39NNPU1lZ2Vv88Mvg1u7pyfIDfq1Wm97U1DRhyZIlwqNyMIGHpF6vR/FBEdIwf/78iE99xoLlh8/317/+VYgfiuCiFFN8fHzYwb14Tyg/ZNSrRRxffqaF3B4vVTW0UXObi7JS42nbviohfNNGJ9M8Fr7keL3IUKPVoCJ8z1M2Dz30EH3xxRerGhsbkdHlYHCrRDIw8EC8vLm5eVpqaurkk046SYF+YTCBVcMdBSnVOjKnzWQLZ2RwWwSJBcsPMYvNZe9TW/Uq8ntdpDPniKD0vgBPV2Sc0RhSyJg4hjeoqL2Bx89+fj1dPDk7aqm5ZhuZ+DzC6cYQP5KtQnPwfPbQL8EQWrVqlY/7zeb29vY/8ybkGe6R3nrTzSUlJa+/8cYbruLi4kEf3UN8Z8+aRX/8wx/oe9dcI8IZogUEAOc6eNtTC/1BBNmzZ4+w+LCo/+qrr4r0YUcT2wQhXDQth6YXpdKBikaqqGuh8horjcq20LSiXn5Ih4GBAGIR3377bbgSI18eHF0kkoEGTlar9+3btxcDxFjAlDSe0oq+S/FsoXQ3LRcJuMfhf7nbhmWJzqeHJm6Cf3bUYCrS67KSx1YrUrU5rHvI0YKynUeHJXOeKKfk9fqoqWINtdTuECEWsA7hdBMu8Dx/8sknnSaTCdOdqODQK71ZfhA8H1sdeayseePHj9cMesoz/kbz8vN4BBSd0V6n5TdrQq5YF0OHjwuoy8b/KPkixHRiJC0/Ps+i9NKkSZPo9ttvFzUAYfEeLfg87TY3rdtVRRNHJrMYppHZGL41j/IgjzzyiG/btm2f88j7ed40POvMSIYCZRUVFWlNTU0LLr/88kHP+ILgc4UqejNjQcuvkTQ6tvziOges3+qRgo2tKb/HzpZfDSk1CaSLgOWH9UusY2LdTq1LZIGaLUQqEsAyddvrqKUS5fYUlD7ue6Q1hj8oR3rIjz/+GBm+HDab7Ue8KSxVxtnqDY1Opzteq9W+y6Ms/dKlS0ObowfWGBHIesYZZ4S2BCmpbqX/fQRRV4S9BokA7jPnFdCcCeE5xsBD8k8vbKLMFDa1lQrMZnSLOHn8T2VdG12+ZAydNrd/mRu6AvPXMOUR+xep6Wa3x0c7DjXRf97bTVedPo6mjU4jlSqcSyAIavadc845SB13JZ//V3mTTGUmGUzOLiwsvPuWW26ZdN1116mRHzea2Jp3iuwsR1p2CNRurVoZsoTwe+rpNxXsUJRqPSXmnEBmtnzCsXAQ9G0te49c7aWHpf7qpnPiUbnf5+HmFVOHiXmniUD7SIBQDqQjQ+X5SE7ttlR8Qs0ly4QQZky8oU/TqStWrECGrMp33nkH2Vx+zS2sINDeLD/g9/l8VrfbPUqlUmXm5+cbEWYQaZDuC1H5mOZ79NFHxf0FCxaINT1ML4KK+g76cF05TR6TTWnJFkqMj6OkhO5bSpKZ9pQ0UnaqUTiBhINWraSsFBMVZllEG9lD63zOtNGpNL4gmSymyFmjWMfAj7nTyScSwPPT5fbSym3VwhkGybjDpaysDJ62bcuXL1/B1vATvKk+uEciGTSaMAguKSk544QTTqC0tPCthb7g89iorfoL4dGJdS+NPlGsQ3Vib95Drrb9pOGfqjmpgAymJG6JodsjWlyKWLdDsmu1Pikkpr1bZRBLrSmD9PGjyZA4rsemTxhLxqQJFJc2QziZaIypYq0tEqAvRqB+pF6vEzjQoMFT1pg8KezXh5Hwwgsv0IsvvriNjYXbeVPE+yWsDc5LTk7+4v777w94PB7u/yILm66Bbdu2BS688MKAWq0OzJgxI7BhwwaxvZNtBxsCP35kReBgnS9Q1RoIlFu7bxXcqtsCgTueWhd4e1Vx6BV6xu8P3eknR/v3feHAgQNfnRvuAMRtONQ22QJ3/2ttoLSWT04f4AsskJWVhXp9qClz9HOwEklkGMNty5133umsqqoKXa2RxeO0Bmp3/Tuw462zAiVr7gh0NG4P7QlirfgsULvjsUB76QuBgGM3t12BgL2b5twX8FlXB+q2PxxoOPBKwG2rC73KMID7IZ/Xxc0R2hA+HQ3b+Bz/K9Bc9mHA73OHtvbOSy+9FFi4cCGqHN8troY+EJ77YDC+Zk1TU9OGzz//vPWDDz4Ibo0gsHAmT55MixcvpvPPP19MeSYlJX1l9QHcg6GPNFxOd0BkM+m2uXEbEOm6DnuJHgn3ed1xtH8fLgjzePjhh0XyVox8Dz9HvYEQhsXTcynJHP6UxZdffomsCfba2tpt/BAB7Ug1JZHEAiih9cATTzxRxoPl4JYIg2lO5LqE5yHSlGkMXViYmA5EGi6vg8jDDbfdNBYI4UAy3EDNQXvTDrI1bhfWcl/QmrLInD6HjGy5Ys0yHBDX99xzz/lWrly5jB/22fOpr3NqpQcPHszs6OiYzBZaRKfkOkG+SSR5hgDCueZw9/56q12k4ZoxPucrZ5TugB4gng1hCLmpJirKDW/aM9apq6uj559/XlSCQHoxhEEUFBSE9vYOqlDkpsf1qY4fQhv++c9/rubz/Vt+WBvcKpHEBMjYv5+vzcVarTYvIyNDE+lSbHD20OgSxTSiOXWKcPg4nKAzSj1ptLrwwhBYADudUfTmvpUbilV8ng5qqfqcGva/INZA1YZksc4Ybi5TpDXD81EFI5zkAEiv+Oc//xnhDQho/y9v+iK4J3zCtfw62cft7V27dm344x//iLnP4NYwOPy5Pf0dUhbl5eWJ+32xaI4V4PyCmD+LxUI5OTn9SoaNQUG4/OMf//DzyArlPRA4iqD28L90iWRgcLtcrvv+85//7MXAEEWi+4Pf5ySPvZtkRdwha43cmavDXyc/lkCRXlR/UHGD4AlR79O54j5J9Eu9902w+OB8hzCXffv2wf/g3eCevtEf062CVTfQ0NBw8sSJEzVZWVlhBV9DyJCS7L333hMFZ6HciNM7suYeXJa7Ez1p+QXFD8KHKWF43vJ3EJEwiK6AZfmXv/wlsHXr1n/xBfckb5LJqyUxid/vr+b+wNzS0lLIfUpSX5LFe5zN5LDuJRtbLMjRqbd0N5PSdb8kLT/0t0oxPayLy+I2gkzJE6IW+gHnuzvvvNO9fv3611lHnuJN/ZqN6qv44dt3cUdYzyOt0fX19WMRkxZusDkCEaHWbE0I9Z46dSqlpobvgivFjz8TDzQQAzhu3DgRDwjhw3mItJWMdUW27rHet7K5ufkx3gSrP7IHkUgiS1lTU5Ohra1t6ty5c7Xct4RxvQaEGLXVrKb2mjXiPgrPIltLuJe7FL8gKo2RhS9bCGBfM7+Ei9VqRWED1yOPPLLb5/PdyZuQv7NfuTf7Ou3ZqTaV/CbuefXVVyveeOMNkXA6HFJSUig/P1+48CNjCVJ3wWFD0ncOT+h7pPDBqu6ME+wPPHqm999/P/D000+3V1dX/4k3bQzukVOekpgGzi/vsGWw+g9/+IMHM029oyCNPjm4jseWCqY+kcEk4B9+DikDRU/ChyrxyH/aX958883AE088cUir1aKG6FpuXRaqDYf+eqygE2zmVr9p06ZRWVlZ6bNnzxY7egJrVVjPGz16NN19993CWaMvFou0/MJj7dq1BI9cZGTp6zkGn376Kd1yyy1VLKD38kPMp8vpTslQoZIH1cU8ID8/ISHBhOs/vPy/AWHxJeacSHrLCP7NhN81SssvPPC5Wyo+FQnAtaZ0PhV9ixXkATlmDl0bNmx4jwf4v+JNRzUYPxp3TQyN9vObSGdLIVetVidMnTpVgcwssOy663CxXlVUVNQvRw0pfr2DKsbwBIWHJnKCLly4UFjc4SbFxgX26KOP1uzcufN9Pr8P86am4B6JZMjQ4nQ6q9avX3dqZlauZtz4SaTVqkXpIaXGyH3Dt38LKq1FeBsGS+v0bbAoxa93YFE3HHyVxe9j/h6qxPeAzx4uSPaPUnaffPLJ6/zd3sObYHwdFUcjfgDlvovZwkitrq6eyqMtNaLt4bSCOntdOWKgE+6vg0Ydi99WFr/5U/PJoFOK14LrfpdNrWSBVNDG3dWUnRJehhdoaR+NpG8Qzt9H+xgYdKDkU319vah3eMkllwiLOxwglk8++aRrOcMX2B95U1lwj0QypECUdBlfw3FZyb7RWRarMU5ZQS5brYjVQx7OIxG5ObvYHg5C/FyNpNPFkdaSzZ2cBnN/XTdkR/G5hfgpNJZjyPILiHAIh3WfyGxjSZ/Fg42U0L6egf/BHXfcAeH7lLXmb7xpfXDP0XEU3fDXsKU3mzvdX/v9/nPgZnzFFVfQT3/6U5o2bVroGZFhe3Ej/e217XTq/CLSadQigL0nYPl9uGY/nTorh85aUBja2jNtNjcdrGohv7/n1z6SvAwLpSaEt8jbyscoruRj9PL+Dwdf1Igwj3Ho0CHhCoxBCEo/hQME8/e//z0SxH5SUlICi69f7sMSSQxRsGR+2p1nLMq/6JwlE4yG+FGUOOoy4Y14VCPQI0DezY76NWxJeMiY0Jnft+vfNqZTva52am8pJWPSNErIPYk0YSRx9jibhOWK9GrhgmlFOKBoDWmkCCPeDtORbjuOgaIZ4dGXY6DKPXJ4qnQJIjF2OPF8EL6nnnoqcPfddyOWE1Od73Dr9zrf4UTsCuCOdg7fvOr1erNOPPFE5a9+9Ss6+eSTgzsjxAEWjKeW7Qw9Cg+Pz0/nLRxFx0/JCm3pGQjsn17YTEkWTN2GNvZCA1ukV5w2lk6dHZ4Zv/VAAz304hZKiu/bMZCM+pRZ/MMNA0wJw3ElMbFrixfrgbASYYU3NjaK+oHPP/98cVlZ2a28GzF9Eslw4Pjf3jzt1jMWj1yq1KcHiqZdqrCkTydFBOP12us2cqe+nOxs1bAahLb2AP82kaszacQSis9exJZQ77NSLZWfk7X0XXK0HhRelb0R8HuF/iYVnB1KbN27lQURby57l1ytxWJasjcgZmxiUFI+HyOfj6E/2qr6AeFoFPC7xfmxWluRt9N/8803l/DOu7i9yS2spNXhELnhDxHO1mKVSvX0jTfemHHTTTcJd/xIAkPJ1w/vUFRngBUYDtsONtC/3t1D1543h/Q6NflYPLsD4oHX/vdbG+j4yRl0ephVHbbsr6f/vr+Xrj1/jliL8PdyDAWO8eYGWjw1g06dE37lCAgg/r4rMH+OfaNGjRIhKA8++GBbQ0PDFbwL6csiMrKSSGKBJ+6ed1FZreeBTQcNKc88+7IpLT0jkv0eVIB/a/gN9222CEIZrmMNhMnZspMMRjNZUicEO8NuwPSt29FMzTVbSW0qEAIbTlUHa8Wn5GrZRUajhcyp43s9hsveRNbabaQxFZJFHCO8aczuwLqgs6WYbE3bKS55Ij329DK6748P7bNam//BuxHPF1HHu76GOvSEndtKn8/3/VdeeWXvE088gej74J4IgX68y/W9Xlq4wifg7xvP1mhUwqkGlc27a3gOboMC09cLXxH8+16OIRo/py8foZOuhA+CiBRpH330kcgP+utf/5oef/xxKwvfjbz7c25S+CTDiut+u+St9Tvqr926/cCXN//wlvb9+5GfPYJAxJRqbpq+tT54lAIeavNgm/8O64ZqbrjtomFdUakKvn5fuw0cQ3wWvFaPx9B9dYxI4XVa2cL9iJz1K2jt8r/Rjo3v7Wfh+xfv+je3iHucR1L8AEzSD7lz/cObb765+W9/+5soTTSk4KsFMob4Q6z7oR5gdw3PwW2QvqsTXr/zNXpqeE4fpbVbIIiIERwzZoyIA+Tvp+rQoUPwnkJy2PAn+yWSoQFf8ne7l68q/6SxseH+Dz/84EvMcmBNfOgRCFqYSIqNOETcdtm4v0CfwQPdvvcbncfg1uMxfOJ5OEak0OrjSGvKpd0HG+jD5WtqKsqLUZX9GW5R6ZciLX6Azww9W1ZW9uirr766Axbgnj17gnskMQEsP6RJM5vNFfzwn9z+zi1ic+kSSQyB3lmMTH0+H7wF//nss8+u5IF5y7ZtKFIiiRVq6lrprU/KAss+rTm0YUfTf8oq7Qhkj1oi/WiIH8AF90xtbe1vnn766UOPPfaYF3EaksEHWS/+/ve/B15//fXa8vJyhDP8gVv/Uy5IJLHP4ebJGy6X6x/PPffcyp/97Getu3fvFhmRJIMLawW9/Mprvh/+5I5Df392zeOfrqt+8FBVe2dp/KgQLfEDWAF+3+FwXMIX2l4kIl29enVwj2RQOHDgAN11111uHpBU1dfX/4A3YRFZrvFJjjXe83g8v1+1atWy888/34l6lcg1LBkcEGZ17733Eg9GSp1OB9IpYibKKnZ+c+ASUaIpfsDj9Xq3trS0XLpmzZp377777o7//ve/Ufswku5BurOf//znjuXLl29oamq6mEe7y3mzHPJKjlU28m/ggf379//jmmuu8T755JMi17Ak+hy+Trhu3TqkUqR///vfm/1+/2940/PcBiSdYrTFDyALzK7q6up7WQCf+uc//1mG1FvIQNJJJBdNJd+ko6OD/vWvf9EjjzxS9/nnn79cVlb2Gx6QrOFdshq75FgGnc5O7nueLC0t/dPjjz9eh1jXiHuCSr4FnO58Ph+hKMKf/vQnJNb40GazYfnlbW4D5nQXOT/V3qnhkdZBNnEVGzduTODHGQjARkmjcPNODgR1zXbacqCRZo7PIbWq9/yh+CKRP3REehyNzsHH6p3aJhttO9gUOoaSjxHa0QV4fRxnMx8jPyOORoV5DIBpTqSbe/jhhw9u2LABax2Y5vwyuFcikTCN3HbwYDzAA8MMu92enJSUpECZtljql4L5QxtIo9WHlz/Ug/yhtaTUJpDekh9WCjVnW8kRx+ipY1KSz2MXx1DxMXTiGOElDsD63rJly/w8KG/4gHE6nQ/w5g+4Dejc80B+u1i4LOZ2f3Nz81/uueeeClZ9H1uDMTnf3ik6wdseWuj5/QF/2+VrfqOFnhP8k7DAqAqebP/4xz98t956q/XgwYMQvfu4dZYmkkgkX4NpqN+x+P2WO+T1/JupW7Vqlb+trS3mZqWCPQF32+gYgj1I1y3Ud/QH9DedryFuu2niP9wNEzgWIaHGo48+6vjZz362j8/x69z3f493rQo+Y2AZSPHrvIownwsX1qXvvPPORz/60Y86HnroIXfMCCC/S3yfCIwPZobB/e5a8DlB+v4jwd/iQvvmax7Zgs/pC88++6z3hhtuwPrqFn6I5J6Pcvt6nlkikXwLHjS+6nA4Ll27du0rZ511Vhuqo5SXl4f2xgLcD6AvEA0C2H3rFLC+9Rwg+Hddvea3W+i5YQK/AyTav++++7Y3NDTcxVb2Tbx50GKL+35uIoeaW5rJZDovOTn5+xMmTJjGQkinn356cO8ggfRmyO2ZkxYfuoB6EzUFlde20GVLxvQhvVkDPfRSH49R10JXnNpz/lB4rSGxAP94DzY1NT3LI9dneXM1NxnKIJGETy63k3Jzc382ffr0SRdccEHgiiuuGMy+UqQ3s5a9T+6OUlLrLMGN3XUb3Kf4fW5uHkrMOz2U27P39GZIOm0t+4CPURbmMVzcvPz6Z/SYPxSZvrhf8nG/5Nm7d+8/Ozo6ELyOIEuHeMIgMahfaAhkdT2J21mnnXbaBQsWLIg744wziC86sXOgaWp10ub99X3KqoLx1fj8JMpNN4e29Exjq0MIYF+PMaEgmQXz24U5sbbHVjR98cUX3o8++ugdm82GxNTw5gynlLVEIvk26P3nxsfHn8UD89Pnz58/6pxzzqHjjjsuNGAdWNwd1eRoLSaPoyHsPkOp0pIxYTTpzHkiUXRvuDqqyNl6KGLHQEzxu+++i77Ju2nTpvdramre480fc8Py16Az2OJ3uNkznts1qampM0899dSpS5cuTZgxYwYVFBQE9w4AmN4/mus6nL8/2mMcTnV1NW3duhUFaJ1IJ8cX23be/F9u67jhvB5+fiUSSd9BOZgruZ1+2WWXTeOBuXnWrFmiVqZOpxNPkHwTePJjQL58+XLPiy++WMXW3krejKWuj8QTJN2yiNsrSUlJLT/96U87tm3bFmhpaQl4vd6AJBBgazHQ2toaOHjwYOCee+6x5+fnY878U27n4uRJJJKoMIXF7jm2BPewCLZwxx6wWq0Bl8sV+mUe26B/djgcgf379wf+8pe/eLlfquLztYLbtXzujoVqvREB1oqJOYUFcFlcXJzruuuuC7DZHDrNxzaHDh0K/OpXvwqkpKQELBbL59wu5fOFKRolTp5EIokK+H2hb1poMBiez8nJcZx//vkdH3/8sd/pdIZ+nccuGIzfddddnokTJ7alpaUd0Gg01/G5ysSJi1UiNAEXFTCngMqtU0aOHPkdFsFTxo0bZ77ooovozDPPPOamHHikSa+88gqtX7/ezT+2L/bu3QtnFoQulHIbkIwIEolE9Euo2jqOB+fnZ2dnXz1mzBjjkiVLCGuCiA88lli1ahW99NJLgR07dijKy8vXlpWVPev3+z/jXTXcWsSTYpRYFr9ONNymcpvF1uCcBUxubu5IrAfOmTOHeKRBWm3vJfqHIqiGgfQ/GzdupJKSkhq2fr+sq6tDkDrqsUD4pOhJJIPHJG7T9Xr9jGnTpi2exIwdO5bmzp1LWBdUq+HQPvwoLS3FIJw2b95MbPG1rVmz5uPq6mr0R2gIr2rC82KdoSB+hzOG25ncTigsLEw/5ZRTCmbPnp1SVFREPAKjjIwMMhgM4olDEcQ6IvsBHFn4osLF1cYW38Ht27fjYkIg6LvchmIhMolkOIPQCPRLC9kazF66dOl4HpinoGZmZmamaBZLKHRgCBIIBESfVFVVRWzZIYGG65NPPilZu3Ytqi6gYvk73FbguUOJoSZ+neB9L+H2HY1GMzcrK8t40UUXpSxevNgwfvx44gtQ1KuDRRjLoy9kYkHWA4gekupC8FasWOF69dVXm/bv32/j7Tv5aYiJQc47mYtTIol9FhmNxkvsdvui1NTUFBZCJQ/Sk+bNm6c0m81f9Uu4jVUQgoV+CcWuIXzId8pi53jnnXeav/zyS8QzbNDpdEiXiMF4lfijIchQFT+AvKRw40/ji+m4hISEc/gLO41HWInTpk3znXrqqTpMi06ZMoVUqoFMYRo+mNbE9MFHH33k4VGUv6mpycOf5WObzbaMfzyf81NQbBbfEZKDSySS2AedDZxj4rlNi4uLO4f7pLNZKLIQu3zSSScpeZCuwv1YFUCUGMJa3meffeZk0dM3Nze36fX6jY2Nja96vV7k4ESBWVSEQdm6IRtKNZTF73AQ+Y1FaESZj+IR16zMzMwF/IXN5mbIycmhyZMnCyEcNWqUaAMN0iQhr9327dtFO3ToEDmdTq/D4djS0NCwurq6GrF5e7khdAHTnLK+ikQytIGVhH4JqU9GsAhOzs3NPY4Fca5CoUjg+6JfmjRpEmGKtLCwcMD9F+rq6oRlh6K+iBnG7FNLSwsC+Xdzn7SiqqoK/dJBPJUb+qXOOntDnuEifoeDURfyjCE6HrfpLICZ48aNK8jLyytKTEzMMZlMhvj4eEJViZSUFOGhlZycLObl+cIUzWg0hjUy45EQsZVGbK2J8kFIhmu1WsVFxaIm7mNKs7293cP7qnhUdXDfvn3FfIEh7RjybcJbE62Em0xDJpEMX3K4jeQm+iXuXzKLioryuV/CgL3AbDabMDWakJAg+qW0tDRR9Qb9ErZzvyX6pXA83bGkwgPrr/ol7n++0S+xNSf6KjTeV1VZWbn/wIEDJfX19cgKBcsO3poQvUPc7NyGHcNR/LoCC9LjuI3lNpob4k8ggJr8/Pw4vvgS2FKMT0pKMvJFpueLTMtNCeeZznVDTJ12pjXChQXRw7w4W28QPz9fYB6+iFwsavba2to2tvSsJSUlHY2NjRA0TBFg5IS0PrDu9oTuy+wrEsmxC7LHYBqqs2/CYyP3O9qCggIT+qXs7OwE9EssgHoelGtZ/FTolyCAGJx39ktYm8NaXacfAfolFj4Enot+iYXPwcLXzv1Sc2lpaTv3UeiT4EcAaw6Db/gXwIEF/ZOP27DnWBG/rsCUBEZhiCXM5pbHQpfDF1IaX0SJfBGZ+RbPgfkHrxnM5eN8QbAw1411OA8/38ni2MG3Ldwa+MKr4guxjPdhIRgp4TFyGrTM5RKJZEjRGd+MDPYYtOdw/zKCWzr3R0k86Ea/BJd2zI8e3i8BiBYaSuQ4WRjtLJCt3B81uFyuzv4Ill1nv9TM7ZjlWBY/0Jm1ofP2yNbJ4fc7Odxq67zfKYy4PfK+RCKRhMPh/VFXfVMnh9/v5PC+pvP+kX2R7JckEolEIpFIJBKJRCKRSCQSiUQikUgkEolEIpFIJBKJRCKRSCQSiUQikUgkEolEIpFIJBKJRCKRSCQSiUQikUgkEolEIpFIJBKJRCKRSCQSiUQikUgkEolEIpFIJBKJRCKRDBhdFWCUSCQSiWT48aM/fpbz/T9/kBR6KJFIJINKIECK9947TRf4bJEa90ObJccIKJE/IAS0ge8bSHNS6GHMcdWdn+mve+IJTeihRCIZ5mz76HJjocoyc78rd8Kuzy8yhTbHDBDknS9fpJXiHB2iLn4Xvfyy6qaHV87RqFQXqdSqU79/7/L00K6Y4aKLXlYlJCuvMtjHzgttkkgkwxyjWplBCv2fSam8S+M2jgptjhnKV303QZegPe2gM2vWplcusoQ2SyJE9C2/XakGRcB718gRKeNyMxJP1hvUl4b2xAaBgCJhnjnN6/V9zxfwD4JlGji6ER2//9A9iUQSJlteOjPb56XvaLSWokDAf6LHY59d8u9F+tDumMDrVKX6Ferv+xSK8/QWXWposyRCRLXj/NFf1lp0Ss8VJpP2DyfMHmsuq24IbNhRsayNfDc/87OTqkmhCISeOmgsuvMz9cR432QKKD/AEoBKbbjl0R/PbQvtHhBueeSzs9xu34k2p9sR2tQjSoVSYTZpSRPwP/bwrSdXhTZLJJIwCLx8kWq7pu0KvTnnN2l5C/I89hp1W1P5cpe94f4JZ72+PPS0QWffB5dPYav0fX7He30+/23jT39uc2hX1ME52mfRneL1dEzz+zzxfr/HF9rVLUqlVq1QqhsDSs2nTab6bSecsMIb2hWTRFX8bnzgkyXxcfqHZ0zIGTVlTLa2rKaFvtxeUlzb2PZ0Y27TA69cfHGvJzTa3PnyTm1DZd0lAR89pFDQOo1K+Zu//PSEraHdA8IND3zyVG7ByO/H6wLkD/Q8HuD3SF5fgGqb2qnd2jz37z8/cV1ol0QiCYM97y9drFRZfpGePfa0+NxTyONsptriFZ725uKHdtle/vXFF9Og90tg1/uXHK8IKD5RKFX1FKDLx53+3OehXVFn/3s/0vmUzX9Wa/Q/yMpM03r9cIfovm9ScMekIhdVVNVYPd6OXzcamv7N4ucM7Y5Jojbt+YP735+u1SgvTow3FE0anaXVaFSUnhxH4wsyR2pV6u9n1GTEhOdnfXGpSUGKJTqN2qxRq8Z6A4EFoV0DhtPlbU8yBOi8Rfl09oKCHtvS4wvoxOnZ5HG0k83hiemRlUQSiwQCuu9ZkgtOMyRN5V5bRZq4HDJYMjRqrWn2GN25Z4WeNqjs/ODCJCUppmk0So1WTdnk9xew9AzgEscBCvhcdkvKGKsh4ySyjLyELAUXdtvMI79D6qQFZDTn1Ad8fle2gzu0GCcq4oepRL9feXFKUvz3500pUAtrxesns1FHmSlxlJpkiiO/97rv3/vWIDu/BBRKpWkkW1JnzpyUryvMyxrJQnTmTX97OS70hAEjwBYfpMzr9fFt1w37vN6AOJcC6ZsqkfSJPe9f+ht9XPpcg6WQtJZs/PCIfG6KTx1H5qRRJ6iUyh+Enjqo+Fze41Vqw42GhCKnQhPvUqrV5+xYduHC0O6BQaEkf8BPAT93TD5Pr008j0J90xAgKuI3OYF+MCIj6bzxo7LY2jMLkxidu98foESLgaYUZSVTQHmLx68fE/qTQeF7v/ugSKmhXxWNSDEW5SVTQaaZMpLjZrs7Ev9+/Z+X8y9j4OlpuIR9wf0xP6iSSGKKjRtnaPZ8cMF8v993riVtYoEldSz306HfEXfwGmMqWZJGkN6YWrjjnQvOR4hBcOfAs+Pt809lNblOrTUWJufO06YVnKRR68xLAr72G3a8d96s0NMGhrC7mqHXM0Vc/K5/cPl4pUJ5Tk5G/MhROQmkUn1tqfv8ftJq1JSbkaTOz01PS000nXfjQx8XhnZHi8OmCgKKi+58Oe6iO5eNuOLOd85PSDTdPjovdeGM8TmqhDg95aZbApPHZCdkp8af4ff677787ndPuZStU/6bQfshSCSSo0ddlZTj8yv/z5I6blxCcqFaoTVxd3DY0h5bOdq4bDKnFo0gv+cnAU3rgM5Klfz7Kv2mN8/J2vHW2d9XqtQ/jE8ZMzslZ7ZWH5emNCXmKzPzZxvNyWMWK3yBH+14+7xLt791dvpgCvRwIKJzyNf96bMUpd9/z8gRyUtnTRiROTI3kRzOb64dK9kKhAgWVzbRhp3lZZX1rb978hen/Cu0Oyrc+uDqNK/aOVal0mTrdSqDRq3JMehU56alJEwblZPkyk6L18EyVamUZHO4fMWVze7SmjZDa1v720635wu3x1fndPs6NH46YEkKHLj7mhMiupB79T0fPjx76uifnDG/gPhYoa1dg/fY0uag597bTE0d9pn//dWpm0K7JBJJF2x5Y2mC3mC5whiX8Nf0kaeQzpTJPZ+Kxe+IKToWQK+jmsp3vUFut+MaMnW8Nu64Ze2hvREH4qVMCMwjj3I0vxmdUmNIUauN1xvMGYlsnarikkdqiPtK4eXm91J78yF/S912h9PWUB7wO573ul2NAQq4FAF/8YSzXl8ZetmIsP+903RestyTmDn9yrTcqelKfYZ4D92i0pCrpZjqytfva23c+4Be5Xyu6IwPXKG9MUnELL+b/vZZnFYVOEmtUV41cXROJqY77Y5gRw6F7VRZeDMqlQoak59GSYnxeXqNetEP//TZ2NDuqOBVe2awtP0f3/2DVq3+eWK88QdTxuaMnTc5jzJSzDqIMd4X1tV0WrVqbH6aYeG0PCrMSZ5vNuiuVyuVv1Uq6T6/kq60d2hkijaJZAhh0JtO0erNPzYmFpFGnyxE7mur77DeiUVGqUkgS/o0n0ptutHbqp4c3BF5uLtRqFPVloBHcTsPyJ/kTvHPPDi/1ZRUmJYyYoE+KHx4j4GgSPN7NqeOUaYVLDYa4tJHKhTq/1MolH8x6NT/UijVdwdfVdIXIiZ+Kh9NNOi0D+ZlJCqarO1UUm2lemsHOVxeUrK1olKrhNWiYhXBGiC+07H5KZSfnXSGQhW4KvQyUcFhjFuu9ilu9Lr9P2jucDxcXtP86Yer9zS+vWIXVdRaxfAP70nN78/u9NCWvZWBVz7aSpv3VG2rb+74n83hud3r91/Fr/P7B364oEa8qEQiiXl2vHv2AqVGe6FKrR/p9znJZj1IzrYq8nnsQlC4cwo2YQnywFxjoqSMaSqlQjWdxWfB7o/PZbWMPNzdBMae8EKj3+2+1ubwnxAI+G/yujueaq3d2lF94F1vW/0uj3h/wWfze/NRS80WX+We190d1kMtXrf98YDfdy33Vwu8HmVsJQ4ZIkRM/Hxuf43L63ugrd3x8IGy+pc2767Y9MWmYuuHaw7QspUH6L1Ve2nlpmLafqCWKuo6qKnNQdmp8ZSZGp+i02hnfP+B5ZPvvDMQsfdzOP+8fqbnodsWVagU2lVWm+c1W4ftzlaH63oWvn+v3V6uLKuxCoeclnYn7TxY69h1qHaDtcN+cZvNfUuHz/5Ec6v9A6/Rsplfp5VFciit6UokxzRqpbLK7/G85nW13tfRVPJMU9WmdXWlK+pqDrxN1uJXqW7f61R38ENqr99E7rZD5HM0sDAFKC1vtjouoeAK8ihOCb1UVJh03lsVrsz41W6X+3Wvwvmw29221Nle9++Gsi9r68u+CJBKK8S5tWYtNZStKnE7m//scbvPVfn8f9EodW9NtCvXTV76Yl3o5SR9oHM28qhg4VDcddcuzQF9qUntVSapVKoUrUKZwWZemi/gT/B7fWaDQRNvMeqT40z6TKNOk6vTqtMtZpPF2u6msoraDrasXo9vXnjN3XcrBsxX9ur73ptl0ulvGJGZdOWJc4rUDVYHrdmyf1dds+03//zFyW+GnhZ15JqfRBIdsK7mN9pNKmfA4lN5UxRKY6ZSqUoLBFwJPp/PotaaLCqdJVmnM2eoNXHZSrU+S63RJhq0PnJ01FOr1fqMz2791bhzl1WHXjLqbH399CKlSvPjuMT8azIKT9F73O3UULG6rqO5+FmFjv465YwPKkNPjRrHwppfRMQvHL5z57IUrUaXo1IqRmhUygK1SlHo8fmztGqlWatRxwcUCnvAo7ilKqdm70Bmfrnpj59MILXijQXTCkc3NLc7dhZX//OpX576k9DuAQHiN2da0U/OPi6fxa9nwxLes9Y2Jz3z9kZqsrL4/VaKn0TSX+AM4yV3rob8WSqloVCp0Ywkvy/b7/Umaw0JZoVSdcDjanttwlmvvRX6kwFh+7Jz5+lNKb8zxo840eO0Kt3Oln/5HC0Pjz/7jZ2hp0QVIX4Byz3J2TOvTM2dlq4wZPYiflpyWw9QXdnafS2Ne6T4hcv1v1+erdapRiuUiskKT+D1R395QtRHNp3c+cRGo8vv/J3b67+JAooVSq3id3+64bg1od0DwjW///CRGZNH//jkWSOE0023wTL8bfHggVrbXfTKx9uorcM28ylp+UkkUWHzSxemauNokpoCujFnvPYB1ulCuwaE3e9fdqZKpXqDAn4FKQLnjlny3LuhXVEH4ucOWH6flDnlyrTsSWlKXRoFAt2LH1uq5GwtZctv04G25v1/lOIXLoGA4s67Plc1JzlUSc3rPHffffeATX2i5FJ2ZfoUL/nfVgTolUdvPWFArT7wwz9/+g9LcsYNPldHaEtvKMjr85PH7Zj9158s3hDaKJFIIgg8Mj//fJHKvH+MYub1//SENg8YBz+9doY/oHxXrVGX8cNbChf+fcDy+CK3p19pvT9AvmvizXpLOIkUdRoia6uj1uf3/bahvv7ZE66J7dyesSF+gwkL780PfJxJavVmPhvPPPazExESMaDc8sjno11eb77D5uRLTB3a2j1qfopJryd9vHrjg9ceF7U4JIlEMnjsXf79yWql6sVAILBLoVTdPeqExwdkyhPceeedysvmlBS4PB0ZCnLoPB5fr1avUqtVKkhtV2sUpS+tnVw3kEZMf5Dix9x052dxqgR6RknKD//y00VPhDYPFPgOjmI6BfX8pAeqRDLcKPns+nyP33erz+Par/L73yg647kBWw46FohKaMFQ4+93L7ZpVcqnlWrNl6FNA8lRCpcUPolkOOJs9TQp/P7n3U7HR23e1ubQZolEIpFIJJL+QPT/iGDsZyLD8eIAAAAASUVORK5CYII=;" vertex="1" parent="WIyWlLk6GJQsqaUBKTNV-1">
          <mxGeometry x="-317" y="490" width="447" height="483" as="geometry" />
        </mxCell>
        <mxCell id="ohnDTurre_5R8QuB-i_a-1" value="" style="shape=switch;whiteSpace=wrap;html=1;direction=south;rotation=-45;fillColor=#0050ef;fontColor=#ffffff;strokeColor=#001DBC;" vertex="1" parent="WIyWlLk6GJQsqaUBKTNV-1">
          <mxGeometry x="275" y="960" width="10" height="10" as="geometry" />
        </mxCell>
        <mxCell id="ohnDTurre_5R8QuB-i_a-2" value="" style="whiteSpace=wrap;html=1;aspect=fixed;fillColor=#0050ef;fontColor=#ffffff;strokeColor=#001DBC;" vertex="1" parent="WIyWlLk6GJQsqaUBKTNV-1">
          <mxGeometry x="310" y="960" width="10" height="10" as="geometry" />
        </mxCell>
        <mxCell id="ohnDTurre_5R8QuB-i_a-3" value="" style="triangle;whiteSpace=wrap;html=1;fillColor=#0050ef;fontColor=#ffffff;strokeColor=#001DBC;" vertex="1" parent="WIyWlLk6GJQsqaUBKTNV-1">
          <mxGeometry x="340" y="960" width="10" height="10" as="geometry" />
        </mxCell>
        <mxCell id="ohnDTurre_5R8QuB-i_a-28" value="" style="edgeStyle=orthogonalEdgeStyle;rounded=0;orthogonalLoop=1;jettySize=auto;html=1;" edge="1" parent="WIyWlLk6GJQsqaUBKTNV-1" source="ohnDTurre_5R8QuB-i_a-5" target="ohnDTurre_5R8QuB-i_a-27">
          <mxGeometry relative="1" as="geometry" />
        </mxCell>
        <mxCell id="ohnDTurre_5R8QuB-i_a-5" value="" style="ellipse;whiteSpace=wrap;html=1;aspect=fixed;" vertex="1" parent="WIyWlLk6GJQsqaUBKTNV-1">
          <mxGeometry x="240" y="490" width="150" height="150" as="geometry" />
        </mxCell>
        <mxCell id="ohnDTurre_5R8QuB-i_a-6" value="" style="shape=switch;whiteSpace=wrap;html=1;direction=south;rotation=-45;fillColor=#0050ef;fontColor=#ffffff;strokeColor=#001DBC;" vertex="1" parent="WIyWlLk6GJQsqaUBKTNV-1">
          <mxGeometry x="272.0710678118655" y="532.0710678118655" width="10" height="10" as="geometry" />
        </mxCell>
        <mxCell id="ohnDTurre_5R8QuB-i_a-7" value="" style="shape=switch;whiteSpace=wrap;html=1;direction=south;rotation=-45;fillColor=#0050ef;fontColor=#ffffff;strokeColor=#001DBC;" vertex="1" parent="WIyWlLk6GJQsqaUBKTNV-1">
          <mxGeometry x="302.0710678118655" y="522.0710678118655" width="10" height="10" as="geometry" />
        </mxCell>
        <mxCell id="ohnDTurre_5R8QuB-i_a-8" value="" style="shape=switch;whiteSpace=wrap;html=1;direction=south;rotation=-45;fillColor=#0050ef;fontColor=#ffffff;strokeColor=#001DBC;" vertex="1" parent="WIyWlLk6GJQsqaUBKTNV-1">
          <mxGeometry x="342.0710678118655" y="552.0710678118655" width="10" height="10" as="geometry" />
        </mxCell>
        <mxCell id="ohnDTurre_5R8QuB-i_a-9" value="" style="shape=switch;whiteSpace=wrap;html=1;direction=south;rotation=-45;fillColor=#0050ef;fontColor=#ffffff;strokeColor=#001DBC;" vertex="1" parent="WIyWlLk6GJQsqaUBKTNV-1">
          <mxGeometry x="312.0710678118655" y="572.0710678118655" width="10" height="10" as="geometry" />
        </mxCell>
        <mxCell id="ohnDTurre_5R8QuB-i_a-10" value="" style="shape=switch;whiteSpace=wrap;html=1;direction=south;rotation=-45;fillColor=#0050ef;fontColor=#ffffff;strokeColor=#001DBC;" vertex="1" parent="WIyWlLk6GJQsqaUBKTNV-1">
          <mxGeometry x="282.0710678118655" y="612.0710678118655" width="10" height="10" as="geometry" />
        </mxCell>
        <mxCell id="ohnDTurre_5R8QuB-i_a-11" value="" style="shape=switch;whiteSpace=wrap;html=1;direction=south;rotation=-45;fillColor=#0050ef;fontColor=#ffffff;strokeColor=#001DBC;" vertex="1" parent="WIyWlLk6GJQsqaUBKTNV-1">
          <mxGeometry x="272.0710678118655" y="572.0710678118655" width="10" height="10" as="geometry" />
        </mxCell>
        <mxCell id="ohnDTurre_5R8QuB-i_a-12" value="" style="shape=switch;whiteSpace=wrap;html=1;direction=south;rotation=-45;fillColor=#0050ef;fontColor=#ffffff;strokeColor=#001DBC;" vertex="1" parent="WIyWlLk6GJQsqaUBKTNV-1">
          <mxGeometry x="322.0710678118655" y="602.0710678118655" width="10" height="10" as="geometry" />
        </mxCell>
        <mxCell id="ohnDTurre_5R8QuB-i_a-13" value="" style="shape=switch;whiteSpace=wrap;html=1;direction=south;rotation=-45;fillColor=#0050ef;fontColor=#ffffff;strokeColor=#001DBC;" vertex="1" parent="WIyWlLk6GJQsqaUBKTNV-1">
          <mxGeometry x="362.0710678118655" y="582.0710678118655" width="10" height="10" as="geometry" />
        </mxCell>
        <mxCell id="ohnDTurre_5R8QuB-i_a-14" value="" style="whiteSpace=wrap;html=1;aspect=fixed;fillColor=#0050ef;fontColor=#ffffff;strokeColor=#001DBC;" vertex="1" parent="WIyWlLk6GJQsqaUBKTNV-1">
          <mxGeometry x="290" y="550" width="10" height="10" as="geometry" />
        </mxCell>
        <mxCell id="ohnDTurre_5R8QuB-i_a-15" value="" style="whiteSpace=wrap;html=1;aspect=fixed;fillColor=#0050ef;fontColor=#ffffff;strokeColor=#001DBC;" vertex="1" parent="WIyWlLk6GJQsqaUBKTNV-1">
          <mxGeometry x="320" y="540" width="10" height="10" as="geometry" />
        </mxCell>
        <mxCell id="ohnDTurre_5R8QuB-i_a-16" value="" style="whiteSpace=wrap;html=1;aspect=fixed;fillColor=#0050ef;fontColor=#ffffff;strokeColor=#001DBC;" vertex="1" parent="WIyWlLk6GJQsqaUBKTNV-1">
          <mxGeometry x="340" y="510" width="10" height="10" as="geometry" />
        </mxCell>
        <mxCell id="ohnDTurre_5R8QuB-i_a-17" value="" style="whiteSpace=wrap;html=1;aspect=fixed;fillColor=#0050ef;fontColor=#ffffff;strokeColor=#001DBC;" vertex="1" parent="WIyWlLk6GJQsqaUBKTNV-1">
          <mxGeometry x="290" y="510" width="10" height="10" as="geometry" />
        </mxCell>
        <mxCell id="ohnDTurre_5R8QuB-i_a-18" value="" style="whiteSpace=wrap;html=1;aspect=fixed;fillColor=#0050ef;fontColor=#ffffff;strokeColor=#001DBC;" vertex="1" parent="WIyWlLk6GJQsqaUBKTNV-1">
          <mxGeometry x="290" y="590" width="10" height="10" as="geometry" />
        </mxCell>
        <mxCell id="ohnDTurre_5R8QuB-i_a-19" value="" style="whiteSpace=wrap;html=1;aspect=fixed;fillColor=#0050ef;fontColor=#ffffff;strokeColor=#001DBC;" vertex="1" parent="WIyWlLk6GJQsqaUBKTNV-1">
          <mxGeometry x="320" y="620" width="10" height="10" as="geometry" />
        </mxCell>
        <mxCell id="ohnDTurre_5R8QuB-i_a-20" value="" style="whiteSpace=wrap;html=1;aspect=fixed;fillColor=#0050ef;fontColor=#ffffff;strokeColor=#001DBC;" vertex="1" parent="WIyWlLk6GJQsqaUBKTNV-1">
          <mxGeometry x="340" y="580" width="10" height="10" as="geometry" />
        </mxCell>
        <mxCell id="ohnDTurre_5R8QuB-i_a-21" value="" style="triangle;whiteSpace=wrap;html=1;fillColor=#0050ef;fontColor=#ffffff;strokeColor=#001DBC;" vertex="1" parent="WIyWlLk6GJQsqaUBKTNV-1">
          <mxGeometry x="360" y="530" width="10" height="10" as="geometry" />
        </mxCell>
        <mxCell id="ohnDTurre_5R8QuB-i_a-22" value="" style="triangle;whiteSpace=wrap;html=1;fillColor=#0050ef;fontColor=#ffffff;strokeColor=#001DBC;" vertex="1" parent="WIyWlLk6GJQsqaUBKTNV-1">
          <mxGeometry x="370" y="560" width="10" height="10" as="geometry" />
        </mxCell>
        <mxCell id="ohnDTurre_5R8QuB-i_a-23" value="" style="triangle;whiteSpace=wrap;html=1;fillColor=#0050ef;fontColor=#ffffff;strokeColor=#001DBC;" vertex="1" parent="WIyWlLk6GJQsqaUBKTNV-1">
          <mxGeometry x="250" y="560" width="10" height="10" as="geometry" />
        </mxCell>
        <mxCell id="ohnDTurre_5R8QuB-i_a-24" value="" style="triangle;whiteSpace=wrap;html=1;fillColor=#0050ef;fontColor=#ffffff;strokeColor=#001DBC;" vertex="1" parent="WIyWlLk6GJQsqaUBKTNV-1">
          <mxGeometry x="320" y="560" width="10" height="10" as="geometry" />
        </mxCell>
        <mxCell id="ohnDTurre_5R8QuB-i_a-25" value="" style="triangle;whiteSpace=wrap;html=1;fillColor=#0050ef;fontColor=#ffffff;strokeColor=#001DBC;" vertex="1" parent="WIyWlLk6GJQsqaUBKTNV-1">
          <mxGeometry x="270" y="600" width="10" height="10" as="geometry" />
        </mxCell>
        <mxCell id="ohnDTurre_5R8QuB-i_a-26" value="" style="triangle;whiteSpace=wrap;html=1;fillColor=#0050ef;fontColor=#ffffff;strokeColor=#001DBC;" vertex="1" parent="WIyWlLk6GJQsqaUBKTNV-1">
          <mxGeometry x="350" y="610" width="10" height="10" as="geometry" />
        </mxCell>
        <mxCell id="ohnDTurre_5R8QuB-i_a-30" value="" style="edgeStyle=orthogonalEdgeStyle;rounded=0;orthogonalLoop=1;jettySize=auto;html=1;" edge="1" parent="WIyWlLk6GJQsqaUBKTNV-1" source="ohnDTurre_5R8QuB-i_a-27" target="ohnDTurre_5R8QuB-i_a-29">
          <mxGeometry relative="1" as="geometry" />
        </mxCell>
        <mxCell id="ohnDTurre_5R8QuB-i_a-54" style="edgeStyle=orthogonalEdgeStyle;rounded=0;orthogonalLoop=1;jettySize=auto;html=1;exitX=0.75;exitY=1;exitDx=0;exitDy=0;entryX=0;entryY=0.5;entryDx=0;entryDy=0;" edge="1" parent="WIyWlLk6GJQsqaUBKTNV-1" source="ohnDTurre_5R8QuB-i_a-27" target="ohnDTurre_5R8QuB-i_a-53">
          <mxGeometry relative="1" as="geometry" />
        </mxCell>
        <mxCell id="ohnDTurre_5R8QuB-i_a-27" value="&lt;font style=&quot;font-size: 15px;&quot;&gt;&lt;b&gt;Model A&lt;/b&gt;&lt;/font&gt;" style="rounded=1;whiteSpace=wrap;html=1;fillColor=#0050ef;fontColor=#ffffff;strokeColor=#001DBC;" vertex="1" parent="WIyWlLk6GJQsqaUBKTNV-1">
          <mxGeometry x="255" y="690" width="120" height="40" as="geometry" />
        </mxCell>
        <mxCell id="ohnDTurre_5R8QuB-i_a-29" value="" style="ellipse;whiteSpace=wrap;html=1;aspect=fixed;" vertex="1" parent="WIyWlLk6GJQsqaUBKTNV-1">
          <mxGeometry x="240" y="770" width="150" height="150" as="geometry" />
        </mxCell>
        <mxCell id="ohnDTurre_5R8QuB-i_a-31" value="" style="shape=switch;whiteSpace=wrap;html=1;direction=south;rotation=-45;fillColor=#0050ef;fontColor=#ffffff;strokeColor=#001DBC;" vertex="1" parent="WIyWlLk6GJQsqaUBKTNV-1">
          <mxGeometry x="332.0710678118655" y="792.0710678118655" width="10" height="10" as="geometry" />
        </mxCell>
        <mxCell id="ohnDTurre_5R8QuB-i_a-32" value="" style="shape=switch;whiteSpace=wrap;html=1;direction=south;rotation=-45;fillColor=#0050ef;fontColor=#ffffff;strokeColor=#001DBC;" vertex="1" parent="WIyWlLk6GJQsqaUBKTNV-1">
          <mxGeometry x="352.0710678118655" y="812.0710678118655" width="10" height="10" as="geometry" />
        </mxCell>
        <mxCell id="ohnDTurre_5R8QuB-i_a-33" value="" style="shape=switch;whiteSpace=wrap;html=1;direction=south;rotation=-45;fillColor=#0050ef;fontColor=#ffffff;strokeColor=#001DBC;" vertex="1" parent="WIyWlLk6GJQsqaUBKTNV-1">
          <mxGeometry x="342.0710678118655" y="822.0710678118655" width="10" height="10" as="geometry" />
        </mxCell>
        <mxCell id="ohnDTurre_5R8QuB-i_a-34" value="" style="shape=switch;whiteSpace=wrap;html=1;direction=south;rotation=-45;fillColor=#0050ef;fontColor=#ffffff;strokeColor=#001DBC;" vertex="1" parent="WIyWlLk6GJQsqaUBKTNV-1">
          <mxGeometry x="372.0710678118655" y="832.0710678118655" width="10" height="10" as="geometry" />
        </mxCell>
        <mxCell id="ohnDTurre_5R8QuB-i_a-35" value="" style="shape=switch;whiteSpace=wrap;html=1;direction=south;rotation=-45;fillColor=#0050ef;fontColor=#ffffff;strokeColor=#001DBC;" vertex="1" parent="WIyWlLk6GJQsqaUBKTNV-1">
          <mxGeometry x="352.0710678118655" y="842.0710678118655" width="10" height="10" as="geometry" />
        </mxCell>
        <mxCell id="ohnDTurre_5R8QuB-i_a-37" value="" style="shape=switch;whiteSpace=wrap;html=1;direction=south;rotation=-45;fillColor=#0050ef;fontColor=#ffffff;strokeColor=#001DBC;" vertex="1" parent="WIyWlLk6GJQsqaUBKTNV-1">
          <mxGeometry x="342.0710678118655" y="852.0710678118655" width="10" height="10" as="geometry" />
        </mxCell>
        <mxCell id="ohnDTurre_5R8QuB-i_a-38" value="" style="triangle;whiteSpace=wrap;html=1;fillColor=#0050ef;fontColor=#ffffff;strokeColor=#001DBC;" vertex="1" parent="WIyWlLk6GJQsqaUBKTNV-1">
          <mxGeometry x="290" y="800" width="10" height="10" as="geometry" />
        </mxCell>
        <mxCell id="ohnDTurre_5R8QuB-i_a-39" value="" style="triangle;whiteSpace=wrap;html=1;fillColor=#0050ef;fontColor=#ffffff;strokeColor=#001DBC;" vertex="1" parent="WIyWlLk6GJQsqaUBKTNV-1">
          <mxGeometry x="300" y="820" width="10" height="10" as="geometry" />
        </mxCell>
        <mxCell id="ohnDTurre_5R8QuB-i_a-40" value="" style="triangle;whiteSpace=wrap;html=1;fillColor=#0050ef;fontColor=#ffffff;strokeColor=#001DBC;" vertex="1" parent="WIyWlLk6GJQsqaUBKTNV-1">
          <mxGeometry x="280" y="820" width="10" height="10" as="geometry" />
        </mxCell>
        <mxCell id="ohnDTurre_5R8QuB-i_a-41" value="" style="triangle;whiteSpace=wrap;html=1;fillColor=#0050ef;fontColor=#ffffff;strokeColor=#001DBC;" vertex="1" parent="WIyWlLk6GJQsqaUBKTNV-1">
          <mxGeometry x="270" y="810" width="10" height="10" as="geometry" />
        </mxCell>
        <mxCell id="ohnDTurre_5R8QuB-i_a-42" value="" style="triangle;whiteSpace=wrap;html=1;fillColor=#0050ef;fontColor=#ffffff;strokeColor=#001DBC;" vertex="1" parent="WIyWlLk6GJQsqaUBKTNV-1">
          <mxGeometry x="270" y="850" width="10" height="10" as="geometry" />
        </mxCell>
        <mxCell id="ohnDTurre_5R8QuB-i_a-43" value="" style="triangle;whiteSpace=wrap;html=1;fillColor=#0050ef;fontColor=#ffffff;strokeColor=#001DBC;" vertex="1" parent="WIyWlLk6GJQsqaUBKTNV-1">
          <mxGeometry x="260" y="840" width="10" height="10" as="geometry" />
        </mxCell>
        <mxCell id="ohnDTurre_5R8QuB-i_a-44" value="" style="whiteSpace=wrap;html=1;aspect=fixed;fillColor=#0050ef;fontColor=#ffffff;strokeColor=#001DBC;" vertex="1" parent="WIyWlLk6GJQsqaUBKTNV-1">
          <mxGeometry x="292.07" y="880" width="10" height="10" as="geometry" />
        </mxCell>
        <mxCell id="ohnDTurre_5R8QuB-i_a-45" value="" style="whiteSpace=wrap;html=1;aspect=fixed;fillColor=#0050ef;fontColor=#ffffff;strokeColor=#001DBC;" vertex="1" parent="WIyWlLk6GJQsqaUBKTNV-1">
          <mxGeometry x="320" y="890" width="10" height="10" as="geometry" />
        </mxCell>
        <mxCell id="ohnDTurre_5R8QuB-i_a-46" value="" style="whiteSpace=wrap;html=1;aspect=fixed;fillColor=#0050ef;fontColor=#ffffff;strokeColor=#001DBC;" vertex="1" parent="WIyWlLk6GJQsqaUBKTNV-1">
          <mxGeometry x="280" y="890" width="10" height="10" as="geometry" />
        </mxCell>
        <mxCell id="ohnDTurre_5R8QuB-i_a-47" value="" style="whiteSpace=wrap;html=1;aspect=fixed;fillColor=#0050ef;fontColor=#ffffff;strokeColor=#001DBC;" vertex="1" parent="WIyWlLk6GJQsqaUBKTNV-1">
          <mxGeometry x="302.07" y="900" width="10" height="10" as="geometry" />
        </mxCell>
        <mxCell id="ohnDTurre_5R8QuB-i_a-48" value="" style="whiteSpace=wrap;html=1;aspect=fixed;fillColor=#0050ef;fontColor=#ffffff;strokeColor=#001DBC;" vertex="1" parent="WIyWlLk6GJQsqaUBKTNV-1">
          <mxGeometry x="340" y="900" width="10" height="10" as="geometry" />
        </mxCell>
        <mxCell id="ohnDTurre_5R8QuB-i_a-49" value="" style="whiteSpace=wrap;html=1;aspect=fixed;fillColor=#0050ef;fontColor=#ffffff;strokeColor=#001DBC;" vertex="1" parent="WIyWlLk6GJQsqaUBKTNV-1">
          <mxGeometry x="312.07" y="870" width="10" height="10" as="geometry" />
        </mxCell>
        <mxCell id="ohnDTurre_5R8QuB-i_a-200" style="edgeStyle=orthogonalEdgeStyle;rounded=0;orthogonalLoop=1;jettySize=auto;html=1;exitX=1;exitY=0.5;exitDx=0;exitDy=0;entryX=0.25;entryY=1;entryDx=0;entryDy=0;" edge="1" parent="WIyWlLk6GJQsqaUBKTNV-1" source="ohnDTurre_5R8QuB-i_a-53" target="ohnDTurre_5R8QuB-i_a-178">
          <mxGeometry relative="1" as="geometry" />
        </mxCell>
        <mxCell id="ohnDTurre_5R8QuB-i_a-53" value="&lt;font style=&quot;font-size: 15px;&quot;&gt;&lt;b&gt;Knowledge&lt;/b&gt;&lt;/font&gt;" style="rounded=1;whiteSpace=wrap;html=1;" vertex="1" parent="WIyWlLk6GJQsqaUBKTNV-1">
          <mxGeometry x="430" y="740" width="120" height="37.93" as="geometry" />
        </mxCell>
        <mxCell id="ohnDTurre_5R8QuB-i_a-149" value="" style="endArrow=none;dashed=1;html=1;rounded=0;entryX=0.5;entryY=0;entryDx=0;entryDy=0;exitX=0;exitY=1;exitDx=0;exitDy=0;curved=1;strokeWidth=3;fillColor=#0050ef;strokeColor=#001DBC;" edge="1" parent="WIyWlLk6GJQsqaUBKTNV-1" source="ohnDTurre_5R8QuB-i_a-29" target="ohnDTurre_5R8QuB-i_a-29">
          <mxGeometry width="50" height="50" relative="1" as="geometry">
            <mxPoint x="430" y="790" as="sourcePoint" />
            <mxPoint x="480" y="740" as="targetPoint" />
            <Array as="points">
              <mxPoint x="330" y="860" />
            </Array>
          </mxGeometry>
        </mxCell>
        <mxCell id="ohnDTurre_5R8QuB-i_a-150" value="" style="endArrow=none;dashed=1;html=1;rounded=0;exitX=0.5;exitY=0;exitDx=0;exitDy=0;entryX=1;entryY=1;entryDx=0;entryDy=0;curved=1;strokeWidth=3;fillColor=#0050ef;strokeColor=#001DBC;" edge="1" parent="WIyWlLk6GJQsqaUBKTNV-1" source="ohnDTurre_5R8QuB-i_a-29" target="ohnDTurre_5R8QuB-i_a-29">
          <mxGeometry width="50" height="50" relative="1" as="geometry">
            <mxPoint x="430" y="790" as="sourcePoint" />
            <mxPoint x="480" y="740" as="targetPoint" />
            <Array as="points">
              <mxPoint x="315" y="860" />
            </Array>
          </mxGeometry>
        </mxCell>
        <mxCell id="ohnDTurre_5R8QuB-i_a-151" value="" style="shape=switch;whiteSpace=wrap;html=1;direction=south;rotation=-45;fillColor=#d80073;fontColor=#ffffff;strokeColor=#A50040;" vertex="1" parent="WIyWlLk6GJQsqaUBKTNV-1">
          <mxGeometry x="635" y="960" width="10" height="10" as="geometry" />
        </mxCell>
        <mxCell id="ohnDTurre_5R8QuB-i_a-152" value="" style="whiteSpace=wrap;html=1;aspect=fixed;fillColor=#d80073;fontColor=#ffffff;strokeColor=#A50040;" vertex="1" parent="WIyWlLk6GJQsqaUBKTNV-1">
          <mxGeometry x="670" y="960" width="10" height="10" as="geometry" />
        </mxCell>
        <mxCell id="ohnDTurre_5R8QuB-i_a-153" value="" style="triangle;whiteSpace=wrap;html=1;fillColor=#d80073;fontColor=#ffffff;strokeColor=#A50040;" vertex="1" parent="WIyWlLk6GJQsqaUBKTNV-1">
          <mxGeometry x="700" y="960" width="10" height="10" as="geometry" />
        </mxCell>
        <mxCell id="ohnDTurre_5R8QuB-i_a-154" value="" style="edgeStyle=orthogonalEdgeStyle;rounded=0;orthogonalLoop=1;jettySize=auto;html=1;" edge="1" parent="WIyWlLk6GJQsqaUBKTNV-1" source="ohnDTurre_5R8QuB-i_a-155" target="ohnDTurre_5R8QuB-i_a-178">
          <mxGeometry relative="1" as="geometry" />
        </mxCell>
        <mxCell id="ohnDTurre_5R8QuB-i_a-155" value="" style="ellipse;whiteSpace=wrap;html=1;aspect=fixed;" vertex="1" parent="WIyWlLk6GJQsqaUBKTNV-1">
          <mxGeometry x="600" y="490" width="150" height="150" as="geometry" />
        </mxCell>
        <mxCell id="ohnDTurre_5R8QuB-i_a-156" value="" style="shape=switch;whiteSpace=wrap;html=1;direction=south;rotation=-45;fillColor=#d80073;fontColor=#ffffff;strokeColor=#A50040;" vertex="1" parent="WIyWlLk6GJQsqaUBKTNV-1">
          <mxGeometry x="632.0710678118655" y="532.0710678118655" width="10" height="10" as="geometry" />
        </mxCell>
        <mxCell id="ohnDTurre_5R8QuB-i_a-157" value="" style="shape=switch;whiteSpace=wrap;html=1;direction=south;rotation=-45;fillColor=#d80073;fontColor=#ffffff;strokeColor=#A50040;" vertex="1" parent="WIyWlLk6GJQsqaUBKTNV-1">
          <mxGeometry x="662.0710678118655" y="522.0710678118655" width="10" height="10" as="geometry" />
        </mxCell>
        <mxCell id="ohnDTurre_5R8QuB-i_a-158" value="" style="shape=switch;whiteSpace=wrap;html=1;direction=south;rotation=-45;fillColor=#d80073;fontColor=#ffffff;strokeColor=#A50040;" vertex="1" parent="WIyWlLk6GJQsqaUBKTNV-1">
          <mxGeometry x="702.0710678118655" y="552.0710678118655" width="10" height="10" as="geometry" />
        </mxCell>
        <mxCell id="ohnDTurre_5R8QuB-i_a-159" value="" style="shape=switch;whiteSpace=wrap;html=1;direction=south;rotation=-45;fillColor=#d80073;fontColor=#ffffff;strokeColor=#A50040;" vertex="1" parent="WIyWlLk6GJQsqaUBKTNV-1">
          <mxGeometry x="672.0710678118655" y="572.0710678118655" width="10" height="10" as="geometry" />
        </mxCell>
        <mxCell id="ohnDTurre_5R8QuB-i_a-160" value="" style="shape=switch;whiteSpace=wrap;html=1;direction=south;rotation=-45;fillColor=#d80073;fontColor=#ffffff;strokeColor=#A50040;" vertex="1" parent="WIyWlLk6GJQsqaUBKTNV-1">
          <mxGeometry x="642.0710678118655" y="612.0710678118655" width="10" height="10" as="geometry" />
        </mxCell>
        <mxCell id="ohnDTurre_5R8QuB-i_a-161" value="" style="shape=switch;whiteSpace=wrap;html=1;direction=south;rotation=-45;fillColor=#d80073;fontColor=#ffffff;strokeColor=#A50040;" vertex="1" parent="WIyWlLk6GJQsqaUBKTNV-1">
          <mxGeometry x="632.0710678118655" y="572.0710678118655" width="10" height="10" as="geometry" />
        </mxCell>
        <mxCell id="ohnDTurre_5R8QuB-i_a-162" value="" style="shape=switch;whiteSpace=wrap;html=1;direction=south;rotation=-45;fillColor=#d80073;fontColor=#ffffff;strokeColor=#A50040;" vertex="1" parent="WIyWlLk6GJQsqaUBKTNV-1">
          <mxGeometry x="682.0710678118655" y="602.0710678118655" width="10" height="10" as="geometry" />
        </mxCell>
        <mxCell id="ohnDTurre_5R8QuB-i_a-163" value="" style="shape=switch;whiteSpace=wrap;html=1;direction=south;rotation=-45;fillColor=#d80073;fontColor=#ffffff;strokeColor=#A50040;" vertex="1" parent="WIyWlLk6GJQsqaUBKTNV-1">
          <mxGeometry x="722.0710678118655" y="582.0710678118655" width="10" height="10" as="geometry" />
        </mxCell>
        <mxCell id="ohnDTurre_5R8QuB-i_a-164" value="" style="whiteSpace=wrap;html=1;aspect=fixed;fillColor=#d80073;fontColor=#ffffff;strokeColor=#A50040;" vertex="1" parent="WIyWlLk6GJQsqaUBKTNV-1">
          <mxGeometry x="650" y="550" width="10" height="10" as="geometry" />
        </mxCell>
        <mxCell id="ohnDTurre_5R8QuB-i_a-165" value="" style="whiteSpace=wrap;html=1;aspect=fixed;fillColor=#d80073;fontColor=#ffffff;strokeColor=#A50040;" vertex="1" parent="WIyWlLk6GJQsqaUBKTNV-1">
          <mxGeometry x="680" y="540" width="10" height="10" as="geometry" />
        </mxCell>
        <mxCell id="ohnDTurre_5R8QuB-i_a-166" value="" style="whiteSpace=wrap;html=1;aspect=fixed;fillColor=#d80073;fontColor=#ffffff;strokeColor=#A50040;" vertex="1" parent="WIyWlLk6GJQsqaUBKTNV-1">
          <mxGeometry x="700" y="510" width="10" height="10" as="geometry" />
        </mxCell>
        <mxCell id="ohnDTurre_5R8QuB-i_a-167" value="" style="whiteSpace=wrap;html=1;aspect=fixed;fillColor=#d80073;fontColor=#ffffff;strokeColor=#A50040;" vertex="1" parent="WIyWlLk6GJQsqaUBKTNV-1">
          <mxGeometry x="650" y="510" width="10" height="10" as="geometry" />
        </mxCell>
        <mxCell id="ohnDTurre_5R8QuB-i_a-168" value="" style="whiteSpace=wrap;html=1;aspect=fixed;fillColor=#d80073;fontColor=#ffffff;strokeColor=#A50040;" vertex="1" parent="WIyWlLk6GJQsqaUBKTNV-1">
          <mxGeometry x="650" y="590" width="10" height="10" as="geometry" />
        </mxCell>
        <mxCell id="ohnDTurre_5R8QuB-i_a-169" value="" style="whiteSpace=wrap;html=1;aspect=fixed;fillColor=#d80073;fontColor=#ffffff;strokeColor=#A50040;" vertex="1" parent="WIyWlLk6GJQsqaUBKTNV-1">
          <mxGeometry x="680" y="620" width="10" height="10" as="geometry" />
        </mxCell>
        <mxCell id="ohnDTurre_5R8QuB-i_a-170" value="" style="whiteSpace=wrap;html=1;aspect=fixed;fillColor=#d80073;fontColor=#ffffff;strokeColor=#A50040;" vertex="1" parent="WIyWlLk6GJQsqaUBKTNV-1">
          <mxGeometry x="700" y="580" width="10" height="10" as="geometry" />
        </mxCell>
        <mxCell id="ohnDTurre_5R8QuB-i_a-171" value="" style="triangle;whiteSpace=wrap;html=1;fillColor=#d80073;fontColor=#ffffff;strokeColor=#A50040;" vertex="1" parent="WIyWlLk6GJQsqaUBKTNV-1">
          <mxGeometry x="720" y="530" width="10" height="10" as="geometry" />
        </mxCell>
        <mxCell id="ohnDTurre_5R8QuB-i_a-172" value="" style="triangle;whiteSpace=wrap;html=1;fillColor=#d80073;fontColor=#ffffff;strokeColor=#A50040;" vertex="1" parent="WIyWlLk6GJQsqaUBKTNV-1">
          <mxGeometry x="730" y="560" width="10" height="10" as="geometry" />
        </mxCell>
        <mxCell id="ohnDTurre_5R8QuB-i_a-173" value="" style="triangle;whiteSpace=wrap;html=1;fillColor=#d80073;fontColor=#ffffff;strokeColor=#A50040;" vertex="1" parent="WIyWlLk6GJQsqaUBKTNV-1">
          <mxGeometry x="610" y="560" width="10" height="10" as="geometry" />
        </mxCell>
        <mxCell id="ohnDTurre_5R8QuB-i_a-174" value="" style="triangle;whiteSpace=wrap;html=1;fillColor=#d80073;fontColor=#ffffff;strokeColor=#A50040;" vertex="1" parent="WIyWlLk6GJQsqaUBKTNV-1">
          <mxGeometry x="680" y="560" width="10" height="10" as="geometry" />
        </mxCell>
        <mxCell id="ohnDTurre_5R8QuB-i_a-175" value="" style="triangle;whiteSpace=wrap;html=1;fillColor=#d80073;fontColor=#ffffff;strokeColor=#A50040;" vertex="1" parent="WIyWlLk6GJQsqaUBKTNV-1">
          <mxGeometry x="630" y="600" width="10" height="10" as="geometry" />
        </mxCell>
        <mxCell id="ohnDTurre_5R8QuB-i_a-176" value="" style="triangle;whiteSpace=wrap;html=1;fillColor=#d80073;fontColor=#ffffff;strokeColor=#A50040;" vertex="1" parent="WIyWlLk6GJQsqaUBKTNV-1">
          <mxGeometry x="710" y="610" width="10" height="10" as="geometry" />
        </mxCell>
        <mxCell id="ohnDTurre_5R8QuB-i_a-177" value="" style="edgeStyle=orthogonalEdgeStyle;rounded=0;orthogonalLoop=1;jettySize=auto;html=1;" edge="1" parent="WIyWlLk6GJQsqaUBKTNV-1" source="ohnDTurre_5R8QuB-i_a-178" target="ohnDTurre_5R8QuB-i_a-179">
          <mxGeometry relative="1" as="geometry" />
        </mxCell>
        <mxCell id="ohnDTurre_5R8QuB-i_a-178" value="&lt;font style=&quot;font-size: 15px;&quot;&gt;&lt;b&gt;Model B&lt;/b&gt;&lt;/font&gt;" style="rounded=1;whiteSpace=wrap;html=1;fillColor=#d80073;fontColor=#ffffff;strokeColor=#A50040;" vertex="1" parent="WIyWlLk6GJQsqaUBKTNV-1">
          <mxGeometry x="615" y="690" width="120" height="40" as="geometry" />
        </mxCell>
        <mxCell id="ohnDTurre_5R8QuB-i_a-179" value="" style="ellipse;whiteSpace=wrap;html=1;aspect=fixed;" vertex="1" parent="WIyWlLk6GJQsqaUBKTNV-1">
          <mxGeometry x="600" y="770" width="150" height="150" as="geometry" />
        </mxCell>
        <mxCell id="ohnDTurre_5R8QuB-i_a-180" value="" style="shape=switch;whiteSpace=wrap;html=1;direction=south;rotation=-45;fillColor=#d80073;fontColor=#ffffff;strokeColor=#A50040;" vertex="1" parent="WIyWlLk6GJQsqaUBKTNV-1">
          <mxGeometry x="692.0710678118655" y="792.0710678118655" width="10" height="10" as="geometry" />
        </mxCell>
        <mxCell id="ohnDTurre_5R8QuB-i_a-181" value="" style="shape=switch;whiteSpace=wrap;html=1;direction=south;rotation=-45;fillColor=#d80073;fontColor=#ffffff;strokeColor=#A50040;" vertex="1" parent="WIyWlLk6GJQsqaUBKTNV-1">
          <mxGeometry x="712.0710678118655" y="812.0710678118655" width="10" height="10" as="geometry" />
        </mxCell>
        <mxCell id="ohnDTurre_5R8QuB-i_a-182" value="" style="shape=switch;whiteSpace=wrap;html=1;direction=south;rotation=-45;fillColor=#d80073;fontColor=#ffffff;strokeColor=#A50040;" vertex="1" parent="WIyWlLk6GJQsqaUBKTNV-1">
          <mxGeometry x="702.0710678118655" y="822.0710678118655" width="10" height="10" as="geometry" />
        </mxCell>
        <mxCell id="ohnDTurre_5R8QuB-i_a-183" value="" style="shape=switch;whiteSpace=wrap;html=1;direction=south;rotation=-45;fillColor=#d80073;fontColor=#ffffff;strokeColor=#A50040;" vertex="1" parent="WIyWlLk6GJQsqaUBKTNV-1">
          <mxGeometry x="732.0710678118655" y="832.0710678118655" width="10" height="10" as="geometry" />
        </mxCell>
        <mxCell id="ohnDTurre_5R8QuB-i_a-184" value="" style="shape=switch;whiteSpace=wrap;html=1;direction=south;rotation=-45;fillColor=#d80073;fontColor=#ffffff;strokeColor=#A50040;" vertex="1" parent="WIyWlLk6GJQsqaUBKTNV-1">
          <mxGeometry x="712.0710678118655" y="842.0710678118655" width="10" height="10" as="geometry" />
        </mxCell>
        <mxCell id="ohnDTurre_5R8QuB-i_a-185" value="" style="shape=switch;whiteSpace=wrap;html=1;direction=south;rotation=-45;fillColor=#d80073;fontColor=#ffffff;strokeColor=#A50040;" vertex="1" parent="WIyWlLk6GJQsqaUBKTNV-1">
          <mxGeometry x="702.0710678118655" y="852.0710678118655" width="10" height="10" as="geometry" />
        </mxCell>
        <mxCell id="ohnDTurre_5R8QuB-i_a-186" value="" style="triangle;whiteSpace=wrap;html=1;fillColor=#d80073;fontColor=#ffffff;strokeColor=#A50040;" vertex="1" parent="WIyWlLk6GJQsqaUBKTNV-1">
          <mxGeometry x="650" y="800" width="10" height="10" as="geometry" />
        </mxCell>
        <mxCell id="ohnDTurre_5R8QuB-i_a-187" value="" style="triangle;whiteSpace=wrap;html=1;fillColor=#d80073;fontColor=#ffffff;strokeColor=#A50040;" vertex="1" parent="WIyWlLk6GJQsqaUBKTNV-1">
          <mxGeometry x="660" y="820" width="10" height="10" as="geometry" />
        </mxCell>
        <mxCell id="ohnDTurre_5R8QuB-i_a-188" value="" style="triangle;whiteSpace=wrap;html=1;fillColor=#d80073;fontColor=#ffffff;strokeColor=#A50040;" vertex="1" parent="WIyWlLk6GJQsqaUBKTNV-1">
          <mxGeometry x="640" y="820" width="10" height="10" as="geometry" />
        </mxCell>
        <mxCell id="ohnDTurre_5R8QuB-i_a-189" value="" style="triangle;whiteSpace=wrap;html=1;fillColor=#d80073;fontColor=#ffffff;strokeColor=#A50040;" vertex="1" parent="WIyWlLk6GJQsqaUBKTNV-1">
          <mxGeometry x="630" y="810" width="10" height="10" as="geometry" />
        </mxCell>
        <mxCell id="ohnDTurre_5R8QuB-i_a-190" value="" style="triangle;whiteSpace=wrap;html=1;fillColor=#d80073;fontColor=#ffffff;strokeColor=#A50040;" vertex="1" parent="WIyWlLk6GJQsqaUBKTNV-1">
          <mxGeometry x="630" y="850" width="10" height="10" as="geometry" />
        </mxCell>
        <mxCell id="ohnDTurre_5R8QuB-i_a-191" value="" style="triangle;whiteSpace=wrap;html=1;fillColor=#d80073;fontColor=#ffffff;strokeColor=#A50040;" vertex="1" parent="WIyWlLk6GJQsqaUBKTNV-1">
          <mxGeometry x="620" y="840" width="10" height="10" as="geometry" />
        </mxCell>
        <mxCell id="ohnDTurre_5R8QuB-i_a-192" value="" style="whiteSpace=wrap;html=1;aspect=fixed;fillColor=#d80073;fontColor=#ffffff;strokeColor=#A50040;" vertex="1" parent="WIyWlLk6GJQsqaUBKTNV-1">
          <mxGeometry x="652.0699999999999" y="880" width="10" height="10" as="geometry" />
        </mxCell>
        <mxCell id="ohnDTurre_5R8QuB-i_a-193" value="" style="whiteSpace=wrap;html=1;aspect=fixed;fillColor=#d80073;fontColor=#ffffff;strokeColor=#A50040;" vertex="1" parent="WIyWlLk6GJQsqaUBKTNV-1">
          <mxGeometry x="680" y="890" width="10" height="10" as="geometry" />
        </mxCell>
        <mxCell id="ohnDTurre_5R8QuB-i_a-194" value="" style="whiteSpace=wrap;html=1;aspect=fixed;fillColor=#d80073;fontColor=#ffffff;strokeColor=#A50040;" vertex="1" parent="WIyWlLk6GJQsqaUBKTNV-1">
          <mxGeometry x="640" y="890" width="10" height="10" as="geometry" />
        </mxCell>
        <mxCell id="ohnDTurre_5R8QuB-i_a-195" value="" style="whiteSpace=wrap;html=1;aspect=fixed;fillColor=#d80073;fontColor=#ffffff;strokeColor=#A50040;" vertex="1" parent="WIyWlLk6GJQsqaUBKTNV-1">
          <mxGeometry x="662.0699999999999" y="900" width="10" height="10" as="geometry" />
        </mxCell>
        <mxCell id="ohnDTurre_5R8QuB-i_a-196" value="" style="whiteSpace=wrap;html=1;aspect=fixed;fillColor=#d80073;fontColor=#ffffff;strokeColor=#A50040;" vertex="1" parent="WIyWlLk6GJQsqaUBKTNV-1">
          <mxGeometry x="700" y="900" width="10" height="10" as="geometry" />
        </mxCell>
        <mxCell id="ohnDTurre_5R8QuB-i_a-197" value="" style="whiteSpace=wrap;html=1;aspect=fixed;fillColor=#d80073;fontColor=#ffffff;strokeColor=#A50040;" vertex="1" parent="WIyWlLk6GJQsqaUBKTNV-1">
          <mxGeometry x="672.0699999999999" y="870" width="10" height="10" as="geometry" />
        </mxCell>
        <mxCell id="ohnDTurre_5R8QuB-i_a-198" value="" style="endArrow=none;dashed=1;html=1;rounded=0;entryX=0.5;entryY=0;entryDx=0;entryDy=0;exitX=0;exitY=1;exitDx=0;exitDy=0;curved=1;strokeWidth=3;fillColor=#d80073;strokeColor=#A50040;" edge="1" parent="WIyWlLk6GJQsqaUBKTNV-1" source="ohnDTurre_5R8QuB-i_a-179" target="ohnDTurre_5R8QuB-i_a-179">
          <mxGeometry width="50" height="50" relative="1" as="geometry">
            <mxPoint x="790" y="790" as="sourcePoint" />
            <mxPoint x="840" y="740" as="targetPoint" />
            <Array as="points">
              <mxPoint x="690" y="860" />
            </Array>
          </mxGeometry>
        </mxCell>
        <mxCell id="ohnDTurre_5R8QuB-i_a-199" value="" style="endArrow=none;dashed=1;html=1;rounded=0;exitX=0.5;exitY=0;exitDx=0;exitDy=0;entryX=1;entryY=1;entryDx=0;entryDy=0;curved=1;strokeWidth=3;fillColor=#d80073;strokeColor=#A50040;" edge="1" parent="WIyWlLk6GJQsqaUBKTNV-1" source="ohnDTurre_5R8QuB-i_a-179" target="ohnDTurre_5R8QuB-i_a-179">
          <mxGeometry width="50" height="50" relative="1" as="geometry">
            <mxPoint x="790" y="790" as="sourcePoint" />
            <mxPoint x="840" y="740" as="targetPoint" />
            <Array as="points">
              <mxPoint x="675" y="860" />
            </Array>
          </mxGeometry>
        </mxCell>
      </root>
    </mxGraphModel>
  </diagram>
</mxfile>
